SplineFontDB: 3.0
FontName: NokyungTestCA
FullName: NokyungTestCA
FamilyName: NokyungTestCA
Weight: Bold
Copyright: Copyright (c) 2008-2014 SIL International
Version: 
ItalicAngle: 0
UnderlinePosition: -113
UnderlineWidth: 20
Ascent: 1638
Descent: 410
sfntRevision: 0x00010000
LayerCount: 2
Layer: 0 0 "Back"  1
Layer: 1 0 "Fore"  0
XUID: [1021 140 1873711314 8450442]
OS2Version: 3
OS2_WeightWidthSlopeOnly: 0
OS2_UseTypoMetrics: 1
CreationTime: 1363859129
ModificationTime: 1398955795
PfmFamily: 17
TTFWeight: 400
TTFWidth: 5
LineGap: 0
VLineGap: 0
Panose: 2 0 4 0 0 0 0 0 0 0
OS2TypoAscent: 24
OS2TypoAOffset: 1
OS2TypoDescent: -238
OS2TypoDOffset: 1
OS2TypoLinegap: 0
OS2WinAscent: 15
OS2WinAOffset: 1
OS2WinDescent: -92
OS2WinDOffset: 1
HheadAscent: 15
HheadAOffset: 1
HheadDescent: 92
HheadDOffset: 1
OS2SubXSize: 1331
OS2SubYSize: 1228
OS2SubXOff: 0
OS2SubYOff: 153
OS2SupXSize: 1331
OS2SupYSize: 1228
OS2SupXOff: 0
OS2SupYOff: 716
OS2StrikeYSize: 20
OS2StrikeYPos: 543
OS2Vendor: 'SIL '
OS2CodePages: 00000001.00000000
OS2UnicodeRanges: 00000001.00000000.80000000.00000000
MarkAttachClasses: 1
DEI: 91125

StartChar: .notdef
Encoding: 65536 -1 0
Width: 1024
Flags: MW
HStem: 0 128<256 768 256 896> 1272 128<256 256 256 768>
VStem: 128 128<128 1272 128 1400> 768 128<128 1272 1272 1272>
LayerCount: 2
Fore
SplineSet
896 0 m 1
 128 0 l 1
 128 1400 l 1
 896 1400 l 1
 896 0 l 1
256 1272 m 1
 256 128 l 1
 768 128 l 1
 768 1272 l 1
 256 1272 l 1
EndSplineSet
EndChar

StartChar: exclam
Encoding: 33 33 4
Width: 412
Flags: MW
HStem: -19 21G<240 313> -19 239<240 313>
VStem: 160 239<66.5 139>
LayerCount: 2
Fore
SplineSet
160 103 m 0x60
 160 175 204 220 276 220 c 0
 350 220 399 175 399 103 c 0
 399 30 350 -19 276 -19 c 0
 204 -19 160 30 160 103 c 0x60
311 315 m 2
 310 305 304 295 293 295 c 2
 263 295 l 2
 254 295 247 305 246 315 c 2
 246 315 186 713 166 850 c 0
 156 921 204 970 276 970 c 0
 350 970 401 921 391 850 c 0
 371 713 311 315 311 315 c 2
EndSplineSet
EndChar

StartChar: quotedbl
Encoding: 34 34 5
Width: 909
Flags: MW
HStem: 819 638<246.5 255 636.5 645>
VStem: 154 204<1328 1367.5> 154 594<1328 1367.5>
LayerCount: 2
Fore
SplineSet
358 1339 m 0xc0
 358 1317 350 1255 334 1154 c 2
 283 830 l 2
 282 822 272 818 255 819 c 0
 238 819 229 823 228 830 c 2
 180 1154 l 2
 163 1271 154 1328 154 1323 c 1
 154 1412 188 1457 257 1457 c 0
 324 1457 358 1418 358 1339 c 0xc0
748 1339 m 0
 748 1317 740 1255 724 1154 c 2
 673 830 l 2
 672 822 662 818 645 819 c 0
 628 819 619 823 618 830 c 2
 570 1154 l 2
 553 1271 544 1328 544 1323 c 1
 544 1412 578 1457 647 1457 c 0
 714 1457 748 1418 748 1339 c 0
EndSplineSet
EndChar

StartChar: numbersign
Encoding: 35 35 6
Width: 1140
Flags: MW
HStem: -17 21G<166.5 200.5 628.5 662.5> 466 98<48 249 52 228 351 689 52 331 814 1088> 949 98<48 350 52 327 52 431 452 790 911 1088>
VStem: 40 1060<499.5 530.5 982.5 1013.5>
LayerCount: 2
Fore
SplineSet
1100 516 m 0
 1100 483 1096 466 1088 466 c 2
 794 466 l 1
 698 -7 l 2
 697 -14 679 -17 646 -17 c 0
 611 -17 594 -14 595 -7 c 2
 689 466 l 1
 331 466 l 1
 236 -7 l 2
 235 -14 217 -17 184 -17 c 0
 149 -17 132 -14 133 -7 c 2
 228 466 l 1
 52 466 l 2
 44 466 40 482 40 514 c 0
 40 547 44 564 52 564 c 2
 249 564 l 1
 327 949 l 1
 52 949 l 2
 44 949 40 965 40 997 c 0
 40 1030 44 1047 52 1047 c 2
 350 1047 l 1
 446 1533 l 2
 447 1540 464 1543 496 1543 c 0
 531 1543 547 1540 546 1533 c 2
 452 1047 l 1
 810 1047 l 1
 912 1533 l 2
 913 1540 930 1543 962 1543 c 0
 997 1543 1013 1540 1012 1533 c 2
 911 1047 l 1
 1088 1047 l 2
 1096 1047 1100 1031 1100 999 c 0
 1100 966 1096 949 1088 949 c 2
 894 949 l 1
 814 564 l 1
 1088 564 l 2
 1096 564 1100 548 1100 516 c 0
710 564 m 1
 790 949 l 1
 431 949 l 1
 351 564 l 1
 710 564 l 1
EndSplineSet
EndChar

StartChar: dollar
Encoding: 36 36 7
Width: 998
Flags: MW
HStem: -14 21G<554 554>
VStem: 148 130<1163.5 1212.5> 441 114<-157 -150 -157 -132 1595 1601.5> 446 103 447 106 757 132<304.5 369.5>
LayerCount: 2
Fore
SplineSet
889 354 m 0xcc
 889 255 859 171 798 104 c 0
 737 37 656 -2 554 -14 c 1
 555 -150 l 2
 555 -164 536 -171 498 -171 c 0
 460 -171 441 -164 441 -150 c 0
 441 -114 441 -69 442 -14 c 1xe4
 313 -1 212 51 138 142 c 0
 127 155 134 178 159 210 c 0
 180 237 195 251 205 251 c 1
 208 250 210 249 211 247 c 0
 231 206 263 169 307 134 c 0
 353 97 398 75 443 67 c 1
 451 734 l 1xcc
 342 819 271 880 240 918 c 0
 179 992 148 1077 148 1174 c 0
 148 1251 172 1320 219 1379 c 0
 272 1446 347 1485 442 1495 c 1
 441 1595 l 2
 441 1608 460 1615 498 1615 c 0
 536 1615 555 1608 555 1595 c 0
 555 1569 555 1536 554 1495 c 1xe4
 663 1482 751 1434 820 1350 c 0
 824 1345 826 1341 826 1336 c 0
 826 1329 814 1314 789 1291 c 0
 756 1260 735 1252 728 1267 c 0
 687 1350 629 1399 554 1413 c 1
 546 823 l 1xd4
 666 732 744 667 779 628 c 0
 852 545 889 454 889 354 c 0xcc
450 901 m 1xd4
 443 1411 l 1
 333 1390 278 1326 278 1218 c 0
 278 1109 335 1003 450 901 c 1xd4
757 321 m 0
 757 418 686 530 545 655 c 1
 547 526 550 331 553 72 c 1xcc
 622 86 674 119 710 170 c 0
 741 213 757 264 757 321 c 0
EndSplineSet
EndChar

StartChar: percent
Encoding: 37 37 8
Width: 1386
Flags: MW
HStem: -17 81<975.5 1043.5> 587 81<974 1022.5> 813 81<365.5 433.5> 1417 81<364 412.5>
VStem: 100 135<1115.5 1191.5 1115.5 1197.5> 543 133<1109.5 1194.5> 710 135<285.5 361.5 285.5 367.5> 1153 133<279.5 364.5>
LayerCount: 2
Fore
SplineSet
676 1155 m 0
 676 1064 652 987 605 922 c 0
 551 849 479 813 388 813 c 0
 297 813 224 850 170 925 c 0
 123 990 100 1067 100 1155 c 0
 100 1240 123 1315 170 1382 c 0
 225 1459 297 1498 388 1498 c 0
 483 1498 557 1460 610 1384 c 0
 654 1321 676 1244 676 1155 c 0
543 1155 m 0
 543 1234 529 1298 502 1345 c 0
 475 1393 437 1417 388 1417 c 0
 340 1417 302 1390 274 1337 c 0
 248 1288 235 1228 235 1155 c 0
 235 1076 249 1012 277 965 c 0
 306 918 343 894 388 894 c 0
 491 894 543 981 543 1155 c 0
1286 325 m 0
 1286 234 1262 157 1215 92 c 0
 1161 19 1089 -17 998 -17 c 0
 907 -17 834 20 780 95 c 0
 733 160 710 237 710 325 c 0
 710 410 733 485 780 552 c 0
 835 629 907 668 998 668 c 0
 1093 668 1167 630 1220 554 c 0
 1264 491 1286 414 1286 325 c 0
1153 325 m 0
 1153 404 1139 468 1112 515 c 0
 1085 563 1047 587 998 587 c 0
 950 587 912 560 884 507 c 0
 858 458 845 398 845 325 c 0
 845 246 859 182 887 135 c 0
 916 88 953 64 998 64 c 0
 1101 64 1153 151 1153 325 c 0
1127 1487 m 1
 1124 1478 l 1
 402 3 l 2
 395 -10 371 -17 330 -17 c 0
 293 -17 274 -14 274 -8 c 1
 275 -5 276 -1 278 3 c 2
 1005 1478 l 2
 1012 1491 1034 1498 1071 1498 c 0
 1108 1498 1127 1494 1127 1487 c 1
EndSplineSet
EndChar

StartChar: ampersand
Encoding: 38 38 9
Width: 1267
Flags: MW
HStem: -33 21G -17 87<422.5 506.5 422.5 521.5> 895 20G 1417 81<574 618.5>
VStem: 100 140<276.5 366.5 276.5 376> 286 136<1095.5 1170 1095.5 1183> 749 134<1194 1238.5>
LayerCount: 2
Fore
SplineSet
1163 44 m 0x7e
 1166 43 1167 41 1167 38 c 0
 1167 28 1144 12 1097 -10 c 0
 1050 -32 1020 -38 1007 -28 c 0xbe
 943 21 876 84 805 159 c 1
 696 42 581 -17 462 -17 c 0
 221 -17 100 89 100 301 c 0
 100 451 194 607 382 770 c 1
 318 908 286 1025 286 1122 c 0
 286 1244 319 1339 384 1408 c 0
 441 1468 512 1498 596 1498 c 0
 777 1498 883 1399 883 1227 c 0
 883 1161 845 1085 768 999 c 0
 745 973 664 894 524 763 c 1
 596 612 692 469 813 334 c 1
 866 419 908 512 941 613 c 0
 972 708 988 789 988 855 c 0
 988 876 986 895 982 910 c 1
 988 911 994 913 1001 915 c 1
 1016 912 1040 906 1074 895 c 2
 1101 886 l 2
 1135 875 1151 867 1150 860 c 0
 1096 629 1008 429 885 258 c 1
 979 165 1072 93 1163 44 c 0x7e
749 1208 m 0
 749 1269 735 1319 706 1358 c 0
 678 1397 641 1417 596 1417 c 0
 552 1417 512 1387 476 1326 c 0
 440 1266 422 1203 422 1137 c 0
 422 1054 443 960 484 855 c 1
 573 930 635 987 669 1027 c 0
 722 1090 749 1150 749 1208 c 0
739 232 m 1
 616 374 514 521 432 672 c 1
 304 539 240 420 240 313 c 0
 240 240 258 182 293 139 c 1
 332 93 387 70 458 70 c 0
 555 70 649 124 739 232 c 1
EndSplineSet
EndChar

StartChar: quotesingle
Encoding: 39 39 10
Width: 412
Flags: MW
HStem: 819 638<196.5 205>
VStem: 104 204<1328 1367.5>
LayerCount: 2
Fore
SplineSet
308 1339 m 0
 308 1317 300 1255 284 1154 c 2
 233 830 l 2
 232 822 222 818 205 819 c 0
 188 819 179 823 178 830 c 2
 130 1154 l 2
 113 1271 104 1328 104 1323 c 1
 104 1412 138 1457 207 1457 c 0
 274 1457 308 1418 308 1339 c 0
EndSplineSet
EndChar

StartChar: parenleft
Encoding: 40 40 11
Width: 705
Flags: MW
HStem: -625 2232
VStem: 161 142<341.5 621.5 341.5 742>
LayerCount: 2
Fore
SplineSet
808 -615 m 0
 785 -632 742 -628 681 -601 c 0
 538 -540 420 -427 328 -264 c 0
 217 -67 161 178 161 473 c 0
 161 1011 334 1377 681 1571 c 0
 742 1605 785 1615 808 1602 c 0
 810 1601 811 1599 811 1597 c 0
 811 1586 785 1567 734 1540 c 0
 634 1488 543 1380 460 1215 c 0
 355 1006 303 761 303 482 c 0
 303 201 354 -43 457 -249 c 0
 541 -417 633 -521 734 -560 c 0
 785 -580 811 -596 811 -609 c 0
 811 -612 810 -614 808 -615 c 0
EndSplineSet
EndChar

StartChar: parenright
Encoding: 41 41 12
Width: 705
Flags: MW
HStem: -586 2232
VStem: 401 143<398.5 679>
LayerCount: 2
Fore
SplineSet
544 548 m 0
 544 10 371 -356 24 -550 c 0
 -37 -584 -80 -594 -103 -581 c 0
 -105 -580 -106 -578 -106 -576 c 0
 -106 -565 -81 -546 -30 -519 c 0
 70 -467 161 -359 244 -194 c 0
 349 15 401 259 401 538 c 0
 401 820 350 1064 247 1269 c 1
 164 1438 72 1542 -29 1581 c 0
 -81 1602 -107 1618 -107 1630 c 0
 -107 1633 -106 1635 -104 1636 c 0
 -81 1653 -38 1649 24 1622 c 0
 167 1561 285 1448 377 1285 c 0
 488 1088 544 843 544 548 c 0
EndSplineSet
EndChar

StartChar: asterisk
Encoding: 42 42 13
Width: 1025
Flags: MW
HStem: 732 828<511 718>
VStem: 473 77<1212.5 1234>
LayerCount: 2
Fore
SplineSet
930 1257 m 0
 940 1227 945 1208 945 1200 c 0
 945 1189 937 1182 922 1177 c 0
 889 1166 831 1155 748 1142 c 0
 676 1131 619 1117 577 1099 c 1
 600 1060 638 1015 690 962 c 0
 748 903 787 860 808 831 c 0
 814 822 817 816 817 811 c 0
 817 802 802 787 771 765 c 0
 741 743 722 732 714 732 c 0
 707 732 700 737 693 747 c 0
 672 776 643 827 606 902 c 0
 573 967 542 1017 512 1052 c 1
 482 1017 450 967 417 902 c 1
 378 829 349 778 328 749 c 0
 321 739 314 734 307 734 c 0
 299 734 281 744 254 763 c 1
 221 788 204 804 204 813 c 0
 204 818 207 825 213 833 c 0
 234 861 274 904 334 963 c 0
 386 1014 424 1060 447 1099 c 1
 405 1116 348 1131 275 1143 c 0
 194 1157 136 1169 102 1180 c 0
 87 1185 80 1192 80 1203 c 0
 80 1211 84 1228 93 1255 c 0
 107 1297 120 1318 131 1318 c 0
 135 1318 140 1317 146 1315 c 0
 179 1304 233 1280 307 1241 c 0
 372 1207 427 1185 472 1175 c 1
 473 1188 473 1202 473 1216 c 0
 473 1252 468 1304 458 1371 c 0
 448 1439 443 1491 443 1528 c 0
 443 1545 450 1556 465 1559 c 0
 468 1560 483 1560 511 1560 c 2
 559 1560 l 1
 576 1557 585 1546 585 1528 c 0
 585 1491 579 1439 567 1372 c 0
 556 1305 550 1255 550 1220 c 0
 550 1205 551 1190 552 1175 c 1
 596 1186 651 1207 717 1240 c 0
 791 1277 845 1301 878 1312 c 0
 885 1314 890 1315 894 1315 c 0
 905 1315 917 1296 930 1257 c 0
EndSplineSet
EndChar

StartChar: plus
Encoding: 43 43 14
Width: 1970
Flags: MW
HStem: 0 21G<924 1046 924 924> 530 122<394 924 394 924 1046 1576>
VStem: 924 122<0 530 0 530 652 1182>
LayerCount: 2
Fore
SplineSet
1576 652 m 1
 1576 530 l 1
 1046 530 l 1
 1046 0 l 1
 924 0 l 1
 924 530 l 1
 394 530 l 1
 394 652 l 1
 924 652 l 1
 924 1182 l 1
 1046 1182 l 1
 1046 652 l 1
 1576 652 l 1
EndSplineSet
EndChar

StartChar: comma
Encoding: 44 44 15
Width: 766
Flags: MW
HStem: -19 21G<255.5 306>
VStem: 160 300<88.5 179.5>
LayerCount: 2
Fore
SplineSet
160 134 m 0
 160 225 215 281 306 281 c 0
 399 281 460 225 460 134 c 0
 460 -62 382 -183 214 -241 c 0
 205 -244 199 -242 195 -233 c 2
 181 -193 l 1
 179 -184 178 -174 188 -170 c 0
 279 -137 349 -68 366 10 c 1
 352 -6 326 -19 286 -19 c 0
 225 -19 160 43 160 134 c 0
EndSplineSet
EndChar

StartChar: hyphen
Encoding: 45 45 16
Width: 635
Flags: MW
HStem: 505 89<135.5 488 147 488 488 490>
VStem: 118 399<535.5 565.5>
LayerCount: 2
Fore
SplineSet
517 551 m 0
 517 520 508 505 490 505 c 2
 144 505 l 2
 127 505 118 520 118 551 c 0
 118 580 128 594 147 594 c 2
 488 594 l 2
 507 594 517 580 517 551 c 0
EndSplineSet
EndChar

StartChar: period
Encoding: 46 46 17
Width: 766
Flags: MW
HStem: -19 21G<260.5 352.5>
VStem: 160 300<88.5 179.5>
LayerCount: 2
Fore
SplineSet
160 134 m 0
 160 225 215 281 306 281 c 0
 399 281 460 225 460 134 c 0
 460 43 399 -19 306 -19 c 0
 215 -19 160 43 160 134 c 0
EndSplineSet
EndChar

StartChar: slash
Encoding: 47 47 18
Width: 633
Flags: MW
HStem: -35 1619<40 623.5>
VStem: 7 647
LayerCount: 2
Fore
SplineSet
653 1564 m 2
 122 -16 l 2
 118 -29 97 -35 59 -35 c 0
 21 -35 4 -29 8 -16 c 2
 544 1564 l 2
 549 1577 569 1584 605 1584 c 0
 642 1584 658 1577 653 1564 c 2
EndSplineSet
EndChar

StartChar: zero
Encoding: 48 48 19
Width: 956
Flags: MW
HStem: -17 81<436.5 521.5 436.5 610.5> 1417 81<436 520.5>
VStem: 80 135<638 846 634.5 847.5> 743 133<634.5 846.5>
LayerCount: 2
Fore
SplineSet
876 740 m 0
 876 235 743 -17 478 -17 c 0
 341 -17 238 66 167 231 c 0
 109 366 80 536 80 740 c 0
 80 955 110 1129 170 1263 c 0
 240 1420 343 1498 478 1498 c 0
 743 1498 876 1245 876 740 c 0
743 740 m 0
 743 953 720 1118 675 1236 c 0
 629 1357 563 1417 478 1417 c 0
 394 1417 329 1357 283 1237 c 0
 238 1118 215 952 215 740 c 0
 215 529 238 364 284 245 c 0
 330 124 395 64 478 64 c 0
 565 64 632 126 678 249 c 0
 721 366 743 529 743 740 c 0
EndSplineSet
EndChar

StartChar: one
Encoding: 49 49 20
Width: 956
Flags: MW
HStem: -17 21G<573.5 602.5> -17 41
VStem: 526 124<721 805>
LayerCount: 2
Fore
SplineSet
660 24 m 1x60
 660 5 655 -7 644 -12 c 0
 636 -15 617 -17 588 -17 c 0
 559 -17 540 -15 533 -12 c 0
 522 -7 516 5 516 24 c 1
 516 23 518 122 521 319 c 0
 524 516 526 668 526 774 c 0
 526 836 523 999 518 1263 c 1
 423 1136 351 1022 302 922 c 0
 299 916 294 913 288 913 c 0
 279 913 262 922 239 941 c 0
 212 962 199 978 199 989 c 0
 199 993 201 997 204 1000 c 0
 237 1035 295 1110 379 1227 c 0
 470 1354 516 1427 516 1446 c 0
 516 1465 522 1478 533 1483 c 0
 541 1486 559 1488 588 1488 c 0
 617 1488 635 1486 643 1483 c 0
 654 1478 660 1466 660 1447 c 2
 654 1111 l 2
 651 972 650 859 650 774 c 0
 650 668 652 516 655 319 c 0
 658 122 660 23 660 24 c 1x60
EndSplineSet
EndChar

StartChar: two
Encoding: 50 50 21
Width: 956
Flags: MW
HStem: -16 92<155.5 580 262 550> 1418 80<450.5 516>
VStem: 102 134<125.5 168> 715 134<1154.5 1204.5>
LayerCount: 2
Fore
SplineSet
857 69 m 0
 864 25 863 2 854 0 c 0
 801 -11 700 -16 550 -16 c 2
 171 -16 l 2
 140 -16 119 -3 110 23 c 0
 105 38 102 66 102 106 c 0
 102 230 125 330 170 406 c 1
 199 453 276 542 402 672 c 0
 529 802 615 906 660 983 c 0
 697 1046 715 1109 715 1172 c 0
 715 1237 694 1294 653 1341 c 0
 608 1392 551 1418 481 1418 c 0
 420 1418 362 1397 308 1356 c 0
 259 1319 227 1276 211 1227 c 0
 210 1223 207 1221 203 1221 c 0
 190 1221 172 1234 149 1261 c 0
 124 1290 117 1313 130 1330 c 0
 217 1442 344 1498 511 1498 c 0
 607 1498 687 1471 750 1418 c 0
 816 1362 849 1288 849 1196 c 0
 849 1113 828 1038 785 969 c 0
 740 896 639 781 484 622 c 0
 378 514 309 425 276 356 c 0
 249 301 236 233 236 150 c 0
 236 101 245 76 262 76 c 2
 580 76 l 2
 681 76 764 88 829 113 c 0
 842 118 851 103 857 69 c 0
EndSplineSet
EndChar

StartChar: three
Encoding: 51 51 22
Width: 956
Flags: MW
HStem: -17 81<401.5 471 401.5 524.5> 811 78 1418 80<437 488>
VStem: 691 118<1089.5 1182.5> 732 134<394.5 508.5>
LayerCount: 2
Fore
SplineSet
866 448 m 0xe8
 866 313 834 204 769 121 c 0
 697 29 593 -17 456 -17 c 0
 306 -17 189 27 105 115 c 0
 96 124 101 143 119 170 c 0
 141 203 160 219 176 219 c 0
 179 219 180 218 181 217 c 0
 207 178 241 144 283 115 c 0
 332 81 379 64 424 64 c 0
 518 64 593 101 650 176 c 0
 705 247 732 339 732 450 c 0
 732 567 705 658 650 723 c 0xe8
 596 788 522 818 428 811 c 1
 425 819 422 833 420 854 c 1
 423 877 428 889 437 889 c 0
 606 889 691 973 691 1142 c 0
 691 1223 670 1289 628 1339 c 0
 584 1392 525 1418 451 1418 c 0
 349 1418 273 1366 223 1262 c 0
 222 1261 221 1260 219 1260 c 0
 211 1260 194 1274 169 1301 c 0
 145 1326 135 1343 140 1350 c 0
 169 1395 215 1430 276 1457 c 0
 338 1484 403 1498 471 1498 c 0
 582 1498 668 1465 728 1400 c 0
 782 1341 809 1263 809 1166 c 0xf0
 809 1013 748 910 625 857 c 1
 786 797 866 661 866 448 c 0xe8
EndSplineSet
EndChar

StartChar: four
Encoding: 52 52 23
Width: 956
Flags: MW
HStem: -17 21G<673.5 702.5> 405 90<261 622>
VStem: 101 134<446.5 592.5> 616 144<14.5 21.5> 626 124<740 830>
LayerCount: 2
Fore
SplineSet
866 490 m 0xe8
 873 446 872 423 863 421 c 0
 833 416 797 412 754 409 c 1
 760 24 l 2
 760 5 755 -7 744 -12 c 0
 736 -15 717 -17 688 -17 c 0
 659 -17 640 -15 633 -12 c 0
 622 -7 616 5 616 24 c 1
 616 19 618 146 622 405 c 1xf0
 170 405 l 2
 124 405 101 426 101 467 c 0
 101 546 118 626 152 705 c 0
 181 773 238 872 321 1002 c 0
 384 1101 459 1212 545 1335 c 0
 591 1400 615 1441 617 1457 c 0
 620 1478 642 1488 685 1488 c 0
 714 1488 732 1486 740 1483 c 0
 751 1478 757 1466 757 1447 c 0
 757 1445 756 1359 753 1190 c 0
 751 1021 750 884 750 779 c 0
 750 701 751 611 752 510 c 1
 785 517 814 525 838 534 c 0
 851 539 860 525 866 490 c 0xe8
626 779 m 0
 626 881 624 1046 619 1273 c 1
 547 1184 468 1071 382 932 c 0
 284 774 235 644 235 541 c 0
 235 510 244 495 261 495 c 2
 624 495 l 1
 625 594 626 688 626 779 c 0
EndSplineSet
EndChar

StartChar: five
Encoding: 53 53 24
Width: 956
Flags: MW
HStem: -17 81<410.5 527.5> 891 78<470.5 521.5> 906 20G<285 286.5> 1401 90<370.5 381 381 628 628 634>
VStem: 742 134<390.5 550.5 390.5 553>
LayerCount: 2
Fore
SplineSet
876 468 m 0xb8
 876 313 837 193 760 106 c 0
 687 24 589 -17 466 -17 c 0
 313 -17 194 36 108 142 c 0
 97 155 104 178 129 210 c 0
 150 237 165 251 175 251 c 1
 178 250 180 249 181 247 c 0
 204 200 239 159 287 123 c 0
 338 84 387 64 434 64 c 0
 639 64 742 206 742 490 c 0
 742 616 715 716 661 791 c 0
 613 858 555 891 488 891 c 0
 430 891 381 877 342 848 c 0
 303 820 276 806 263 806 c 0
 252 806 229 817 195 838 c 0
 161 860 144 875 144 883 c 0
 144 886 144 888 145 890 c 0xd8
 155 922 172 1021 197 1186 c 1
 220 1346 232 1438 232 1462 c 0
 232 1481 246 1491 275 1491 c 2
 628 1491 l 2
 728 1491 789 1487 812 1478 c 0
 819 1475 822 1467 821 1453 c 0
 821 1444 819 1429 815 1409 c 0
 808 1364 798 1344 787 1350 c 0
 723 1384 672 1401 634 1401 c 2
 381 1401 l 2
 360 1401 349 1395 346 1382 c 0
 323 1270 301 1125 280 948 c 0
 279 935 280 928 285 926 c 1xb8
 288 926 311 933 354 947 c 0
 397 962 444 969 497 969 c 0xd8
 609 969 698 929 765 849 c 0
 839 760 876 633 876 468 c 0xb8
EndSplineSet
EndChar

StartChar: six
Encoding: 54 54 25
Width: 956
Flags: MW
HStem: -17 81<446 519.5 446 544.5> 887 81<450 518.5> 1418 81<484.5 550.5>
VStem: 80 137 743 133<440.5 544.5>
LayerCount: 2
Fore
SplineSet
876 496 m 0
 876 361 846 246 785 152 c 0
 713 39 611 -17 478 -17 c 0
 353 -17 256 41 187 156 c 0
 116 276 80 449 80 674 c 0
 80 951 123 1161 209 1303 c 0
 288 1434 398 1499 538 1499 c 0
 665 1499 759 1454 819 1364 c 0
 828 1351 819 1330 792 1301 c 0
 769 1275 752 1262 743 1262 c 0
 740 1262 738 1263 736 1266 c 0
 703 1321 674 1359 648 1380 c 0
 616 1405 575 1418 526 1418 c 0
 443 1418 375 1368 320 1269 c 0
 260 1160 226 1005 217 803 c 1
 290 913 377 968 478 968 c 0
 614 968 717 916 788 813 c 0
 847 728 876 622 876 496 c 0
743 496 m 0
 743 593 720 680 675 757 c 0
 624 844 559 887 478 887 c 0
 422 887 370 855 321 792 c 0
 273 729 240 646 221 545 c 1
 234 390 265 270 314 184 c 0
 359 104 414 64 478 64 c 0
 561 64 628 111 678 206 c 0
 721 289 743 385 743 496 c 0
EndSplineSet
EndChar

StartChar: seven
Encoding: 55 55 26
Width: 956
Flags: MW
HStem: -15 21G 1401 90<337 833 408 706>
VStem: 732 144<1366.5 1381>
LayerCount: 2
Fore
SplineSet
876 1381 m 0
 876 1352 857 1297 820 1216 c 1
 590 733 l 1
 520 582 465 427 425 269 c 0
 394 148 379 59 379 0 c 0
 379 -5 379 -8 378 -11 c 0
 375 -19 349 -17 300 -4 c 0
 251 9 228 25 231 44 c 0
 236 89 266 184 319 328 c 0
 376 483 438 634 506 780 c 0
 657 1104 732 1301 732 1371 c 0
 732 1391 723 1401 706 1401 c 2
 378 1401 l 2
 296 1401 213 1384 129 1351 c 0
 117 1346 108 1364 101 1405 c 0
 94 1449 95 1472 104 1474 c 0
 160 1485 261 1491 408 1491 c 2
 833 1491 l 2
 848 1491 860 1472 869 1433 c 0
 874 1414 876 1397 876 1381 c 0
EndSplineSet
EndChar

StartChar: eight
Encoding: 56 56 27
Width: 956
Flags: MW
HStem: -17 81<437.5 521 437.5 552> 813 81<443.5 520.5> 1417 81<445 511.5>
VStem: 80 135<364.5 474 364.5 525> 130 135<1112.5 1184.5 1112.5 1192.5> 693 133<1079.5 1186.5> 743 133<364 476.5>
LayerCount: 2
Fore
SplineSet
876 416 m 0xf2
 876 305 851 213 802 138 c 0
 734 35 626 -17 478 -17 c 0
 331 -17 223 36 154 141 c 0
 105 216 80 308 80 416 c 0xf2
 80 634 151 780 292 853 c 1
 184 908 130 1007 130 1150 c 0
 130 1235 159 1311 216 1380 c 1
 283 1459 370 1498 478 1498 c 0
 597 1498 688 1459 750 1382 c 0
 801 1319 826 1241 826 1150 c 0xec
 826 1009 775 911 672 856 c 1
 808 791 876 645 876 416 c 0xf2
693 1150 m 0xec
 693 1223 675 1285 638 1336 c 0
 598 1390 545 1417 478 1417 c 0
 412 1417 359 1388 319 1331 c 0
 283 1280 265 1219 265 1150 c 0
 265 1075 282 1014 317 969 c 0
 355 919 409 894 478 894 c 0
 621 894 693 979 693 1150 c 0xec
743 416 m 0xf2
 743 537 720 632 675 703 c 0
 628 776 563 813 478 813 c 0
 396 813 331 775 283 699 c 0
 238 626 215 532 215 416 c 0
 215 313 238 229 284 165 c 0
 332 98 397 64 478 64 c 0
 564 64 631 98 678 166 c 0
 721 229 743 312 743 416 c 0xf2
EndSplineSet
EndChar

StartChar: nine
Encoding: 57 57 28
Width: 956
Flags: MW
HStem: -17 81<401.5 472.5 401.5 521.5> 574 81<439.5 508 439.5 540> 1418 81<440.5 509.5>
VStem: 80 133<970.5 1081 970.5 1093.5> 740 136
LayerCount: 2
Fore
SplineSet
876 808 m 0
 876 559 839 360 765 211 c 0
 690 59 587 -17 456 -17 c 0
 317 -17 203 27 115 115 c 0
 107 123 103 130 103 136 c 0
 103 144 112 162 129 190 c 0
 154 230 171 242 181 227 c 0
 208 186 242 151 283 120 c 0
 332 83 379 64 424 64 c 0
 521 64 597 121 651 234 c 0
 706 347 735 507 740 712 c 1
 676 620 592 574 488 574 c 0
 357 574 256 614 185 695 c 0
 115 774 80 884 80 1026 c 0
 80 1161 116 1273 188 1362 c 1
 263 1453 359 1499 478 1499 c 0
 603 1499 700 1441 769 1326 c 0
 840 1206 876 1033 876 808 c 0
733 957 m 1
 719 1106 688 1221 640 1303 c 0
 595 1380 541 1418 478 1418 c 0
 403 1418 340 1380 289 1304 c 0
 238 1229 213 1136 213 1026 c 0
 213 915 238 824 289 755 c 0
 338 688 401 655 478 655 c 0
 538 655 591 683 637 740 c 1
 682 794 714 866 733 957 c 1
EndSplineSet
EndChar

StartChar: colon
Encoding: 58 58 29
Width: 699
Flags: MW
HStem: -19 21G<240 313> -19 239<240 313> 351 239<240 313>
VStem: 160 239<66.5 139 436.5 509>
LayerCount: 2
Fore
SplineSet
160 103 m 0x70
 160 175 204 220 276 220 c 0
 350 220 399 175 399 103 c 0
 399 30 350 -19 276 -19 c 0
 204 -19 160 30 160 103 c 0x70
160 473 m 0
 160 545 204 590 276 590 c 0
 350 590 399 545 399 473 c 0
 399 400 350 351 276 351 c 0
 204 351 160 400 160 473 c 0
EndSplineSet
EndChar

StartChar: semicolon
Encoding: 59 59 30
Width: 407
Flags: MW
HStem: -17 21G<169.5 185.5>
VStem: 108 185<672.5 728> 259 57<-48 -19.5>
LayerCount: 2
Fore
SplineSet
293 709 m 0xc0
 293 634 252 583 200 583 c 0
 147 583 108 636 108 709 c 0
 108 747 118 777 137 800 c 0
 154 821 175 831 200 831 c 0
 248 831 293 781 293 709 c 0xc0
316 3 m 0xa0
 316 -99 285 -196 222 -287 c 0
 171 -362 132 -400 106 -400 c 1
 102 -397 l 1
 101 -394 114 -376 140 -341 c 0
 173 -298 199 -256 217 -217 c 0
 245 -157 259 -96 259 -35 c 0
 259 -4 252 12 239 12 c 0
 237 12 229 7 215 -2 c 1
 202 -12 190 -17 181 -17 c 0
 158 -17 138 -5 121 20 c 0
 104 45 96 74 96 107 c 0
 96 142 107 172 128 195 c 0
 147 215 169 225 192 225 c 0
 275 225 316 151 316 3 c 0xa0
EndSplineSet
EndChar

StartChar: less
Encoding: 60 60 31
Width: 1970
Flags: MW
HStem: 77 1028<1576 1576>
VStem: 394 1182<77 652 77 652>
LayerCount: 2
Fore
SplineSet
1576 199 m 1
 1576 77 l 1
 394 530 l 1
 394 652 l 1
 1576 1105 l 1
 1576 983 l 1
 520 591 l 1
 1576 199 l 1
EndSplineSet
EndChar

StartChar: equal
Encoding: 61 61 32
Width: 1970
Flags: MW
HStem: 351 122<394 1576 394 1576> 709 122<394 1576 394 1576>
VStem: 394 1182<351 473 351 473 709 831 351 831>
LayerCount: 2
Fore
SplineSet
1576 831 m 1
 1576 709 l 1
 394 709 l 1
 394 831 l 1
 1576 831 l 1
1576 473 m 1
 1576 351 l 1
 394 351 l 1
 394 473 l 1
 1576 473 l 1
EndSplineSet
EndChar

StartChar: greater
Encoding: 62 62 33
Width: 1970
Flags: MW
HStem: 77 1028<394 394>
VStem: 394 1182<77 652 199 652 530 1105 530 1105>
LayerCount: 2
Fore
SplineSet
1576 652 m 1
 1576 530 l 1
 394 77 l 1
 394 199 l 1
 1450 591 l 1
 394 983 l 1
 394 1105 l 1
 1576 652 l 1
EndSplineSet
EndChar

StartChar: question
Encoding: 63 63 34
Width: 720
Flags: MW
HStem: -17 145<349 385.5> 901 67<337.5 396.5>
VStem: 302 132<33.5 71.5> 319 85 520 104
LayerCount: 2
Fore
SplineSet
624 722 m 0xd8
 623 655 605 598 570 551 c 0
 545 518 512 490 471 469 c 1
 412 441 l 1
 407 436 405 401 404 337 c 0
 403 280 404 241 406 221 c 0
 407 213 402 208 392 205 c 0
 386 204 378 203 367 203 c 0
 350 203 341 203 338 204 c 0
 327 206 320 211 318 220 c 0
 315 233 316 279 319 357 c 0
 322 436 327 479 332 486 c 1
 365 504 397 522 429 541 c 1
 490 586 520 645 520 717 c 0
 520 771 505 816 474 852 c 0
 446 885 414 901 379 901 c 0
 296 901 237 850 203 747 c 0
 198 731 178 733 143 753 c 0
 106 775 92 793 101 807 c 0
 172 914 266 968 382 968 c 0
 447 968 502 947 549 904 c 0
 600 857 625 797 624 722 c 0xd8
434 52 m 0xe8
 434 15 404 -17 367 -17 c 0
 331 -17 302 15 302 52 c 0
 302 91 328 128 363 128 c 0
 410 128 434 103 434 52 c 0xe8
EndSplineSet
EndChar

StartChar: at
Encoding: 64 64 35
Width: 1887
Flags: MW
HStem: -443 63<849.5 1085.5 849.5 1090.5> 32 70<1249.5 1283.5> 32 120<651.5 799.5> 918 47<1013 1094 988 1099.5> 1371 51<930.5 1140>
VStem: 97 94<329.5 555.5 308.5 595.5> 496 158<271.5 341.5> 1054 144<152 192.5> 1696 61<662.5 844.5 638.5 850.5>
LayerCount: 2
Fore
SplineSet
1779 171 m 1xdf80
 1836 171 l 1
 1799 36 1718 -89 1591 -206 c 0
 1420 -364 1212 -443 969 -443 c 0
 697 -443 479 -347 315 -156 c 0
 170 14 97 214 97 445 c 0
 97 746 200 990 406 1175 c 0
 589 1340 801 1422 1042 1422 c 0
 1247 1422 1415 1364 1546 1247 c 0
 1687 1122 1757 952 1757 737 c 0
 1757 540 1704 373 1597 236 c 0
 1491 100 1361 32 1206 32 c 0xdf80
 1105 32 1054 80 1054 177 c 0
 1054 208 1059 254 1070 315 c 1
 912 126 781 32 676 32 c 0
 627 32 586 52 551 93 c 0xbf80
 514 136 496 193 496 262 c 0
 496 421 559 579 686 736 c 0
 810 889 930 965 1046 965 c 0
 1142 965 1200 919 1220 826 c 1
 1251 936 l 1
 1407 959 l 1
 1292 560 l 2
 1229 339 1198 212 1198 177 c 0
 1198 127 1224 102 1275 102 c 0
 1367 102 1457 160 1545 275 c 0
 1646 407 1696 568 1696 757 c 0
 1696 944 1633 1094 1506 1208 c 0
 1385 1317 1232 1371 1048 1371 c 0
 813 1371 612 1282 447 1105 c 0
 276 922 191 693 191 418 c 0
 191 199 255 16 384 -132 c 0
 527 -297 724 -380 975 -380 c 0
 1196 -380 1384 -311 1537 -172 c 0
 1638 -81 1718 33 1779 171 c 1xdf80
1182 756 m 0
 1182 864 1141 918 1058 918 c 0
 968 918 876 835 782 670 c 0
 697 519 654 394 654 294 c 0
 654 249 667 213 693 186 c 0
 715 163 740 152 768 152 c 0xbf80
 831 152 899 190 971 267 c 0
 1038 338 1089 421 1126 514 c 0
 1163 607 1182 688 1182 756 c 0
EndSplineSet
EndChar

StartChar: A
Encoding: 65 65 36
Width: 1472
Flags: MW
HStem: 0 37<16 443 16 16> 455 73<443 910 443 938 412 910> 1367 20G<717 753 753 753>
VStem: 16 1440<0 37 0 37>
LayerCount: 2
Fore
SplineSet
1456 37 m 1
 1456 0 l 1
 922 0 l 1
 922 37 l 1
 1013 39 1059 68 1059 124 c 0
 1059 150 1046 195 1019 260 c 2
 938 455 l 1
 412 455 l 1
 319 238 l 2
 297 186 286 149 286 126 c 0
 286 76 338 46 443 37 c 1
 443 0 l 1
 16 0 l 1
 16 37 l 1
 69 41 113 62 147 101 c 0
 174 132 205 189 240 270 c 2
 717 1387 l 1
 753 1387 l 1
 1223 260 l 2
 1262 169 1296 109 1327 81 c 0
 1354 56 1397 42 1456 37 c 1
443 528 m 1
 910 528 l 1
 680 1078 l 1
 443 528 l 1
EndSplineSet
EndChar

StartChar: B
Encoding: 66 66 37
Width: 1332
Flags: MW
HStem: 0 37<35 85 85 113.5 35 674 35 85> 0 71<616 674> 664 69<569 666.5> 1289 66<568 621 621 664> 1320 35<35 85 35 621>
VStem: 229 193<240 654 747 1117 1117 1160> 981 211<919 1044> 1023 230<315 401.5>
LayerCount: 2
Fore
SplineSet
1253 370 m 0xad
 1253 260 1208 170 1117 99 c 0
 1034 33 886 0 674 0 c 2
 35 0 l 1
 35 37 l 1
 85 37 l 2
 142 37 182 56 207 93 c 0
 222 114 229 163 229 240 c 2
 229 1117 l 2
 229 1203 220 1256 201 1277 c 0
 176 1306 137 1320 85 1320 c 2
 35 1320 l 1
 35 1355 l 1
 621 1355 l 2
 1002 1355 1192 1234 1192 993 c 0xae
 1192 845 1110 745 946 694 c 1
 1151 654 1253 546 1253 370 c 0xad
981 1003 m 0xb6
 981 1085 950 1152 888 1203 c 0
 820 1260 725 1289 603 1289 c 0
 533 1289 473 1282 422 1269 c 1
 422 747 l 1
 461 738 525 733 613 733 c 0
 858 733 981 823 981 1003 c 0xb6
1023 355 m 0x6d
 1023 448 987 522 914 577 c 1
 839 635 734 664 599 664 c 0
 512 664 453 661 422 654 c 1
 422 99 l 1
 503 80 580 71 652 71 c 0
 769 71 861 98 927 151 c 0
 991 202 1023 270 1023 355 c 0x6d
EndSplineSet
EndChar

StartChar: C
Encoding: 67 67 38
Width: 1367
Flags: MW
HStem: -32 89<732 854.5> 1316 71<707.5 805 662.5 892.5>
VStem: 73 228<561.5 759>
LayerCount: 2
Fore
SplineSet
1265 339 m 1
 1294 317 l 1
 1163 84 976 -32 733 -32 c 0
 532 -32 370 37 247 174 c 0
 131 304 73 465 73 658 c 0
 73 860 136 1031 263 1170 c 1
 394 1315 561 1387 764 1387 c 0
 846 1387 925 1371 1001 1339 c 0
 1077 1308 1115 1292 1115 1292 c 1
 1154 1292 1182 1324 1198 1387 c 1
 1233 1387 l 1
 1265 926 l 1
 1233 926 l 1
 1156 1186 1005 1316 780 1316 c 0
 635 1316 520 1262 437 1155 c 1
 346 1040 301 873 301 656 c 0
 301 465 348 317 441 211 c 0
 531 108 654 57 810 57 c 0
 903 57 982 76 1045 113 c 0
 1114 154 1188 230 1265 339 c 1
EndSplineSet
EndChar

StartChar: D
Encoding: 68 68 39
Width: 1480
Flags: MW
HStem: 0 37<35 87 87 116 35 642 35 87> 0 69<609.5 634 609.5 642> 1281 74<594.5 707.5> 1320 35<35 87 35 587>
VStem: 229 193<240 1117 1117 1159> 1174 227<585 768.5>
LayerCount: 2
Fore
SplineSet
1401 686 m 0x9c
 1401 484 1340 322 1217 200 c 0
 1083 67 891 0 642 0 c 2
 35 0 l 1
 35 37 l 1
 87 37 l 2
 145 37 185 56 207 93 c 0
 222 117 229 166 229 240 c 2
 229 1117 l 2
 229 1201 220 1254 203 1277 c 1
 174 1306 136 1320 87 1320 c 2
 35 1320 l 1
 35 1355 l 1
 587 1355 l 2
 870 1355 1071 1302 1192 1196 c 0
 1331 1073 1401 903 1401 686 c 0x9c
1174 676 m 0
 1174 861 1123 1008 1020 1119 c 0
 919 1227 788 1281 627 1281 c 0
 562 1281 493 1271 422 1251 c 1
 422 99 l 1
 515 79 585 69 634 69 c 0x6c
 791 68 919 122 1019 230 c 0
 1122 342 1174 491 1174 676 c 0
EndSplineSet
EndChar

StartChar: E
Encoding: 69 69 40
Width: 1251
Flags: MW
HStem: 0 37<43 91 91 114 43 1088 43 91> 0 73<542 770 770 824.5 542 1088> 672 75<428 725 428 725> 922 20G<940 977 977 977> 1283 72<428 802 428 428> 1320 35<43 91 43 1088>
VStem: 236 192<240 672 747 1121 1121 1164> 940 37<471 942 471 942>
LayerCount: 2
Fore
SplineSet
1164 341 m 1x7b
 1206 341 l 1
 1088 0 l 1
 43 0 l 1x7b
 43 37 l 1
 91 37 l 2
 137 37 173 48 198 70 c 0
 223 92 236 149 236 240 c 2
 236 1121 l 2
 236 1207 228 1260 211 1279 c 0
 186 1306 146 1320 91 1320 c 2
 43 1320 l 1xb7
 43 1355 l 1
 1088 1355 l 1
 1103 1060 l 1
 1064 1060 l 1
 1042 1147 1025 1199 1012 1215 c 0
 977 1260 907 1283 802 1283 c 2
 428 1283 l 1
 428 747 l 1
 725 747 l 2
 811 747 867 762 894 793 c 0
 913 814 929 864 940 942 c 1
 977 942 l 1
 977 471 l 1
 940 471 l 1
 929 551 913 602 894 625 c 0
 867 656 810 672 725 672 c 2
 428 672 l 1
 428 225 l 2
 428 166 431 129 437 116 c 0
 450 87 485 73 542 73 c 2
 770 73 l 2
 879 73 957 90 1004 123 c 0
 1046 153 1099 226 1164 341 c 1x7b
EndSplineSet
EndChar

StartChar: F
Encoding: 70 70 41
Width: 1139
Flags: MW
HStem: 0 37<33 83 83 109.5 565 615 33 83> 666 85<420 666 420 666> 914 20G<843 881 881 881> 1283 72<420 719 420 420> 1320 35<33 83 33 1042>
VStem: 227 193<240 666 751 1117 1117 1160.5> 843 38<475 508.5 475 934>
LayerCount: 2
Fore
SplineSet
1042 1355 m 1xf6
 1056 1060 l 1
 1021 1060 l 1
 995 1146 963 1204 926 1233 c 0
 885 1266 816 1283 719 1283 c 2
 420 1283 l 1xf6
 420 751 l 1
 666 751 l 2
 725 751 766 764 791 789 c 0
 816 815 833 863 843 934 c 1
 881 934 l 1
 881 475 l 1
 843 475 l 1
 843 542 831 589 806 618 c 0
 779 650 732 666 666 666 c 2
 420 666 l 1
 420 240 l 2
 420 153 427 103 441 89 c 1
 470 54 511 37 565 37 c 2
 615 37 l 1
 615 0 l 1
 33 0 l 1
 33 37 l 1
 83 37 l 2
 136 37 176 54 203 87 c 0
 219 106 227 157 227 240 c 2
 227 1117 l 2
 227 1204 218 1256 199 1275 c 0
 169 1305 130 1320 83 1320 c 2
 33 1320 l 1xee
 33 1355 l 1
 1042 1355 l 1xf6
EndSplineSet
EndChar

StartChar: G
Encoding: 71 71 42
Width: 1480
Flags: MW
HStem: -32 69<748.5 875.5 748.5 910.5> 703 36<926 1450 1399.5 1426 1426 1450> 1318 69<730.5 835 680 919.5>
VStem: 71 230 1103 195<112 504 91 545.5> 1222 37<1387 1387>
LayerCount: 2
Fore
SplineSet
1450 739 m 1xf8
 1450 703 l 1
 1426 703 l 2
 1373 703 1338 685 1320 650 c 1
 1305 629 1298 580 1298 504 c 2
 1298 91 l 1xf8
 1157 9 999 -32 822 -32 c 0
 592 -32 408 35 270 168 c 0
 137 296 71 459 71 658 c 0
 71 843 132 1006 254 1147 c 0
 391 1307 570 1387 790 1387 c 0
 880 1387 966 1372 1047 1343 c 0
 1129 1314 1171 1300 1172 1300 c 0
 1199 1300 1215 1329 1222 1387 c 1
 1259 1387 l 1
 1292 959 l 1
 1259 959 l 1xf4
 1179 1198 1029 1318 810 1318 c 0
 651 1318 525 1259 433 1141 c 0
 346 1029 302 882 301 701 c 0
 300 508 350 349 449 224 c 0
 548 99 673 37 824 37 c 0
 927 37 1020 62 1103 112 c 1
 1103 504 l 2
 1103 587 1092 641 1071 664 c 0
 1050 687 1001 700 926 703 c 1
 926 739 l 1
 1450 739 l 1xf8
EndSplineSet
EndChar

StartChar: H
Encoding: 72 72 43
Width: 1480
Flags: MW
HStem: 0 37<35 85 85 111.5 567 617 35 85 857 906 906 933.5 1389 1438> 654 73<420 1052 420 1052> 1320 35<35 85 35 617 541.5 567 567 617 857 906 1364.5 1389 1389 1438>
VStem: 229 191<240 654 727 1117> 1052 191<240 654 654 654 727 1117>
LayerCount: 2
Fore
SplineSet
1438 37 m 1
 1438 0 l 1
 857 0 l 1
 857 37 l 1
 906 37 l 2
 961 37 1001 54 1026 87 c 0
 1043 109 1052 160 1052 240 c 2
 1052 654 l 1
 420 654 l 1
 420 240 l 2
 420 157 428 105 445 85 c 0
 472 53 512 37 567 37 c 2
 617 37 l 1
 617 0 l 1
 35 0 l 1
 35 37 l 1
 85 37 l 2
 138 37 178 54 205 87 c 0
 221 106 229 157 229 240 c 2
 229 1117 l 2
 229 1198 220 1251 201 1275 c 0
 178 1305 139 1320 85 1320 c 2
 35 1320 l 1
 35 1355 l 1
 617 1355 l 1
 617 1320 l 1
 567 1320 l 2
 516 1320 477 1306 451 1277 c 0
 430 1253 420 1200 420 1117 c 2
 420 727 l 1
 1052 727 l 1
 1052 1117 l 2
 1052 1204 1042 1257 1023 1277 c 0
 994 1306 955 1320 906 1320 c 2
 857 1320 l 1
 857 1355 l 1
 1438 1355 l 1
 1438 1320 l 1
 1389 1320 l 2
 1340 1320 1301 1306 1273 1277 c 0
 1258 1262 1250 1245 1247 1225 c 0
 1244 1210 1243 1174 1243 1117 c 2
 1243 240 l 2
 1243 160 1251 109 1267 87 c 0
 1290 54 1331 37 1389 37 c 2
 1438 37 l 1
EndSplineSet
EndChar

StartChar: I
Encoding: 73 73 44
Width: 682
Flags: MW
HStem: 0 37<51 100 100 127 583 632 51 100> 1320 35<51 100 51 632 555.5 583 583 632>
VStem: 244 193<240 1117>
LayerCount: 2
Fore
SplineSet
632 37 m 1
 632 0 l 1
 51 0 l 1
 51 37 l 1
 100 37 l 2
 154 37 194 54 221 87 c 0
 236 106 244 157 244 240 c 2
 244 1117 l 2
 244 1200 237 1251 223 1269 c 0
 195 1303 154 1320 100 1320 c 2
 51 1320 l 1
 51 1355 l 1
 632 1355 l 1
 632 1320 l 1
 583 1320 l 2
 528 1320 488 1304 463 1271 c 0
 446 1249 437 1198 437 1117 c 2
 437 240 l 2
 437 161 445 109 461 85 c 0
 468 74 485 63 510 52 c 1
 536 42 560 37 583 37 c 2
 632 37 l 1
EndSplineSet
EndChar

StartChar: J
Encoding: 74 74 45
Width: 798
Flags: MW
HStem: -32 71<212.5 350> 1320 35<205 252 205 784 709.5 735 735 784>
VStem: 400 191<361.5 453 453 1117>
LayerCount: 2
Fore
SplineSet
784 1355 m 1
 784 1320 l 1
 735 1320 l 2
 684 1320 644 1304 615 1271 c 1
 599 1249 591 1198 591 1117 c 2
 591 453 l 2
 591 270 549 137 464 55 c 0
 405 -3 331 -32 244 -32 c 0
 181 -32 131 -16 94 16 c 0
 60 45 43 81 43 122 c 0
 43 192 77 227 144 227 c 0
 188 227 223 196 249 133 c 0
 276 70 301 39 325 39 c 0
 375 39 400 90 400 191 c 2
 400 1117 l 2
 400 1194 393 1243 380 1265 c 0
 359 1302 316 1320 252 1320 c 2
 205 1320 l 1
 205 1355 l 1
 784 1355 l 1
EndSplineSet
EndChar

StartChar: K
Encoding: 75 75 46
Width: 1480
Flags: MW
HStem: 0 37<35 83 83 110.5 565 613 35 83 851 885.5> 1320 35<35 83 35 613 541 565 565 613 820 851 1293 1320>
VStem: 227 193<240 560 692 1117>
LayerCount: 2
Fore
SplineSet
1497 37 m 1
 1497 0 l 1
 851 0 l 1
 851 37 l 1
 920 37 956 58 961 100 c 0
 964 123 940 160 887 213 c 2
 479 619 l 1
 420 560 l 1
 420 240 l 2
 420 160 428 109 443 87 c 0
 466 54 507 37 565 37 c 2
 613 37 l 1
 613 0 l 1
 35 0 l 1
 35 37 l 1
 83 37 l 2
 138 37 178 54 205 87 c 0
 220 104 227 155 227 240 c 2
 227 1117 l 2
 227 1204 218 1257 201 1277 c 0
 176 1306 137 1320 83 1320 c 2
 35 1320 l 1
 35 1355 l 1
 613 1355 l 1
 613 1320 l 1
 565 1320 l 2
 517 1320 480 1307 453 1281 c 1
 431 1258 420 1204 420 1117 c 2
 420 692 l 1
 438 707 484 749 558 818 c 0
 745 992 865 1117 916 1192 c 0
 933 1217 942 1241 942 1263 c 0
 942 1301 912 1320 851 1320 c 2
 820 1320 l 1
 820 1355 l 1
 1320 1355 l 1
 1320 1320 l 1
 1266 1320 1210 1302 1151 1265 c 0
 1110 1240 1076 1214 1049 1188 c 0
 1046 1185 969 1109 820 959 c 1
 613 753 l 1
 1113 254 l 2
 1196 172 1266 116 1324 87 c 0
 1376 60 1434 44 1497 37 c 1
EndSplineSet
EndChar

StartChar: L
Encoding: 76 76 47
Width: 1251
Flags: MW
HStem: 0 37<37 72 37 1091 37 72> 0 87<597 735 735 808 597 1091> 1318 37<37 72 592 627>
VStem: 236 192<221 256 256 1149>
LayerCount: 2
Fore
SplineSet
1174 374 m 1x70
 1210 368 l 1
 1091 0 l 1
 37 0 l 1x70
 37 37 l 1
 107 37 156 47 183 66 c 0xb0
 218 91 236 138 236 207 c 2
 236 1149 l 2
 236 1218 218 1265 183 1289 c 0
 156 1308 107 1318 37 1318 c 1
 37 1355 l 1
 627 1355 l 1
 627 1318 l 1
 557 1318 508 1308 481 1289 c 0
 446 1265 428 1218 428 1149 c 2
 428 256 l 2
 428 186 440 140 464 117 c 0
 486 97 530 87 597 87 c 2
 735 87 l 2
 881 87 977 107 1023 146 c 0
 1080 195 1130 271 1174 374 c 1x70
EndSplineSet
EndChar

StartChar: M
Encoding: 77 77 48
Width: 1822
Flags: MW
HStem: 0 37<35 83 83 110.5 459 506 35 83 1202 1249 1249 1278.5 1732 1779> 1320 35<35 67.5 1703.5 1732 1732 1779>
VStem: 225 88<236 1121 1121 1141> 1395 191<236 1121>
LayerCount: 2
Fore
SplineSet
1779 37 m 1
 1779 0 l 1
 1202 0 l 1
 1202 37 l 1
 1249 37 l 2
 1308 37 1349 55 1373 91 c 0
 1388 112 1395 160 1395 236 c 2
 1395 1141 l 1
 871 0 l 1
 837 0 l 1
 313 1141 l 1
 313 236 l 2
 313 155 323 102 343 79 c 0
 366 51 405 37 459 37 c 2
 506 37 l 1
 506 0 l 1
 35 0 l 1
 35 37 l 1
 83 37 l 2
 138 37 179 55 205 91 c 1
 218 112 225 161 225 236 c 2
 225 1121 l 2
 225 1207 210 1261 181 1283 c 0
 148 1308 100 1320 35 1320 c 1
 35 1355 l 1
 418 1355 l 1
 910 296 l 1
 1395 1355 l 1
 1779 1355 l 1
 1779 1320 l 1
 1732 1320 l 2
 1675 1320 1634 1303 1608 1269 c 1
 1593 1244 1586 1195 1586 1121 c 2
 1586 236 l 2
 1586 153 1596 101 1616 79 c 0
 1640 51 1679 37 1732 37 c 2
 1779 37 l 1
EndSplineSet
EndChar

StartChar: N
Encoding: 78 78 49
Width: 1480
Flags: MW
HStem: -22 21G<1223 1259 1223 1223> 0 37<47 95 95 125.5 473 520 47 95> 1320 35<12 45.5 979 1024 1373.5 1403 1403 1450>
VStem: 240 87<236 1070> 1170 89<339 1121 -22 1163>
LayerCount: 2
Fore
SplineSet
1450 1355 m 1
 1450 1320 l 1
 1403 1320 l 2
 1344 1320 1303 1303 1281 1269 c 0
 1266 1247 1259 1198 1259 1121 c 2
 1259 -22 l 1
 1223 -22 l 1xb8
 327 1070 l 1
 327 236 l 2
 327 152 336 100 355 79 c 0
 379 51 418 37 473 37 c 2
 520 37 l 1
 520 0 l 1
 47 0 l 1
 47 37 l 1
 95 37 l 2
 156 37 196 55 217 91 c 1
 232 110 240 159 240 236 c 2
 240 1178 l 1
 176 1260 l 1
 133 1300 79 1320 12 1320 c 1
 12 1355 l 1
 343 1355 l 1
 1170 339 l 1
 1170 1121 l 2
 1170 1205 1161 1257 1143 1277 c 0
 1116 1306 1077 1320 1024 1320 c 2
 979 1320 l 1
 979 1355 l 1
 1450 1355 l 1
EndSplineSet
EndChar

StartChar: O
Encoding: 79 79 50
Width: 1480
Flags: MW
HStem: -32 71 1316 71
VStem: 71 230<590 783> 1172 227
LayerCount: 2
Fore
SplineSet
1399 686 m 0
 1399 481 1335 310 1208 173 c 0
 1081 36 922 -32 733 -32 c 0
 546 -32 389 34 264 165 c 0
 135 300 71 472 71 682 c 0
 71 884 136 1052 265 1186 c 0
 395 1320 557 1387 751 1387 c 0
 930 1387 1083 1321 1208 1189 c 0
 1335 1054 1399 886 1399 686 c 0
1172 660 m 0
 1174 1095 1026 1314 729 1316 c 0
 594 1317 489 1261 414 1149 c 0
 339 1037 301 883 301 688 c 0
 301 492 338 336 411 221 c 0
 488 101 594 40 731 39 c 0
 866 38 971 88 1048 189 c 0
 1130 296 1171 453 1172 660 c 0
EndSplineSet
EndChar

StartChar: P
Encoding: 80 80 51
Width: 1139
Flags: MW
HStem: 0 37<35 85 85 114.5 563 615 35 85> 607 65 1277 78<537.5 597.5> 1320 35<35 85 35 530>
VStem: 227 193<240 617 684 1117 1117 1159> 839 229
LayerCount: 2
Fore
SplineSet
1068 981 m 0xdc
 1068 730 910 606 593 607 c 1
 570 606 512 610 420 617 c 1
 420 240 l 2
 420 153 430 101 449 83 c 1
 473 52 511 37 563 37 c 2
 615 37 l 1
 615 0 l 1
 35 0 l 1
 35 37 l 1
 85 37 l 2
 144 37 184 56 207 93 c 0
 220 114 227 163 227 240 c 2
 227 1117 l 2
 227 1201 218 1254 201 1277 c 1
 174 1306 136 1320 85 1320 c 2
 35 1320 l 1
 35 1355 l 1
 530 1355 l 2
 709 1355 837 1327 912 1271 c 0
 1016 1193 1068 1096 1068 981 c 0xdc
839 961 m 0
 840 1049 817 1122 768 1181 c 0
 715 1245 643 1277 552 1277 c 0
 523 1277 479 1270 420 1257 c 1xec
 420 684 l 1
 475 676 529 672 583 672 c 0
 654 672 714 699 763 752 c 0
 813 806 838 876 839 961 c 0
EndSplineSet
EndChar

StartChar: Q
Encoding: 81 81 52
Width: 1480
Flags: MW
HStem: -402 34<1393 1393> -14 21G 1312 75<665.5 803.5>
VStem: 71 230<582.5 781.5 582.5 781.5> 1172 229<595.5 754.5>
LayerCount: 2
Fore
SplineSet
1401 678 m 0
 1401 513 1355 368 1264 242 c 0
 1173 117 1053 31 902 -14 c 1
 1031 -235 1194 -353 1393 -368 c 1
 1393 -402 l 1
 1239 -395 1081 -353 920 -274 c 0
 770 -201 649 -115 558 -14 c 1
 233 100 71 331 71 680 c 0
 71 883 136 1052 265 1186 c 0
 395 1320 556 1387 747 1387 c 0
 930 1387 1084 1321 1209 1188 c 0
 1337 1052 1401 882 1401 678 c 0
1172 652 m 0
 1172 857 1135 1017 1060 1133 c 0
 983 1252 874 1312 733 1312 c 0
 598 1312 492 1258 417 1150 c 0
 340 1040 301 883 301 680 c 0
 301 485 338 331 412 217 c 0
 489 98 596 38 733 37 c 0
 872 36 980 90 1057 199 c 0
 1134 308 1172 459 1172 652 c 0
EndSplineSet
EndChar

StartChar: R
Encoding: 82 82 53
Width: 1367
Flags: MW
HStem: 0 37<35 87 87 115.5 563 617 35 87> 634 63<420 477 477 541 420 477> 1281 74 1320 35<35 87 35 528>
VStem: 229 191<240 634 697 1117 1117 1159> 869 224<948.5 1035.5>
LayerCount: 2
Fore
SplineSet
1385 37 m 1xdc
 1385 0 l 1
 1023 0 l 1
 563 634 l 1
 490 630 443 630 420 634 c 1
 420 240 l 2
 420 155 430 102 449 83 c 1
 473 52 511 37 563 37 c 2
 617 37 l 1
 617 0 l 1
 35 0 l 1
 35 37 l 1
 87 37 l 2
 144 37 185 56 209 93 c 0
 222 113 229 162 229 240 c 2
 229 1117 l 2
 229 1201 220 1254 203 1277 c 1
 174 1306 136 1320 87 1320 c 2
 35 1320 l 1
 35 1355 l 1
 528 1355 l 2
 677 1355 784 1345 849 1324 c 0
 922 1301 980 1262 1024 1208 c 0
 1070 1151 1093 1084 1093 1009 c 0
 1093 826 982 710 760 660 c 1
 1038 270 l 2
 1098 186 1152 128 1201 96 c 0
 1248 65 1309 45 1385 37 c 1xdc
869 993 m 0
 869 1078 842 1146 789 1199 c 0
 736 1252 666 1279 577 1281 c 0
 544 1282 492 1276 420 1263 c 1xec
 420 697 l 1
 477 697 l 2
 605 697 704 725 773 781 c 0
 837 833 869 904 869 993 c 0
EndSplineSet
EndChar

StartChar: S
Encoding: 83 83 54
Width: 1139
Flags: MW
HStem: -32 79<567 621.5 528.5 664.5> 1308 79<493.5 554.5 465.5 575.5>
VStem: 130 158<1072.5 1079.5> 142 35<-32 433> 851 179<294.5 299.5> 902 38<918 1387 918 1387>
LayerCount: 2
Fore
SplineSet
1030 347 m 0xe8
 1030 242 990 153 910 80 c 0
 829 5 726 -32 603 -32 c 0
 531 -32 455 -19 375 7 c 0
 295 33 249 46 238 46 c 0
 206 46 186 20 177 -32 c 1
 142 -32 l 1
 142 433 l 1
 177 433 l 1
 193 302 240 202 319 135 c 0
 388 76 476 47 581 47 c 0
 662 47 727 69 778 113 c 0
 827 155 851 207 851 268 c 0
 851 331 826 385 777 431 c 0xd8
 739 466 655 520 524 593 c 0
 365 682 259 757 206 817 c 0
 155 874 130 945 130 1030 c 0
 130 1129 165 1213 236 1280 c 0
 311 1351 407 1387 524 1387 c 0
 585 1387 650 1374 718 1349 c 0
 787 1324 827 1311 838 1311 c 0
 868 1311 889 1336 902 1387 c 1
 940 1387 l 1
 940 918 l 1
 902 918 l 1xe4
 890 1041 848 1138 776 1208 c 1
 709 1275 625 1308 526 1308 c 0
 461 1308 405 1287 358 1246 c 0
 311 1205 288 1156 288 1099 c 0
 288 1046 310 999 355 957 c 0
 400 916 490 859 625 786 c 0
 744 722 830 669 885 628 c 0
 982 555 1030 461 1030 347 c 0xe8
EndSplineSet
EndChar

StartChar: T
Encoding: 84 84 55
Width: 1247
Flags: MW
HStem: 0 37<333 382 382 409.5 861 908 333 382> 1273 82<318 363 363 524 717 908 717 717>
VStem: 56 39 524 193<236 1273>
LayerCount: 2
Fore
SplineSet
1188 1355 m 1
 1200 1038 l 1
 1157 1038 l 1
 1149 1115 1128 1171 1093 1206 c 1
 1050 1251 988 1273 908 1273 c 2
 717 1273 l 1
 717 236 l 2
 717 153 726 101 745 79 c 0
 768 51 806 37 861 37 c 2
 908 37 l 1
 908 0 l 1
 333 0 l 1
 333 37 l 1
 382 37 l 2
 437 37 478 55 504 91 c 1
 517 112 524 161 524 236 c 2
 524 1273 l 1
 363 1273 l 2
 273 1273 212 1258 179 1229 c 1
 131 1194 103 1131 95 1038 c 1
 49 1038 l 1
 63 1355 l 1
 1188 1355 l 1
EndSplineSet
EndChar

StartChar: U
Encoding: 85 85 56
Width: 1480
Flags: MW
HStem: -32 85<677.5 817.5 677.5 826.5> 1320 35<30 61 30 577 504 526 526 577 977 1028 1381.5 1407 1407 1458>
VStem: 207 193<585 1117> 1172 91<567 1109>
LayerCount: 2
Fore
SplineSet
1458 1355 m 1
 1458 1320 l 1
 1407 1320 l 2
 1356 1320 1315 1297 1285 1251 c 1
 1270 1233 1263 1186 1263 1109 c 2
 1263 558 l 2
 1263 347 1224 200 1145 118 c 0
 1049 18 914 -32 739 -32 c 0
 498 -32 340 44 264 196 c 0
 226 273 207 403 207 585 c 2
 207 1117 l 2
 207 1187 200 1235 185 1262 c 0
 164 1301 123 1320 61 1320 c 2
 30 1320 l 1
 30 1355 l 1
 577 1355 l 1
 577 1320 l 1
 526 1320 l 2
 482 1320 449 1302 426 1267 c 0
 409 1240 400 1190 400 1117 c 2
 400 524 l 2
 400 390 416 290 447 223 c 0
 500 110 602 53 753 53 c 0
 882 53 991 94 1078 175 c 0
 1141 234 1172 365 1172 567 c 2
 1172 1117 l 2
 1172 1203 1163 1256 1145 1277 c 0
 1119 1306 1080 1320 1028 1320 c 2
 977 1320 l 1
 977 1355 l 1
 1458 1355 l 1
EndSplineSet
EndChar

StartChar: V
Encoding: 86 86 57
Width: 1480
Flags: MW
HStem: -32 21G<741 778 741 741> 1320 35<18 571 18 571>
VStem: 18 1436<1320 1355 1320 1355>
LayerCount: 2
Fore
SplineSet
1454 1355 m 1
 1454 1320 l 1
 1405 1312 1369 1297 1346 1275 c 0
 1310 1241 1278 1191 1251 1125 c 2
 778 -32 l 1
 741 -32 l 1
 234 1139 l 2
 204 1208 175 1255 146 1279 c 0
 119 1301 76 1315 18 1320 c 1
 18 1355 l 1
 571 1355 l 1
 571 1320 l 1
 496 1313 450 1296 433 1271 c 0
 426 1259 422 1244 422 1226 c 0
 422 1192 437 1141 467 1072 c 2
 814 276 l 1
 1133 1064 l 2
 1164 1140 1179 1192 1179 1220 c 0
 1179 1235 1176 1247 1170 1257 c 0
 1153 1286 1108 1307 1036 1320 c 1
 1036 1355 l 1
 1454 1355 l 1
EndSplineSet
EndChar

StartChar: W
Encoding: 87 87 58
Width: 1935
Flags: MW
HStem: -32 21G<634 672 634 634 1287 1328 1287 1287> 1320 35<28 57 480 504 504 528 672 695 1128 1164 1164 1200 1513 1563.5 1884.5 1917>
VStem: 28 1889<1320 1355 1320 1355>
LayerCount: 2
Fore
SplineSet
1917 1355 m 1
 1917 1320 l 1
 1852 1320 1802 1290 1769 1229 c 0
 1755 1203 1733 1148 1704 1064 c 2
 1328 -32 l 1
 1287 -32 l 1
 979 835 l 1
 672 -32 l 1
 634 -32 l 1
 232 1095 l 2
 193 1204 166 1264 150 1277 c 1
 127 1306 86 1320 28 1320 c 1
 28 1355 l 1
 528 1355 l 1
 528 1320 l 1
 504 1320 l 2
 456 1320 424 1305 408 1275 c 0
 402 1264 399 1252 399 1240 c 0
 399 1213 413 1159 441 1078 c 2
 707 315 l 1
 932 963 l 1
 916 1016 900 1062 884 1103 c 0
 847 1200 813 1262 782 1287 c 0
 755 1309 718 1320 672 1320 c 1
 672 1355 l 1
 1200 1355 l 1
 1200 1320 l 1
 1164 1320 l 2
 1092 1320 1056 1290 1056 1231 c 0
 1056 1194 1070 1135 1099 1054 c 2
 1361 315 l 1
 1619 1064 l 1
 1648 1145 1662 1200 1662 1228 c 0
 1662 1289 1614 1320 1513 1320 c 1
 1513 1355 l 1
 1917 1355 l 1
EndSplineSet
EndChar

StartChar: X
Encoding: 88 88 59
Width: 1480
Flags: MW
HStem: 0 37<14 496 14 14 873 904.5> 1320 35<43 670 43 670>
VStem: 14 1440<0 37 0 37>
LayerCount: 2
Fore
SplineSet
1454 37 m 1
 1454 0 l 1
 873 0 l 1
 873 37 l 1
 936 37 976 50 993 75 c 0
 1004 90 1009 103 1009 115 c 0
 1009 136 987 180 942 248 c 2
 713 597 l 1
 428 232 l 2
 387 181 366 141 366 114 c 0
 366 66 409 40 496 37 c 1
 496 0 l 1
 14 0 l 1
 14 37 l 1
 121 41 233 116 349 262 c 2
 670 668 l 1
 402 1060 l 2
 334 1159 273 1227 220 1264 c 0
 172 1297 113 1316 43 1320 c 1
 43 1355 l 1
 670 1355 l 1
 670 1320 l 1
 566 1316 529 1279 529 1242 c 0
 529 1218 545 1182 577 1135 c 2
 786 824 l 1
 1026 1129 l 2
 1068 1182 1089 1221 1089 1248 c 0
 1089 1260 1085 1271 1078 1281 c 0
 1059 1306 1013 1319 942 1320 c 1
 942 1355 l 1
 1424 1355 l 1
 1424 1320 l 1
 1356 1315 1300 1295 1255 1260 c 0
 1224 1236 1175 1181 1107 1095 c 2
 835 753 l 1
 1127 317 l 2
 1205 200 1265 125 1306 90 c 1
 1344 59 1393 42 1454 37 c 1
EndSplineSet
EndChar

StartChar: Y
Encoding: 89 89 60
Width: 1480
Flags: MW
HStem: 0 37<445 493 493 520.5 977 1021 445 493> 1320 35<18 40.5 553.5 569 569 599 977 1007.5 1395.5 1424 1424 1450>
VStem: 634 193<236 558 558 558>
LayerCount: 2
Fore
SplineSet
1450 1355 m 1
 1450 1320 l 1
 1424 1320 l 2
 1367 1320 1311 1290 1257 1231 c 0
 1236 1208 1202 1161 1157 1090 c 2
 827 575 l 1
 827 236 l 2
 827 153 837 101 857 79 c 0
 881 51 921 37 977 37 c 2
 1021 37 l 1
 1021 0 l 1
 445 0 l 1
 445 37 l 1
 493 37 l 2
 548 37 589 55 615 91 c 1
 628 112 634 161 634 236 c 2
 634 558 l 1
 264 1125 l 2
 236 1168 217 1196 208 1208 c 0
 190 1233 173 1252 156 1265 c 0
 109 1302 63 1320 18 1320 c 1
 18 1355 l 1
 599 1355 l 1
 599 1320 l 1
 569 1320 l 2
 538 1320 510 1313 486 1300 c 0
 457 1283 443 1260 443 1231 c 0
 443 1206 463 1162 504 1099 c 2
 786 664 l 1
 1054 1082 l 2
 1095 1146 1116 1192 1116 1221 c 0
 1116 1239 1110 1256 1097 1273 c 1
 1078 1304 1038 1320 977 1320 c 1
 977 1355 l 1
 1450 1355 l 1
EndSplineSet
EndChar

StartChar: Z
Encoding: 90 90 61
Width: 1251
Flags: MW
HStem: 0 83<288 843 843 890.5 288 1131> 1277 78<416.5 463 463 894>
VStem: 28 1166<0 359 37 359>
LayerCount: 2
Fore
SplineSet
1162 364 m 1
 1194 359 l 1
 1131 0 l 1
 28 0 l 1
 28 37 l 1
 894 1277 l 1
 463 1277 l 2
 370 1277 304 1260 266 1227 c 0
 230 1196 203 1126 185 1017 c 1
 148 1017 l 1
 175 1355 l 1
 1178 1355 l 1
 288 83 l 1
 843 83 l 2
 938 83 1009 107 1057 156 c 0
 1094 194 1129 263 1162 364 c 1
EndSplineSet
EndChar

StartChar: bracketleft
Encoding: 91 91 62
Width: 677
Flags: MW
HStem: -441 86<370 613 370 613> 1448 85<370 613 370 370>
VStem: 245 125<-355 1448 -355 1533 -355 1533>
LayerCount: 2
Fore
SplineSet
613 -355 m 1
 613 -441 l 1
 245 -441 l 1
 245 1533 l 1
 613 1533 l 1
 613 1448 l 1
 370 1448 l 1
 370 -355 l 1
 613 -355 l 1
EndSplineSet
EndChar

StartChar: backslash
Encoding: 92 92 63
Width: 556
Flags: MW
HStem: -25 21G<526.5 562>
VStem: 87 506
LayerCount: 2
Fore
SplineSet
197 1554 m 2
 593 -5 l 2
 596 -18 580 -25 544 -25 c 0
 509 -25 490 -18 487 -5 c 2
 87 1554 l 2
 84 1567 101 1574 140 1574 c 0
 175 1574 194 1567 197 1554 c 2
EndSplineSet
EndChar

StartChar: bracketright
Encoding: 93 93 64
Width: 677
Flags: MW
HStem: -444 89<64 305 64 430 64 305> 1448 85<64 305 64 430>
VStem: 305 125<-355 1448 1448 1448>
LayerCount: 2
Fore
SplineSet
430 1533 m 1
 430 -444 l 1
 64 -444 l 1
 64 -355 l 1
 305 -355 l 1
 305 1448 l 1
 64 1448 l 1
 64 1533 l 1
 430 1533 l 1
EndSplineSet
EndChar

StartChar: asciicircum
Encoding: 94 94 65
Width: 1970
Flags: MW
HStem: 20 1182<471 1046 471 1046 924 1499 924 1377>
VStem: 471 1028<20 20>
LayerCount: 2
Fore
SplineSet
1046 1202 m 1
 1499 20 l 1
 1377 20 l 1
 985 1076 l 1
 593 20 l 1
 471 20 l 1
 924 1202 l 1
 1046 1202 l 1
EndSplineSet
EndChar

StartChar: underscore
Encoding: 95 95 66
Width: 985
Flags: MW
HStem: -231 73<0 985 0 985>
VStem: 0 985<-231 -158 -231 -158>
LayerCount: 2
Fore
SplineSet
985 -158 m 1
 985 -231 l 1
 0 -231 l 1
 0 -158 l 1
 985 -158 l 1
EndSplineSet
EndChar

StartChar: grave
Encoding: 96 96 67
Width: 768
Flags: MW
HStem: 1042 353<42 467 42 384>
VStem: 0 467<1042 1343.5>
LayerCount: 2
Fore
SplineSet
183 1328 m 2
 467 1042 l 1
 384 1042 l 1
 89 1229 l 2
 30 1267 0 1297 0 1318 c 0
 0 1369 21 1395 63 1395 c 0
 99 1395 139 1373 183 1328 c 2
EndSplineSet
EndChar

StartChar: a
Encoding: 97 97 68
Width: 910
Flags: MW
HStem: -18 21G<259.5 315 654.5 725.5> -18 115 883 59<397 471.5>
VStem: 73 169<240.5 254.5> 108 167 583 168<82 317 277.5 317 317 548 548 548 607 630>
LayerCount: 2
Fore
SplineSet
908 189 m 1xac
 908 132 l 1
 834 32 761 -18 690 -18 c 0
 619 -18 583 32 583 132 c 1
 498 66 442 25 413 10 c 0
 378 -9 338 -18 292 -18 c 0
 227 -18 174 3 133 46 c 0
 93 89 73 146 73 217 c 0
 73 292 104 355 165 407 c 0xb4
 240 470 379 537 583 607 c 1
 583 644 l 2
 583 816 531 883 412 883 c 0
 331 883 278 835 274 770 c 1
 276 711 l 2
 278 648 250 617 193 617 c 0
 136 617 108 649 108 713 c 0
 108 782 142 838 210 881 c 0
 273 922 351 942 443 942 c 0
 567 942 652 914 697 858 c 0
 733 813 751 737 751 630 c 2
 751 317 l 2
 751 238 753 185 757 158 c 0
 762 125 776 108 800 108 c 0
 818 108 854 135 908 189 c 1xac
583 197 m 1x74
 583 548 l 1
 442 493 346 441 297 394 c 0
 260 359 242 316 242 264 c 0
 242 217 256 178 283 146 c 0
 310 114 343 98 382 97 c 0
 431 95 498 128 583 197 c 1x74
EndSplineSet
EndChar

StartChar: b
Encoding: 98 98 69
Width: 1024
Flags: MW
HStem: -30 75<493.5 545> 802 140<551.5 558.5> 1290 132
VStem: 148 167<146 695 759 1036 1036 1085> 780 174<420.5 493>
LayerCount: 2
Fore
SplineSet
954 495 m 0
 954 346 907 221 812 119 c 0
 719 20 609 -30 481 -30 c 0
 374 -30 263 10 148 89 c 1
 148 1036 l 2
 148 1134 146 1198 141 1228 c 0
 138 1251 129 1268 116 1279 c 0
 97 1294 61 1294 6 1277 c 1
 -8 1312 l 1
 268 1422 l 1
 315 1422 l 1
 315 759 l 1
 404 881 500 942 603 942 c 0
 700 942 782 902 848 823 c 0
 919 739 954 630 954 495 c 0
780 437 m 0
 780 549 755 639 704 706 c 0
 655 770 595 802 522 802 c 0
 459 802 390 766 315 695 c 1
 315 146 l 1
 382 79 455 45 532 45 c 0
 597 45 653 78 700 144 c 0
 753 217 780 315 780 437 c 0
EndSplineSet
EndChar

StartChar: c
Encoding: 99 99 70
Width: 910
Flags: MW
HStem: -30 160<484.5 504.5> 877 65<445 516.5>
VStem: 69 163<486.5 528>
LayerCount: 2
Fore
SplineSet
814 363 m 1
 841 349 l 1
 824 239 778 148 705 77 c 0
 632 6 550 -30 459 -30 c 0
 349 -30 257 14 183 102 c 0
 107 193 69 312 69 457 c 0
 69 599 112 716 198 808 c 0
 281 897 384 942 506 942 c 0
 576 942 643 923 706 886 c 0
 781 843 818 789 818 723 c 0
 818 666 786 638 723 638 c 0
 656 638 619 678 613 757 c 0
 607 837 560 877 473 877 c 0
 399 877 340 845 296 781 c 0
 253 720 232 641 232 544 c 0
 232 429 258 333 310 256 c 1
 365 172 439 130 530 130 c 0
 655 130 749 208 814 363 c 1
EndSplineSet
EndChar

StartChar: d
Encoding: 100 100 71
Width: 1024
Flags: MW
HStem: -30 113 85 19 883 61 1291 131
VStem: 67 185<431.5 485.5> 711 168<313 363 363 646 646 674 867 1036 1036 1084>
LayerCount: 2
Fore
SplineSet
1021 120 m 1
 1032 85 l 1x64
 757 -30 l 1
 711 -30 l 1
 711 102 l 1
 627 14 538 -30 443 -30 c 0xac
 340 -30 252 13 178 99 c 0
 104 186 67 293 67 420 c 0
 67 551 105 668 182 771 c 0
 268 886 378 943 512 944 c 0
 593 944 660 918 711 867 c 1
 711 1036 l 2
 711 1132 709 1195 704 1225 c 0
 701 1248 693 1266 680 1279 c 0
 663 1296 626 1295 571 1277 c 1
 558 1312 l 1
 833 1422 l 1
 879 1422 l 1
 879 363 l 2
 879 263 881 200 884 173 c 0
 887 146 896 127 910 116 c 0
 931 99 968 101 1021 120 c 1
711 173 m 1xac
 711 646 l 2
 711 702 692 754 655 801 c 0
 614 853 562 880 500 883 c 1
 431 885 372 851 325 781 c 0
 276 709 252 615 252 500 c 0
 252 363 283 257 345 181 c 0
 397 116 460 84 534 83 c 0
 595 82 654 112 711 173 c 1xac
EndSplineSet
EndChar

StartChar: e
Encoding: 101 101 72
Width: 910
Flags: MW
HStem: -30 166 571 57<217 642 217 851 217 642> 873 71<437 466.5>
VStem: 75 142<505.5 523.5> 642 209
LayerCount: 2
Fore
SplineSet
820 355 m 1
 851 335 l 1
 836 238 797 154 732 85 c 0
 660 8 574 -30 475 -30 c 0
 363 -30 269 13 194 99 c 0
 115 189 75 305 75 447 c 0
 75 600 115 722 195 812 c 0
 272 900 374 944 500 944 c 0
 603 944 686 911 751 845 c 0
 818 776 851 685 851 571 c 1
 217 571 l 1
 217 440 250 334 317 253 c 0
 380 176 458 137 552 136 c 0
 674 135 763 208 820 355 c 1
217 628 m 1
 642 628 l 1
 642 717 617 783 568 826 c 0
 532 857 490 873 443 873 c 0
 387 873 338 852 296 810 c 0
 251 765 224 704 217 628 c 1
EndSplineSet
EndChar

StartChar: f
Encoding: 102 102 73
Width: 682
Flags: MW
HStem: 0 37<81 122 122 140.5 550 632 81 122> 843 73<75 254 75 254 422 658> 1348 74<529.5 668>
VStem: 254 168<242 843 916 977 977 981>
LayerCount: 2
Fore
SplineSet
891 1251 m 0
 891 1232 883 1214 866 1196 c 0
 850 1178 831 1169 810 1168 c 1
 779 1168 741 1198 698 1258 c 0
 655 1318 609 1348 560 1348 c 0
 499 1348 460 1319 443 1261 c 0
 429 1216 422 1123 422 981 c 2
 422 916 l 1
 658 916 l 1
 658 843 l 1
 422 843 l 1
 422 242 l 2
 422 154 432 100 451 81 c 1
 472 52 505 37 550 37 c 2
 632 37 l 1
 632 0 l 1
 81 0 l 1
 81 37 l 1
 122 37 l 2
 159 37 189 48 213 69 c 0
 240 93 254 151 254 242 c 2
 254 843 l 1
 75 843 l 1
 75 916 l 1
 254 916 l 1
 254 977 l 2
 254 1153 310 1279 423 1355 c 0
 489 1400 561 1422 638 1422 c 0
 698 1422 755 1405 808 1371 c 0
 863 1335 891 1295 891 1251 c 0
EndSplineSet
EndChar

StartChar: g
Encoding: 103 103 74
Width: 1024
Flags: MW
HStem: -443 122<501 534.5> 0 21G 296 49<478.5 553.5> 788 85<813.5 844.5 813.5 922 804 844.5> 894 48<457.5 513.5>
VStem: 61 144<-275.5 -152.5> 136 173<609.5 658> 150 134<101.5 222> 682 177 902 73<-132 -100.5>
LayerCount: 2
Fore
SplineSet
987 835 m 0xfac0
 987 796 981 787 922 788 c 1
 804 788 l 1
 840 740 858 679 859 605 c 0
 860 518 828 445 765 387 c 0
 698 326 609 296 498 296 c 0
 450 296 404 302 359 315 c 1
 309 278 284 241 284 203 c 0
 284 189 289 177 299 167 c 1
 312 156 338 148 377 144 c 0xf9c0
 416 140 509 136 656 132 c 0
 869 126 975 54 975 -85 c 0
 975 -179 926 -262 828 -333 c 0
 727 -406 606 -443 463 -443 c 0
 362 -443 270 -423 186 -382 c 0
 103 -342 61 -299 61 -252 c 0xecc0
 61 -201 122 -114 244 8 c 1
 181 49 150 85 150 118 c 0xe9c0
 150 171 203 244 309 335 c 1
 254 360 210 399 179 452 c 0
 150 501 136 554 136 613 c 0
 136 703 168 779 232 842 c 0
 301 909 391 942 500 942 c 0xeac0
 555 942 615 930 678 907 c 0
 742 884 794 873 833 873 c 0
 856 873 885 874 920 877 c 0
 942 878 960 878 973 875 c 0
 982 873 987 860 987 835 c 0xfac0
682 579 m 0xeac0
 682 674 664 750 628 807 c 1
 593 865 544 894 483 894 c 0
 432 894 392 875 361 838 c 0
 326 796 309 735 309 656 c 0
 309 563 327 488 362 432 c 0
 398 374 447 345 510 345 c 0
 625 345 682 423 682 579 c 0xeac0
902 -122 m 0
 902 -79 869 -50 804 -35 c 0
 779 -30 727 -25 646 -22 c 0
 557 -19 442 -11 299 0 c 1
 236 -71 205 -130 205 -175 c 0
 205 -218 237 -253 302 -280 c 0xecc0
 367 -307 450 -321 552 -321 c 0
 663 -321 751 -300 816 -258 c 0
 873 -221 902 -175 902 -122 c 0
EndSplineSet
EndChar

StartChar: h
Encoding: 104 104 75
Width: 1024
Flags: MW
HStem: 0 37<28 57.5 448.5 481 28 57.5 562 591.5 984.5 1015> 822 120<579 596.5>
VStem: 167 168<187 690 753 1155 1155 1200.5> 709 168<187 530>
LayerCount: 2
Fore
SplineSet
1015 37 m 1
 1015 0 l 1
 562 0 l 1
 562 37 l 1
 621 37 660 47 679 66 c 0
 699 85 709 126 709 187 c 2
 709 530 l 2
 709 625 704 688 695 720 c 0
 676 788 631 822 562 822 c 0
 487 822 411 778 335 690 c 1
 335 187 l 2
 335 125 342 85 357 68 c 0
 375 47 416 37 481 37 c 1
 481 0 l 1
 28 0 l 1
 28 37 l 1
 87 37 125 49 144 72 c 1
 159 92 167 130 167 187 c 2
 167 1155 l 2
 167 1246 145 1292 100 1292 c 0
 77 1292 53 1287 28 1277 c 1
 12 1312 l 1
 288 1422 l 1
 335 1422 l 1
 335 753 l 1
 419 879 520 942 638 942 c 0
 741 942 810 896 845 803 c 0
 866 747 877 656 877 530 c 2
 877 187 l 2
 877 128 884 90 898 72 c 0
 915 49 954 37 1015 37 c 1
EndSplineSet
EndChar

StartChar: i
Encoding: 105 105 76
Width: 569
Flags: MW
HStem: 0 37<77 105.5 495.5 524 77 105.5> 922 20G<341 384 384 384> 1125 203<273 329 273 329.5>
VStem: 199 203<1198.5 1255 1198.5 1256.5> 217 167<187 678 678 722.5>
LayerCount: 2
Fore
SplineSet
402 1227 m 0xf0
 402 1170 358 1125 301 1125 c 0
 242 1125 199 1168 199 1227 c 0
 199 1286 245 1328 301 1328 c 0
 357 1328 402 1283 402 1227 c 0xf0
524 37 m 1
 524 0 l 1
 77 0 l 1
 77 37 l 1
 134 37 172 47 190 66 c 0
 208 85 217 126 217 187 c 2
 217 678 l 2
 217 767 194 812 148 812 c 0
 131 812 108 807 77 796 c 1
 63 831 l 1
 341 942 l 1
 384 942 l 1
 384 187 l 2
 384 125 393 84 411 65 c 0xe8
 429 46 467 37 524 37 c 1
EndSplineSet
EndChar

StartChar: j
Encoding: 106 106 77
Width: 569
Flags: MW
HStem: -443 80<-7 145.5> 922 20G<341 384 384 384> 1125 205<283.5 310.5 283.5 326.5>
VStem: 195 205<1199 1240.5 1199 1241> 217 167<-56.5 20 20 558 558 630.5>
LayerCount: 2
Fore
SplineSet
400 1227 m 0xf0
 400 1171 356 1125 297 1125 c 0
 238 1125 195 1168 195 1227 c 0
 195 1255 205 1279 225 1299 c 0
 246 1320 270 1330 297 1330 c 0
 324 1330 347 1320 368 1299 c 0
 389 1278 400 1254 400 1227 c 0xf0
384 942 m 1xe8
 384 20 l 2
 384 -133 350 -250 281 -331 c 0
 218 -406 131 -443 22 -443 c 0
 -36 -443 -82 -432 -115 -409 c 0
 -141 -390 -155 -368 -158 -343 c 1
 -158 -294 -120 -256 -75 -256 c 0
 -38 -256 1 -277 43 -319 c 0
 72 -348 99 -363 124 -363 c 0
 167 -363 194 -334 207 -275 c 0
 214 -244 217 -184 217 -95 c 2
 217 558 l 2
 217 703 207 783 187 798 c 0
 166 815 128 815 75 796 c 1
 63 831 l 1
 341 942 l 1
 384 942 l 1xe8
EndSplineSet
EndChar

StartChar: k
Encoding: 107 107 78
Width: 1024
Flags: MW
HStem: 0 37<14 47 451 483 14 47 591 608.5 1012 1036> 885 31<591 989 591 989> 1291 131
VStem: 165 172<201 207 207 506 528 1034 1034 1107.5>
LayerCount: 2
Fore
SplineSet
1036 37 m 1
 1036 0 l 1
 591 0 l 1
 591 37 l 1
 626 37 647 45 652 61 c 0
 659 82 648 113 617 152 c 2
 337 506 l 1
 337 207 l 2
 337 134 344 88 359 71 c 0
 378 48 419 37 483 37 c 1
 483 0 l 1
 14 0 l 1
 14 37 l 1
 80 37 122 47 139 66 c 0
 156 85 165 130 165 201 c 2
 165 1034 l 2
 165 1181 156 1263 138 1279 c 1
 117 1296 82 1296 33 1277 c 1
 14 1312 l 1
 290 1422 l 1
 337 1422 l 1
 337 528 l 1
 567 723 l 2
 630 776 662 813 662 833 c 0
 662 864 638 881 591 885 c 1
 591 916 l 1
 989 916 l 1
 989 885 l 1
 933 883 887 874 850 857 c 0
 816 842 777 815 733 776 c 2
 493 562 l 1
 733 262 l 2
 806 171 853 116 875 95 c 0
 888 83 913 66 950 45 c 0
 959 40 988 37 1036 37 c 1
EndSplineSet
EndChar

StartChar: l
Encoding: 108 108 79
Width: 569
Flags: MW
HStem: 0 37<77 104 494 526 77 104> 1290 132
VStem: 211 167<207 1038 1038 1109>
LayerCount: 2
Fore
SplineSet
526 37 m 1
 526 0 l 1
 77 0 l 1
 77 37 l 1
 131 37 167 48 184 70 c 0
 202 93 211 138 211 207 c 2
 211 1038 l 2
 211 1180 202 1260 183 1279 c 1
 158 1294 122 1294 77 1277 c 1
 59 1312 l 1
 335 1422 l 1
 378 1422 l 1
 378 207 l 2
 378 140 387 95 404 72 c 0
 421 49 462 37 526 37 c 1
EndSplineSet
EndChar

StartChar: m
Encoding: 109 109 80
Width: 1594
Flags: MW
HStem: 0 37<30 61.5 451 483 30 61.5 575 610.5 1007 1040 1133 1166.5 1558.5 1586> 824 118<1179 1179.5>
VStem: 167 168<207 558 558 610> 725 167<207 603 603 677.5> 1281 167<207 603>
LayerCount: 2
Fore
SplineSet
1586 37 m 1
 1586 0 l 1
 1133 0 l 1
 1133 37 l 1
 1200 37 1243 50 1261 76 c 0
 1274 95 1281 138 1281 207 c 2
 1281 603 l 2
 1281 750 1230 824 1129 824 c 0
 1054 824 975 782 892 699 c 1
 892 207 l 2
 892 137 899 92 914 73 c 0
 932 49 974 37 1040 37 c 1
 1040 0 l 1
 575 0 l 1
 575 37 l 1
 646 37 691 51 709 79 c 0
 720 96 725 139 725 207 c 2
 725 603 l 2
 725 752 673 826 569 826 c 0
 492 826 414 784 335 699 c 1
 335 207 l 2
 335 136 343 90 360 70 c 0
 378 48 419 37 483 37 c 1
 483 0 l 1
 30 0 l 1
 30 37 l 1
 93 37 133 51 150 79 c 0
 161 98 167 141 167 207 c 2
 167 558 l 2
 167 662 165 725 162 746 c 0
 154 789 133 811 99 811 c 0
 81 811 58 806 30 796 c 1
 14 831 l 1
 292 942 l 1
 335 942 l 1
 335 749 l 1
 404 825 464 877 515 906 c 0
 557 930 603 942 652 942 c 0
 779 942 856 878 885 749 c 1
 950 824 1007 875 1058 904 c 0
 1103 929 1152 942 1206 942 c 0
 1367 942 1448 829 1448 603 c 2
 1448 207 l 2
 1448 138 1457 92 1475 70 c 0
 1494 48 1531 37 1586 37 c 1
EndSplineSet
EndChar

StartChar: n
Encoding: 110 110 81
Width: 1024
Flags: MW
HStem: 0 37<26 57 446.5 481 26 57 562 596.5 989 1021> 820 122<589.5 593.5>
VStem: 164 167<207 548 548 622.5> 711 168<207 581 581 599>
LayerCount: 2
Fore
SplineSet
1021 37 m 1
 1021 0 l 1
 562 0 l 1
 562 37 l 1
 631 37 674 50 692 75 c 0
 705 93 711 137 711 207 c 2
 711 581 l 2
 711 666 701 726 680 762 c 0
 658 801 620 820 567 820 c 0
 488 820 410 777 331 690 c 1
 331 207 l 2
 331 138 337 95 350 76 c 0
 369 50 412 37 481 37 c 1
 481 0 l 1
 26 0 l 1
 26 37 l 1
 88 37 128 51 145 80 c 1
 158 99 164 142 164 207 c 2
 164 548 l 2
 164 697 154 781 134 798 c 0
 112 817 76 816 26 796 c 1
 10 831 l 1
 290 942 l 1
 331 942 l 1
 331 751 l 1
 439 878 541 942 638 942 c 0
 799 942 879 828 879 599 c 2
 879 207 l 2
 879 142 885 99 898 80 c 1
 916 51 957 37 1021 37 c 1
EndSplineSet
EndChar

StartChar: o
Encoding: 111 111 82
Width: 1024
Flags: MW
HStem: -30 73<501.5 572.5> 879 63<450 524.5>
VStem: 69 185<464.5 514.5> 766 188<409.5 467.5>
LayerCount: 2
Fore
SplineSet
954 475 m 0
 954 344 916 231 840 134 c 0
 755 25 643 -30 502 -30 c 0
 377 -30 273 18 190 115 c 1
 109 207 69 318 69 449 c 0
 69 580 108 693 187 788 c 0
 272 891 380 942 512 942 c 0
 641 942 747 897 830 808 c 0
 913 719 954 608 954 475 c 0
766 398 m 0
 766 537 741 651 690 740 c 0
 637 833 568 879 481 879 c 0
 419 879 368 854 328 805 c 0
 279 744 254 653 254 532 c 0
 254 397 280 282 333 189 c 0
 388 92 459 43 544 43 c 0
 692 43 766 161 766 398 c 0
EndSplineSet
EndChar

StartChar: p
Encoding: 112 112 83
Width: 1024
Flags: MW
HStem: -439 37<-12 473 -12 -12> -30 62<504.5 571.5 504.5 597.5> 820 122<556.5 570.5>
VStem: 148 169<-221 53 288 323 323 646 646 666> 796 160<419.5 468>
LayerCount: 2
Fore
SplineSet
956 493 m 0
 956 346 917 223 840 124 c 0
 760 21 659 -30 536 -30 c 0
 453 -30 380 -2 317 53 c 1
 317 -225 l 2
 317 -299 325 -346 340 -365 c 0
 358 -387 402 -399 473 -402 c 1
 473 -439 l 1
 -12 -439 l 1
 -12 -402 l 1
 61 -399 107 -387 124 -366 c 0
 140 -347 148 -298 148 -221 c 2
 148 646 l 2
 148 701 147 735 144 750 c 0
 140 769 130 785 114 796 c 0
 91 813 55 811 6 792 c 1
 -6 826 l 1
 280 940 l 1
 317 940 l 1
 317 725 l 1
 402 870 500 942 613 942 c 0
 713 942 795 899 859 813 c 1
 924 728 956 621 956 493 c 0
796 398 m 0
 796 538 770 645 718 720 c 0
 671 787 609 820 532 820 c 0
 497 820 461 806 426 777 c 0
 407 761 370 724 317 666 c 1
 317 323 l 2
 317 253 320 204 327 177 c 0
 337 138 359 105 392 78 c 0
 430 47 477 32 532 32 c 0
 611 32 674 65 723 131 c 0
 772 197 796 286 796 398 c 0
EndSplineSet
EndChar

StartChar: q
Encoding: 113 113 84
Width: 1024
Flags: MW
HStem: -439 37<562 592.5 997 1028 562 592.5> -30 142<365 547.5> 873 69<472.5 575.5>
VStem: 67 169<430.5 493.5> 711 168<-236 160 160 160 221 652 652 725.5>
LayerCount: 2
Fore
SplineSet
1028 -402 m 1
 1028 -439 l 1
 562 -439 l 1
 562 -402 l 1
 623 -402 663 -393 680 -376 c 0
 701 -355 711 -309 711 -236 c 2
 711 160 l 1
 606 33 506 -30 410 -30 c 0
 320 -30 242 9 176 88 c 1
 103 173 67 283 67 418 c 0
 67 569 112 694 202 793 c 0
 293 892 405 942 540 942 c 0
 624 942 687 921 729 879 c 1
 756 892 794 913 843 942 c 1
 879 942 l 1
 879 -236 l 2
 879 -306 888 -351 907 -371 c 0
 926 -392 966 -402 1028 -402 c 1
711 221 m 1
 711 652 l 2
 711 799 643 873 508 873 c 0
 430 873 366 841 317 778 c 0
 263 710 236 614 236 491 c 0
 236 370 264 275 320 206 c 0
 371 143 435 112 514 112 c 0
 581 112 647 148 711 221 c 1
EndSplineSet
EndChar

StartChar: r
Encoding: 114 114 85
Width: 701
Flags: MW
HStem: 0 37<18 48 462 493 18 48> 810 132<292 471.5> 922 20G<292 331 331 331 526.5 604.5>
VStem: 164 167<207 213 213 562 562 629>
LayerCount: 2
Fore
SplineSet
697 831 m 0xb0
 697 783 656 739 607 739 c 0
 582 739 556 751 527 774 c 0
 498 798 478 810 465 810 c 0
 431 810 386 758 331 654 c 1
 331 213 l 2
 331 152 342 108 363 82 c 0
 388 52 431 37 493 37 c 1
 493 0 l 1
 18 0 l 1
 18 37 l 1
 78 37 116 46 133 64 c 0
 154 85 164 132 164 207 c 2
 164 562 l 2
 164 696 154 775 134 798 c 1
 101 815 62 815 18 796 c 1
 8 831 l 1xd0
 292 942 l 1
 331 942 l 1
 331 737 l 1
 407 874 486 942 567 942 c 0
 642 942 697 896 697 831 c 0xb0
EndSplineSet
EndChar

StartChar: s
Encoding: 115 115 86
Width: 798
Flags: MW
HStem: -30 62<401 443.5> -14 21G<104 138 104 104> 885 57<351.5 414 351.5 456.5>
VStem: 100 117 104 34<-14 313> 577 148 642 34<630 942 630 942>
LayerCount: 2
Fore
SplineSet
725 231 m 0xb4
 725 162 694 101 633 48 c 0
 572 -4 501 -30 420 -30 c 0
 382 -30 336 -21 282 -2 c 0
 222 19 186 30 173 32 c 1xac
 163 32 151 17 138 -14 c 1
 104 -14 l 1x6a
 104 313 l 1
 138 313 l 1
 155 224 190 154 243 103 c 0
 293 56 352 32 420 32 c 0
 467 32 506 45 535 72 c 0
 562 97 576 129 577 167 c 0
 578 214 565 254 536 285 c 1xac
 505 320 441 362 346 411 c 0
 251 460 185 507 149 550 c 0
 116 590 100 639 100 697 c 0
 100 768 126 826 178 871 c 0
 232 918 305 942 398 942 c 0
 430 942 470 936 517 924 c 0
 564 912 591 906 597 906 c 0
 616 906 631 918 642 942 c 1
 676 942 l 1
 676 630 l 1
 642 630 l 1xb2
 601 800 519 885 394 885 c 0
 278 885 219 845 217 764 c 1
 214 685 264 621 366 573 c 2
 514 504 l 2
 655 439 725 348 725 231 c 0xb4
EndSplineSet
EndChar

StartChar: t
Encoding: 116 116 87
Width: 569
Flags: MW
HStem: -30 115 847 69<329 544 329 544>
VStem: 162 167<213 236 236 847>
LayerCount: 2
Fore
SplineSet
532 167 m 1
 571 167 l 1
 551 104 518 54 471 18 c 0
 430 -14 388 -30 343 -30 c 0
 222 -30 162 51 162 213 c 2
 162 847 l 1
 16 847 l 1
 16 879 l 1
 69 898 125 944 185 1015 c 0
 221 1057 259 1125 299 1218 c 1
 329 1218 l 1
 329 916 l 1
 544 916 l 1
 544 847 l 1
 329 847 l 1
 329 236 l 2
 329 137 359 87 420 85 c 0
 469 83 507 110 532 167 c 1
EndSplineSet
EndChar

StartChar: u
Encoding: 117 117 88
Width: 1024
Flags: MW
HStem: -30 125<313.5 507.5> 879 37<0 29.5>
VStem: 156 167<327 737 737 766.5> 703 168<-30 242 165 242 225 242 242 745 745 771.5>
LayerCount: 2
Fore
SplineSet
1013 120 m 1
 1026 85 l 1
 749 -30 l 1
 703 -30 l 1
 703 165 l 1
 630 88 570 35 523 7 c 0
 482 -18 439 -30 392 -30 c 0
 235 -30 156 89 156 327 c 2
 156 737 l 2
 156 796 143 836 118 855 c 0
 98 871 59 879 0 879 c 1
 0 916 l 1
 323 916 l 1
 323 303 l 2
 323 164 374 95 475 95 c 0
 540 95 616 138 703 225 c 1
 703 745 l 2
 703 798 692 833 669 852 c 0
 649 868 611 877 556 879 c 1
 556 916 l 1
 871 916 l 1
 871 242 l 2
 871 150 891 104 932 104 c 1
 961 105 988 110 1013 120 c 1
EndSplineSet
EndChar

StartChar: v
Encoding: 118 118 89
Width: 1024
Flags: MW
HStem: -30 21G<504 546 504 504> 879 37<16 449 405.5 420 420 449 707 733.5>
VStem: 16 991<879 916 879 916> 810 197
LayerCount: 2
Fore
SplineSet
1007 916 m 1xd0
 1007 879 l 1
 974 877 949 870 932 859 c 1
 909 837 889 804 871 759 c 2
 546 -30 l 1
 504 -30 l 1
 175 747 l 2
 152 800 122 839 85 863 c 1
 76 867 53 872 16 879 c 1
 16 916 l 1
 449 916 l 1
 449 879 l 1
 420 879 l 2
 391 879 372 873 361 861 c 0
 347 846 340 828 340 806 c 0
 340 784 347 757 361 725 c 2
 573 221 l 1
 788 747 l 2
 811 802 816 838 804 855 c 0
 793 871 760 879 707 879 c 1
 707 916 l 1
 1007 916 l 1xd0
EndSplineSet
EndChar

StartChar: w
Encoding: 119 119 90
Width: 1480
Flags: MW
HStem: -30 21G<453 491 453 453 985 1026 985 985> 879 37<12 398 12 398 1172 1204.5>
VStem: 12 1450<879 916 879 916>
LayerCount: 2
Fore
SplineSet
1462 916 m 1
 1462 879 l 1
 1402 871 1359 832 1332 762 c 2
 1026 -30 l 1
 985 -30 l 1
 757 558 l 1
 491 -30 l 1
 453 -30 l 1
 158 741 l 2
 139 789 120 822 100 839 c 1
 84 857 55 870 12 879 c 1
 12 916 l 1
 398 916 l 1
 398 879 l 1
 327 875 310 854 310 815 c 0
 310 795 316 770 327 741 c 2
 524 215 l 1
 721 644 l 1
 670 780 l 2
 655 819 634 846 607 863 c 0
 592 872 565 877 524 879 c 1
 524 916 l 1
 961 916 l 1
 961 879 l 1
 910 877 876 869 859 855 c 0
 845 843 838 824 838 799 c 0
 838 785 841 773 847 762 c 1
 1056 236 l 1
 1247 741 l 2
 1262 779 1269 808 1269 827 c 0
 1269 862 1237 879 1172 879 c 1
 1172 916 l 1
 1462 916 l 1
EndSplineSet
EndChar

StartChar: x
Encoding: 120 120 91
Width: 1024
Flags: MW
HStem: 0 37<35 335 35 35 567 597> 879 37<28 459 28 459 593 617>
VStem: 28 973<0 916 0 916>
LayerCount: 2
Fore
SplineSet
1001 37 m 1
 1001 0 l 1
 567 0 l 1
 567 37 l 1
 627 37 657 56 657 95 c 0
 657 107 654 117 648 126 c 2
 459 406 l 1
 260 140 l 2
 250 127 245 112 245 97 c 0
 245 60 275 40 335 37 c 1
 335 0 l 1
 35 0 l 1
 35 37 l 1
 62 39 87 51 111 73 c 0
 135 95 173 140 225 209 c 2
 418 465 l 1
 244 717 l 2
 196 787 158 832 131 851 c 0
 108 868 73 877 28 879 c 1
 28 916 l 1
 459 916 l 1
 459 879 l 1
 408 882 382 865 382 829 c 0
 382 820 384 813 388 806 c 2
 518 601 l 1
 654 798 l 2
 661 809 665 820 665 831 c 0
 665 863 641 879 593 879 c 1
 593 916 l 1
 902 916 l 1
 902 879 l 1
 862 877 827 864 797 839 c 1
 769 817 731 772 682 705 c 2
 558 536 l 1
 786 209 l 2
 826 152 866 104 906 63 c 0
 921 48 952 40 1001 37 c 1
EndSplineSet
EndChar

StartChar: y
Encoding: 121 121 92
Width: 1024
Flags: MW
HStem: -443 21G<175.5 224.5> 879 37<12 439 387.5 418 418 439 715 738>
VStem: 12 1001<879 916 879 916> 810 203
LayerCount: 2
Fore
SplineSet
1013 916 m 1xd0
 1013 879 l 1
 981 877 957 868 941 853 c 0
 922 835 900 798 877 741 c 2
 504 -173 l 2
 470 -258 424 -324 366 -373 c 0
 311 -420 254 -443 195 -443 c 0
 156 -443 124 -432 98 -410 c 0
 72 -388 59 -361 59 -329 c 0
 59 -268 93 -238 162 -238 c 0
 179 -238 205 -244 242 -256 c 0
 279 -268 298 -274 301 -274 c 0
 352 -274 398 -223 439 -122 c 2
 504 37 l 1
 175 727 l 2
 156 768 138 799 122 818 c 0
 91 855 55 876 12 879 c 1
 12 916 l 1
 439 916 l 1
 439 879 l 1
 418 879 l 2
 357 879 327 857 327 812 c 0
 327 786 338 750 361 703 c 2
 583 242 l 1
 788 749 l 1
 813 798 817 834 800 857 c 0
 789 872 761 879 715 879 c 1
 715 916 l 1
 1013 916 l 1xd0
EndSplineSet
EndChar

StartChar: z
Encoding: 122 122 93
Width: 910
Flags: MW
HStem: 0 67<262 597 597 631.5 262 849> 847 69<320 349 349 650>
VStem: 105 37 826 29
LayerCount: 2
Fore
SplineSet
877 916 m 1
 877 879 l 1
 262 67 l 1
 597 67 l 2
 666 67 713 73 737 85 c 0
 764 98 782 112 790 127 c 0
 805 152 817 203 826 280 c 1
 861 280 l 1
 849 0 l 1
 41 0 l 1
 41 37 l 1
 650 847 l 1
 349 847 l 2
 291 847 248 842 221 833 c 1
 177 814 151 757 142 662 c 1
 102 662 l 1
 108 916 l 1
 877 916 l 1
EndSplineSet
EndChar

StartChar: braceleft
Encoding: 123 123 94
Width: 1089
Flags: MW
HStem: -491 2073<840 840> 517 57<243 243>
VStem: 447 134<-234 -43.5> 497 133<129.5 306.5>
LayerCount: 2
Fore
SplineSet
840 -451 m 1xa0
 840 -491 l 1
 732 -480 640 -434 564 -353 c 0
 486 -270 447 -174 447 -64 c 0xa0
 447 -23 455 36 472 113 c 0
 489 190 497 243 497 274 c 0
 497 339 468 396 410 444 c 0
 360 485 304 510 243 517 c 1
 243 574 l 1
 304 581 359 605 409 646 c 0x50
 468 693 497 749 497 813 c 0x90
 497 845 489 902 472 983 c 0
 455 1064 447 1127 447 1170 c 0
 447 1275 487 1368 566 1449 c 1
 643 1526 735 1571 840 1582 c 1
 840 1543 l 1
 667 1500 581 1402 581 1249 c 0xa0
 581 1214 589 1162 605 1095 c 0
 622 1028 630 976 630 940 c 0
 630 743 539 612 357 546 c 1
 539 480 630 347 630 147 c 0x90
 630 112 622 61 605 -6 c 0
 589 -73 581 -123 581 -158 c 0
 581 -310 667 -408 840 -451 c 1xa0
EndSplineSet
EndChar

StartChar: bar
Encoding: 124 124 95
Width: 456
Flags: MW
HStem: -493 2075<181 275 181 275>
VStem: 181 94<-493 1582 -493 1582>
LayerCount: 2
Fore
SplineSet
275 1582 m 1
 275 -493 l 1
 181 -493 l 1
 181 1582 l 1
 275 1582 l 1
EndSplineSet
EndChar

StartChar: braceright
Encoding: 125 125 96
Width: 1089
Flags: MW
HStem: -491 2073<243 243> 517 57<839 839>
VStem: 453 132<129.5 306.5> 501 135<-234 -43.5>
LayerCount: 2
Fore
SplineSet
839 574 m 1x60
 839 517 l 1
 778 510 722 485 672 444 c 0
 614 396 585 339 585 274 c 0x60
 585 243 593 190 610 113 c 0
 627 36 636 -23 636 -64 c 0
 636 -174 597 -270 520 -351 c 0
 443 -433 351 -480 243 -491 c 1
 243 -451 l 1
 415 -408 501 -310 501 -158 c 0x90
 501 -123 493 -73 477 -6 c 0
 461 61 453 112 453 147 c 0
 453 347 544 480 725 546 c 1
 544 612 453 743 453 940 c 0xa0
 453 976 461 1028 477 1095 c 0
 493 1162 501 1214 501 1249 c 0
 501 1402 415 1500 243 1543 c 1
 243 1582 l 1
 348 1571 440 1526 517 1449 c 1
 596 1368 636 1275 636 1170 c 0x90
 636 1127 627 1064 610 983 c 0
 593 902 585 845 585 813 c 0
 585 749 614 693 673 646 c 0
 723 605 778 581 839 574 c 1x60
EndSplineSet
EndChar

StartChar: asciitilde
Encoding: 126 126 97
Width: 1115
Flags: MW
HStem: 412 116<787 846 787 849.5> 560 120<290.5 336.5>
VStem: 39 1037<443 630>
LayerCount: 2
Fore
SplineSet
1019 705 m 1
 1076 630 l 1
 999 485 905 412 794 412 c 0
 740 412 658 437 548 486 c 0
 438 535 360 560 313 560 c 0
 265 560 221 539 181 496 c 0
 160 473 131 431 95 370 c 1
 39 443 l 1
 80 518 117 571 150 604 c 0
 201 655 258 680 323 680 c 0
 373 680 457 655 575 604 c 0
 694 553 770 528 804 528 c 0
 888 528 960 587 1019 705 c 1
EndSplineSet
EndChar

StartChar: ellipsis
Encoding: 8230 8230 98
Width: 1517
Flags: MW
HStem: -18 21G<161.5 214 728.5 781 1301.5 1354> -18 248<175.5 212 175.5 214 742.5 779 1315.5 1352>
VStem: 96 185<71.5 127> 663 185<71.5 127> 1236 185<71.5 127>
LayerCount: 2
Fore
SplineSet
281 108 m 0xb8
 281 33 240 -18 188 -18 c 0
 135 -18 96 35 96 108 c 0
 96 146 106 176 125 199 c 0
 142 220 163 230 188 230 c 0x78
 236 230 281 180 281 108 c 0xb8
848 108 m 0
 848 33 807 -18 755 -18 c 0
 702 -18 663 35 663 108 c 0
 663 146 673 176 692 199 c 0
 709 220 730 230 755 230 c 0x78
 803 230 848 180 848 108 c 0
1421 108 m 0
 1421 33 1380 -18 1328 -18 c 0
 1275 -18 1236 35 1236 108 c 0
 1236 146 1246 176 1265 199 c 0
 1282 220 1303 230 1328 230 c 0x78
 1376 230 1421 180 1421 108 c 0
EndSplineSet
EndChar

StartChar: dagger
Encoding: 8224 8224 99
Width: 1024
Flags: MW
HStem: 894 38<489 489 524 524>
VStem: 489 35<-420 -420>
LayerCount: 2
Fore
SplineSet
924 912 m 0
 924 856 879 818 820 818 c 0
 774 818 719 834 656 865 c 0
 625 880 581 890 524 894 c 1
 526 839 535 792 552 753 c 0
 566 719 590 688 625 660 c 1
 591 527 569 405 558 296 c 0
 545 166 533 -73 524 -420 c 1
 489 -420 l 1
 484 -122 473 111 455 280 c 0
 440 413 417 540 386 660 c 1
 421 689 445 720 459 753 c 0
 470 779 480 826 489 894 c 1
 447 893 402 882 355 861 c 0
 288 832 237 818 203 818 c 0
 134 818 100 849 100 912 c 0
 100 941 111 965 132 984 c 0
 153 1003 178 1013 205 1013 c 0
 226 1013 276 996 355 961 c 1
 396 944 440 934 489 932 c 1
 489 979 476 1028 451 1080 c 0
 416 1154 398 1219 398 1275 c 0
 398 1315 409 1347 431 1371 c 0
 451 1392 477 1403 508 1403 c 0
 541 1403 567 1389 588 1360 c 0
 607 1335 617 1306 617 1275 c 0
 617 1240 599 1177 563 1088 c 0
 539 1026 526 974 524 932 c 1
 565 933 609 943 656 961 c 0
 742 994 796 1011 818 1011 c 0
 875 1011 924 971 924 912 c 0
EndSplineSet
EndChar

StartChar: daggerdbl
Encoding: 8225 8225 100
Width: 1024
Flags: MW
HStem: -443 21G<500 540> -37 43<530 530> 977 38<491 491 530 530>
VStem: 410 205 412 197 493 37<433 545>
LayerCount: 2
Fore
SplineSet
885 -14 m 0xe4
 885 -75 854 -106 792 -106 c 0
 769 -106 727 -94 666 -69 c 0
 643 -60 625 -53 611 -49 c 0
 586 -42 559 -38 530 -37 c 1xe4
 530 -74 542 -120 565 -173 c 0
 598 -248 615 -302 615 -337 c 0xf0
 615 -400 568 -443 512 -443 c 0
 488 -443 466 -434 446 -415 c 0
 423 -394 412 -367 412 -335 c 0xe8
 412 -311 428 -256 459 -169 c 0
 474 -128 485 -84 491 -37 c 1
 446 -37 397 -49 345 -73 c 0
 296 -95 258 -106 232 -106 c 0
 172 -106 142 -77 142 -18 c 0
 142 43 174 73 238 73 c 0
 264 73 302 62 351 41 c 0
 403 19 450 8 491 8 c 1
 483 47 474 77 463 100 c 1
 451 120 428 143 394 169 c 1
 460 261 493 370 493 496 c 0
 493 630 460 734 394 808 c 1
 427 831 449 853 459 875 c 1
 469 888 480 922 491 977 c 1
 451 974 400 959 337 932 c 0
 301 917 264 910 227 910 c 0
 169 910 140 939 140 997 c 0
 140 1055 168 1084 225 1084 c 0
 256 1084 300 1072 357 1048 c 0
 402 1029 447 1018 491 1015 c 1xe4
 491 1052 478 1101 453 1164 c 0
 424 1237 410 1287 410 1312 c 0
 410 1341 419 1366 436 1387 c 0xf0
 455 1410 481 1422 512 1422 c 0
 577 1422 609 1384 609 1308 c 0xe8
 609 1283 594 1235 565 1166 c 0
 546 1119 534 1068 530 1015 c 1
 579 1018 624 1029 664 1048 c 0
 713 1072 757 1084 796 1084 c 0
 855 1084 885 1054 885 995 c 0
 885 937 853 908 790 908 c 0
 753 908 711 919 666 940 c 0
 627 958 582 970 530 977 c 1
 533 937 543 904 558 879 c 1
 567 859 589 835 625 808 c 1
 562 715 530 607 530 483 c 0
 530 360 562 256 625 169 c 1
 592 143 570 119 558 97 c 0
 544 72 535 41 530 6 c 1
 575 8 617 19 658 39 c 1
 717 62 761 73 792 73 c 0
 843 73 885 39 885 -14 c 0xe4
EndSplineSet
EndChar

StartChar: guilsinglleft
Encoding: 8249 8249 101
Width: 758
Flags: MW
HStem: -48 1047<563 622 563 622>
VStem: 131 491
LayerCount: 2
Fore
SplineSet
351 478 m 1
 622 -48 l 1
 563 -48 l 1
 131 478 l 1
 563 999 l 1
 622 999 l 1
 351 478 l 1
EndSplineSet
EndChar

StartChar: quoteleft
Encoding: 8216 8216 102
Width: 407
Flags: MW
HStem: 805 624<160.5 288>
VStem: 78 57<1049.5 1077>
LayerCount: 2
Fore
SplineSet
297 922 m 0
 297 887 286 858 265 835 c 0
 246 815 225 805 202 805 c 0
 119 805 78 879 78 1026 c 0
 78 1128 109 1225 172 1316 c 0
 223 1391 262 1429 288 1429 c 1
 292 1426 l 1
 293 1423 280 1405 254 1370 c 0
 221 1327 195 1286 177 1247 c 0
 149 1187 135 1126 135 1065 c 0
 135 1034 142 1018 155 1018 c 0
 157 1018 165 1023 178 1032 c 0
 192 1041 204 1046 213 1046 c 0
 236 1046 255 1034 272 1009 c 0
 289 984 297 955 297 922 c 0
EndSplineSet
EndChar

StartChar: quoteright
Encoding: 8217 8217 103
Width: 407
Flags: MW
HStem: 831 624<106 233.5>
VStem: 259 57<1183 1210.5>
LayerCount: 2
Fore
SplineSet
316 1234 m 0
 316 1132 285 1035 222 944 c 0
 171 869 132 831 106 831 c 1
 102 834 l 1
 101 837 114 855 140 890 c 0
 173 933 199 974 217 1013 c 0
 245 1073 259 1134 259 1195 c 0
 259 1226 252 1242 239 1242 c 0
 237 1242 229 1237 215 1227 c 0
 202 1218 190 1213 181 1213 c 0
 158 1213 138 1225 121 1250 c 0
 104 1275 96 1305 96 1338 c 0
 96 1373 107 1402 128 1425 c 0
 147 1445 168 1455 192 1455 c 0
 275 1455 316 1381 316 1234 c 0
EndSplineSet
EndChar

StartChar: quotedblleft
Encoding: 8220 8220 104
Width: 760
Flags: MW
HStem: 805 624<179.5 307 294 579>
VStem: 97 57<1049.5 1077> 443 57<1049.5 1077>
LayerCount: 2
Fore
SplineSet
316 922 m 0
 316 887 305 858 284 835 c 0
 265 815 244 805 221 805 c 0
 138 805 97 879 97 1026 c 0
 97 1128 128 1225 191 1316 c 0
 242 1391 281 1429 307 1429 c 1
 311 1426 l 1
 312 1423 299 1405 273 1370 c 0
 240 1327 214 1286 196 1247 c 0
 168 1187 154 1126 154 1065 c 0
 154 1034 161 1018 174 1018 c 0
 176 1018 184 1023 197 1032 c 0
 211 1041 223 1046 232 1046 c 0
 255 1046 274 1034 291 1009 c 0
 308 984 316 955 316 922 c 0
663 922 m 0
 663 887 652 858 631 835 c 0
 612 815 591 805 567 805 c 0
 484 805 443 879 443 1026 c 0
 443 1128 474 1225 537 1316 c 0
 588 1391 627 1429 653 1429 c 1
 657 1426 l 1
 658 1423 645 1405 619 1370 c 0
 586 1327 560 1286 542 1247 c 0
 514 1187 500 1126 500 1065 c 0
 500 1034 507 1018 520 1018 c 0
 522 1018 530 1023 543 1032 c 0
 557 1041 569 1046 578 1046 c 0
 601 1046 620 1033 637 1008 c 0
 654 983 663 955 663 922 c 0
EndSplineSet
EndChar

StartChar: quotedblright
Encoding: 8221 8221 105
Width: 749
Flags: MW
HStem: 828 626<180.5 466>
VStem: 259 57<1182 1209.5> 606 57<1181 1208.5>
LayerCount: 2
Fore
SplineSet
316 1233 m 0
 316 1131 285 1034 222 942 c 0
 171 867 132 829 106 829 c 1
 102 832 l 1
 101 835 114 853 140 888 c 0
 173 931 199 973 217 1012 c 0
 245 1072 259 1133 259 1194 c 0
 259 1225 252 1241 239 1241 c 0
 237 1241 229 1236 215 1226 c 0
 202 1217 190 1212 181 1212 c 0
 158 1212 138 1224 121 1249 c 0
 104 1274 96 1303 96 1336 c 0
 96 1371 107 1401 128 1424 c 0
 147 1444 169 1454 192 1454 c 0
 275 1454 316 1380 316 1233 c 0
663 1232 m 0
 663 1130 632 1033 569 941 c 0
 518 866 479 828 453 828 c 1
 449 831 l 1
 448 834 461 852 487 887 c 0
 520 930 546 972 564 1011 c 0
 592 1071 606 1132 606 1193 c 0
 606 1224 599 1240 586 1240 c 0
 584 1240 576 1235 562 1225 c 0
 549 1216 537 1211 528 1211 c 0
 505 1211 485 1223 468 1248 c 0
 451 1273 443 1302 443 1335 c 0
 443 1370 454 1400 475 1423 c 0
 494 1443 516 1453 539 1453 c 0
 622 1453 663 1379 663 1232 c 0
EndSplineSet
EndChar

StartChar: bullet
Encoding: 8226 8226 106
Width: 659
Flags: MW
HStem: 925 20G<309.5 346>
VStem: 190 279<734.5 789 734.5 790.5>
LayerCount: 2
Fore
SplineSet
469 762 m 0
 469 707 455 661 428 626 c 0
 401 591 367 573 328 573 c 0
 289 573 256 591 229 626 c 1
 203 662 190 707 190 762 c 0
 190 819 205 864 234 899 c 0
 260 930 291 945 328 945 c 0
 364 945 396 929 424 896 c 0
 454 861 469 816 469 762 c 0
EndSplineSet
EndChar

StartChar: endash
Encoding: 8211 8211 107
Width: 688
Flags: MW
HStem: 505 89<134.5 542 147 542 542 544>
VStem: 118 452<537.5 565.5 537.5 565.5>
LayerCount: 2
Fore
SplineSet
570 551 m 0
 570 524 565 509 555 506 c 0
 552 505 549 505 544 505 c 2
 144 505 l 2
 125 505 118 507 118 551 c 0
 118 580 128 594 147 594 c 2
 542 594 l 2
 561 594 570 580 570 551 c 0
EndSplineSet
EndChar

StartChar: emdash
Encoding: 8212 8212 108
Width: 1332
Flags: MW
HStem: 507 88<135.5 1186 147 1186 1186 1188>
VStem: 118 1097<537.5 564.5>
LayerCount: 2
Fore
SplineSet
1215 553 m 0
 1215 522 1206 507 1188 507 c 2
 144 507 l 2
 127 507 118 522 118 552 c 0
 118 577 123 590 132 593 c 0
 135 594 140 595 147 595 c 2
 1186 595 l 2
 1209 595 1215 589 1215 553 c 0
EndSplineSet
EndChar

StartChar: guilsinglright
Encoding: 8250 8250 109
Width: 758
Flags: MW
HStem: -48 1047<136 195 136 195>
VStem: 136 491
LayerCount: 2
Fore
SplineSet
195 999 m 1
 627 473 l 1
 195 -48 l 1
 136 -48 l 1
 408 473 l 1
 136 999 l 1
 195 999 l 1
EndSplineSet
EndChar

StartChar: currency
Encoding: 164 164 111
Width: 1182
Flags: MW
HStem: 426 112<552.5 636.5 552.5 644> 1147 112<552 636> 1359 20G<130 130 1052 1052>
VStem: 175 113<799 884 799 894.5> 894 113<801.5 884.5>
LayerCount: 2
Fore
SplineSet
920 589 m 1
 1123 386 l 1
 1052 315 l 1
 849 518 l 1
 778 457 693 426 595 426 c 0
 492 426 404 457 333 518 c 1
 130 315 l 1
 59 386 l 1
 262 589 l 1
 204 661 175 745 175 841 c 0
 175 948 205 1035 266 1101 c 1
 59 1308 l 1
 130 1379 l 1
 337 1172 l 1
 409 1230 495 1259 595 1259 c 0
 691 1259 774 1229 843 1170 c 1
 1052 1379 l 1
 1123 1308 l 1
 918 1103 l 1
 977 1029 1007 942 1007 843 c 0
 1007 743 978 658 920 589 c 1
894 843 m 0
 894 926 865 997 806 1057 c 0
 747 1117 677 1147 595 1147 c 0
 509 1147 436 1117 377 1058 c 0
 318 999 288 927 288 841 c 0
 288 757 318 685 378 626 c 0
 438 567 510 538 595 538 c 0
 678 538 749 568 807 628 c 0
 865 688 894 760 894 843 c 0
EndSplineSet
EndChar

StartChar: logicalnot
Encoding: 172 172 112
Width: 1222
Flags: MW
HStem: 709 118<79 1024 79 1143>
VStem: 1024 119<372 709 709 709>
LayerCount: 2
Fore
SplineSet
1143 827 m 1
 1143 372 l 1
 1024 372 l 1
 1024 709 l 1
 79 709 l 1
 79 827 l 1
 1143 827 l 1
EndSplineSet
EndChar

StartChar: uni00AD
Encoding: 173 173 113
Width: 635
Flags: MW
HStem: 505 89<135.5 488 147 488 488 490>
VStem: 118 399<535.5 565.5>
LayerCount: 2
Fore
SplineSet
517 551 m 0
 517 520 508 505 490 505 c 2
 144 505 l 2
 127 505 118 520 118 551 c 0
 118 580 128 594 147 594 c 2
 488 594 l 2
 507 594 517 580 517 551 c 0
EndSplineSet
EndChar

StartChar: degree
Encoding: 176 176 114
Width: 630
Flags: MW
HStem: 985 79<296 334.5 296 345> 1340 79<296 334.5>
VStem: 99 78<1182.5 1221 1182.5 1232> 453 79<1182.5 1221>
LayerCount: 2
Fore
SplineSet
532 1202 m 0
 532 1142 511 1091 468 1048 c 0
 426 1006 375 985 315 985 c 0
 255 985 204 1006 162 1048 c 0
 120 1091 99 1142 99 1202 c 0
 99 1262 120 1313 162 1355 c 0
 204 1398 255 1419 315 1419 c 0
 375 1419 426 1398 468 1355 c 1
 511 1313 532 1262 532 1202 c 0
453 1202 m 0
 453 1240 440 1272 413 1299 c 0
 386 1326 354 1340 315 1340 c 0
 277 1340 244 1326 217 1299 c 0
 190 1272 177 1240 177 1202 c 0
 177 1163 190 1131 217 1104 c 0
 244 1077 277 1064 315 1064 c 0
 354 1064 386 1077 413 1104 c 0
 440 1131 453 1163 453 1202 c 0
EndSplineSet
EndChar

StartChar: paragraph
Encoding: 182 182 115
Width: 928
Flags: MW
HStem: -443 21G<467 540 467 467 725 800 725 725> 1300 55<540 725 540 540 800 932 800 800>
VStem: 467 73<-443 603 603 603> 725 75<-443 1300 -443 1300>
LayerCount: 2
Fore
SplineSet
932 1355 m 1
 932 1300 l 1
 800 1300 l 1
 800 -443 l 1
 725 -443 l 1
 725 1300 l 1
 540 1300 l 1
 540 -443 l 1
 467 -443 l 1
 467 603 l 1
 146 611 -14 737 -14 981 c 0
 -14 1114 34 1212 131 1277 c 0
 210 1329 312 1355 437 1355 c 2
 932 1355 l 1
EndSplineSet
EndChar

StartChar: periodcentered
Encoding: 183 183 116
Width: 378
Flags: MW
HStem: 622 248<175.5 212 175.5 214>
VStem: 96 185<711.5 767>
LayerCount: 2
Fore
SplineSet
281 748 m 0
 281 673 240 622 188 622 c 0
 135 622 96 675 96 748 c 0
 96 786 106 816 125 839 c 0
 142 860 163 870 188 870 c 0
 236 870 281 820 281 748 c 0
EndSplineSet
EndChar

StartChar: dailuemodifierw
Encoding: 65539 -1 117
Width: 1
Flags: MW
HStem: -580 105<-648 -482 -648 -453> -220 105<-648 -482>
VStem: -945 105<-382.5 -307.5 -382.5 -272.5> -285 105<-382.5 -307.5>
LayerCount: 2
Fore
SplineSet
-840 -345 m 0
 -840 -420 -731 -475 -565 -475 c 0
 -399 -475 -285 -420 -285 -345 c 0
 -285 -270 -399 -220 -565 -220 c 0
 -731 -220 -840 -270 -840 -345 c 0
-945 -345 m 0
 -945 -200 -789 -115 -565 -115 c 0
 -341 -115 -180 -200 -180 -345 c 0
 -180 -488 -341 -580 -565 -580 c 0
 -789 -580 -945 -488 -945 -345 c 0
EndSplineSet
EndChar

StartChar: dailuemodifierfinal
Encoding: 65540 -1 118
Width: 1
Flags: MW
HStem: -735 120<-408 -342 -408 -310.5> -400 120<-408 -342>
VStem: -600 120<-537.5 -472.5 -537.5 -434.5> -265 125<-505 -472.5 -505 204 204 204>
LayerCount: 2
Fore
SplineSet
-140 -505 m 1
 -265 -505 l 1
 -265 -440 -309 -400 -375 -400 c 0
 -441 -400 -480 -440 -480 -505 c 0
 -480 -570 -441 -615 -375 -615 c 0
 -309 -615 -265 -570 -265 -505 c 2
 -265 204 l 1
 -140 350 l 1
 -140 -505 l 2
 -140 -642 -246 -735 -375 -735 c 0
 -504 -735 -600 -643 -600 -505 c 0
 -600 -364 -505 -280 -385 -280 c 0
 -271 -280 -160 -430 -140 -505 c 1
EndSplineSet
EndChar

StartChar: uni25CC
Encoding: 9676 9676 122
Width: 1638
Flags: MW
HStem: 102 91<803 827.5> 141 90 252 90<446.5 459 1171 1183.5> 418 91 614 91<291 315.5 1315 1339.5> 810 91 977 89<446.5 459 1170.5 1183.5> 1088 90 1126 91<803 827.5>
VStem: 258 90<647 671.5> 297 90 408 90<291 302.5 291 303.5 1016 1027.5> 574 91 770 90<135 159.5 1159 1183.5> 966 91 1132 90<290.5 302.5 290.5 303.5 1015.5 1027.5> 1243 90 1282 90<647 671.5>
LayerCount: 2
Fore
SplineSet
1208 989 m 0x0201
 1200 981 1190 977 1177 977 c 0
 1164 977 1154 981 1145 989 c 0
 1136 998 1132 1009 1132 1022 c 0
 1132 1034 1136 1044 1145 1053 c 0
 1154 1062 1164 1066 1177 1066 c 0
 1190 1066 1200 1062 1208 1053 c 0
 1217 1044 1222 1033 1222 1022 c 0
 1222 1009 1217 998 1208 989 c 0x0201
1053 1116 m 0x050280
 1042 1092 1016 1081 993 1092 c 1
 970 1100 961 1126 969 1149 c 1
 980 1174 1005 1185 1028 1174 c 1
 1051 1165 1064 1139 1053 1116 c 0x050280
1329 872 m 1
 1340 849 1329 824 1305 813 c 1
 1282 805 1255 815 1247 838 c 1
 1236 861 1247 886 1272 897 c 0
 1295 908 1321 895 1329 872 c 1
860 1171 m 0x088440
 860 1147 840 1126 815 1126 c 0
 791 1126 770 1147 770 1171 c 0
 770 1196 791 1217 815 1217 c 0
 840 1217 860 1196 860 1171 c 0x088440
1372 659 m 0
 1372 635 1352 614 1327 614 c 0
 1303 614 1282 635 1282 659 c 0
 1282 684 1303 705 1327 705 c 0
 1352 705 1372 684 1372 659 c 0
662 1149 m 1x110880
 670 1126 660 1100 637 1092 c 1
 614 1081 589 1092 578 1116 c 0
 567 1139 579 1165 602 1174 c 1
 625 1185 651 1174 662 1149 c 1x110880
1329 446 m 1
 1321 423 1295 411 1272 422 c 0
 1247 433 1236 458 1247 481 c 1
 1255 504 1282 514 1305 506 c 1
 1329 495 1340 469 1329 446 c 1
485 989 m 1x2211
 476 981 465 977 453 977 c 0
 440 977 430 981 422 989 c 0
 413 998 408 1009 408 1022 c 0
 408 1034 413 1044 422 1053 c 0
 430 1062 440 1066 453 1066 c 0
 466 1066 476 1062 485 1053 c 0
 494 1043 498 1033 498 1022 c 0
 498 1010 494 999 485 989 c 1x2211
1208 266 m 1
 1200 257 1190 252 1177 252 c 0
 1165 252 1154 257 1145 266 c 0
 1136 274 1132 284 1132 297 c 0
 1132 310 1136 321 1145 330 c 0
 1154 338 1164 342 1177 342 c 0
 1190 342 1200 338 1208 330 c 1
 1217 319 1222 308 1222 297 c 0
 1222 284 1217 274 1208 266 c 1
383 838 m 1x4422
 375 815 349 805 326 813 c 1
 301 824 290 849 301 872 c 1
 309 895 335 908 358 897 c 0
 383 886 394 861 383 838 c 1x4422
1053 203 m 0
 1064 180 1051 154 1028 145 c 1
 1005 134 980 145 969 170 c 1
 961 193 970 219 993 227 c 1
 1016 238 1042 227 1053 203 c 0
348 659 m 0x8844
 348 635 328 614 303 614 c 0
 279 614 258 635 258 659 c 0
 258 684 279 705 303 705 c 0
 328 705 348 684 348 659 c 0x8844
860 147 m 0
 860 123 840 102 815 102 c 0
 791 102 770 123 770 147 c 0
 770 172 791 193 815 193 c 0
 840 193 860 172 860 147 c 0
383 481 m 1x5028
 394 458 383 433 358 422 c 0
 335 411 309 423 301 446 c 1
 290 469 301 495 326 506 c 1
 349 514 375 504 383 481 c 1x5028
662 170 m 1
 651 145 625 134 602 145 c 1
 579 154 567 180 578 203 c 0
 589 227 614 238 637 227 c 1
 660 219 670 193 662 170 c 1
485 266 m 0x2010
 476 257 465 252 453 252 c 0
 440 252 430 257 422 266 c 1
 413 273 408 284 408 297 c 0
 408 310 413 321 422 330 c 0
 430 338 440 342 453 342 c 0
 465 342 476 338 485 330 c 1
 494 319 498 308 498 297 c 0
 498 285 494 275 485 266 c 0x2010
EndSplineSet
EndChar

StartChar: uni3001
Encoding: 12289 12289 124
Width: 1100
Flags: MW
HStem: -20 21G<402.5 448.5>
VStem: 100 406<33.5 430.5>
LayerCount: 2
Fore
SplineSet
506 60 m 0
 506 7 477 -20 420 -20 c 0
 385 -20 361 -1 350 37 c 1
 328 146 l 1
 311 201 284 251 246 298 c 0
 213 339 168 377 110 412 c 0
 103 416 100 421 100 428 c 0
 100 433 106 436 117 436 c 0
 152 436 200 418 261 383 c 1
 319 348 365 312 398 274 c 0
 470 190 506 119 506 60 c 0
EndSplineSet
EndChar

StartChar: uni3002
Encoding: 12290 12290 125
Width: 1100
Flags: MW
HStem: -20 51<266.5 303.5 266.5 310.5> 299 51<266.5 303.5>
VStem: 100 51<146.5 183.5 146.5 190.5> 419 51<146.5 183.5>
LayerCount: 2
Fore
SplineSet
470 165 m 0
 470 114 452 70 416 34 c 0
 380 -2 336 -20 285 -20 c 0
 234 -20 190 -2 154 34 c 0
 118 70 100 114 100 165 c 0
 100 216 118 260 154 296 c 0
 190 332 234 350 285 350 c 0
 336 350 380 332 416 296 c 0
 452 260 470 216 470 165 c 0
419 165 m 0
 419 202 406 234 380 260 c 0
 354 286 322 299 285 299 c 0
 248 299 216 286 190 260 c 0
 164 234 151 202 151 165 c 0
 151 128 164 96 190 70 c 0
 216 44 248 31 285 31 c 0
 322 31 354 44 380 70 c 0
 406 96 419 128 419 165 c 0
EndSplineSet
EndChar

StartChar: uni3008
Encoding: 12296 12296 126
Width: 1100
Flags: MW
HStem: -13 21G<946 946> 1348 20G<946 946>
VStem: 599 400
LayerCount: 2
Fore
SplineSet
999 13 m 1
 946 -13 l 1
 599 677 l 1
 946 1368 l 1
 999 1342 l 1
 666 677 l 1
 999 13 l 1
EndSplineSet
EndChar

StartChar: uni3009
Encoding: 12297 12297 127
Width: 1100
Flags: MW
HStem: -13 21G<154 154> 1348 20G<154 154>
VStem: 100 401
LayerCount: 2
Fore
SplineSet
154 -13 m 1
 100 13 l 1
 433 677 l 1
 100 1342 l 1
 154 1368 l 1
 501 677 l 1
 154 -13 l 1
EndSplineSet
EndChar

StartChar: uni300A
Encoding: 12298 12298 128
Width: 1100
Flags: MW
HStem: -13 21G<646 646 946 946> 1348 20G<646 646 946 946>
VStem: 299 700<13 677>
LayerCount: 2
Fore
SplineSet
999 13 m 1
 946 -13 l 1
 599 677 l 1
 946 1368 l 1
 999 1342 l 1
 666 677 l 1
 999 13 l 1
699 13 m 1
 646 -13 l 1
 299 677 l 1
 646 1368 l 1
 699 1342 l 1
 366 677 l 1
 699 13 l 1
EndSplineSet
EndChar

StartChar: uni300B
Encoding: 12299 12299 129
Width: 1100
Flags: MW
HStem: -13 21G<154 154 454 454> 1348 20G<154 154 454 454>
VStem: 100 701<13 677 677 1342>
LayerCount: 2
Fore
SplineSet
154 -13 m 1
 100 13 l 1
 433 677 l 1
 100 1342 l 1
 154 1368 l 1
 501 677 l 1
 154 -13 l 1
454 -13 m 1
 400 13 l 1
 733 677 l 1
 400 1342 l 1
 454 1368 l 1
 801 677 l 1
 454 -13 l 1
EndSplineSet
EndChar

StartChar: uniFF01
Encoding: 65281 65281 130
Width: 1100
Flags: MW
HStem: -26 21G<206.5 261.5>
VStem: 137 198<68.5 148.5 67.5 150.5> 142 183<1133.5 1175 1133.5 1176.5> 208 49<314 314>
LayerCount: 2
Fore
SplineSet
325 1156 m 0xa0
 325 1111 323 979 321 953 c 2xa0
 257 314 l 2
 255 291 211 291 208 314 c 2x90
 148 953 l 1
 145 999 142 1111 142 1156 c 0
 142 1197 168 1209 235 1209 c 0
 302 1209 325 1194 325 1156 c 0xa0
335 108 m 0xc0
 335 27 288 -26 235 -26 c 0
 178 -26 137 29 137 108 c 0
 137 193 187 238 235 238 c 0
 282 238 335 189 335 108 c 0xc0
EndSplineSet
EndChar

StartChar: uniFF08
Encoding: 65288 65288 131
Width: 1099
Flags: MW
HStem: 19 1337
VStem: 547 85<495 869 495 879.5>
LayerCount: 2
Fore
SplineSet
935 24 m 0
 926 16 894 17 859 32 c 0
 710 96 547 292 547 676 c 0
 547 1083 718 1256 859 1335 c 0
 893 1354 925 1360 935 1354 c 0
 942 1350 934 1339 891 1317 c 0
 797 1268 632 1056 632 682 c 0
 632 308 793 95 891 57 c 0
 935 39 941 28 935 24 c 0
EndSplineSet
EndChar

StartChar: uniFF09
Encoding: 65289 65289 132
Width: 1099
Flags: MW
HStem: 1337 20G
VStem: 466 86<506.5 880.5>
LayerCount: 2
Fore
SplineSet
552 700 m 0
 552 293 381 120 240 41 c 0
 206 22 174 16 163 22 c 0
 157 26 165 37 207 59 c 0
 301 108 466 319 466 694 c 0
 466 1067 306 1281 208 1319 c 0
 163 1337 157 1348 163 1352 c 0
 172 1360 205 1359 240 1344 c 0
 388 1280 552 1084 552 700 c 0
EndSplineSet
EndChar

StartChar: uniFF0C
Encoding: 65292 65292 133
Width: 1100
Flags: MW
HStem: -197 749
VStem: 303 68<134 254>
LayerCount: 2
Fore
SplineSet
371 286 m 0
 371 -18 123 -225 114 -194 c 0
 107 -171 303 -10 303 240 c 0
 303 268 288 297 279 297 c 0
 267 297 239 262 209 262 c 0
 155 262 107 332 107 411 c 0
 107 502 172 552 222 552 c 0
 330 552 371 420 371 286 c 0
EndSplineSet
EndChar

StartChar: uniFF0E
Encoding: 65294 65294 134
Width: 1100
Flags: MW
HStem: -21 21G<522.5 577>
VStem: 453 195<72 151 71 153>
LayerCount: 2
Fore
SplineSet
648 111 m 0
 648 31 604 -21 550 -21 c 0
 495 -21 453 33 453 111 c 0
 453 195 503 239 550 239 c 0
 597 239 648 191 648 111 c 0
EndSplineSet
EndChar

StartChar: uniFF1A
Encoding: 65306 65306 135
Width: 1000
Flags: MW
HStem: 192 849<205.5 250.5 205.5 254.5>
VStem: 136 185<882 957 881 959>
LayerCount: 2
Fore
SplineSet
322 318 m 0
 322 242 280 192 229 192 c 0
 177 192 137 244 137 318 c 0
 137 398 184 440 229 440 c 0
 274 440 322 394 322 318 c 0
321 919 m 0
 321 843 279 793 228 793 c 0
 176 793 136 845 136 919 c 0
 136 999 183 1041 228 1041 c 0
 273 1041 321 995 321 919 c 0
EndSplineSet
EndChar

StartChar: uniFF1B
Encoding: 65307 65307 136
Width: 1100
Flags: MW
HStem: -190 1231
VStem: 128 185<882 957 881 959> 279 57<86.5 186.5>
LayerCount: 2
Fore
SplineSet
313 919 m 0xc0
 313 843 271 793 220 793 c 0
 168 793 128 845 128 919 c 0
 128 999 175 1041 220 1041 c 0
 265 1041 313 995 313 919 c 0xc0
336 213 m 0xa0
 336 -40 129 -213 122 -187 c 0
 116 -168 279 -34 279 175 c 0
 279 198 267 222 259 222 c 0
 249 222 226 193 201 193 c 0
 156 193 116 251 116 317 c 0
 116 393 170 435 212 435 c 0
 302 435 336 325 336 213 c 0xa0
EndSplineSet
EndChar

StartChar: uniFF1F
Encoding: 65311 65311 137
Width: 1100
Flags: MW
HStem: -22 21G<454 502> -22 189<454 499 448.5 502> 1172 87<433.5 536>
VStem: 393 172<44 92> 414 114 677 135
LayerCount: 2
Fore
SplineSet
812 939 m 0xac
 808 644 549 588 536 574 c 0
 521 557 526 315 528 288 c 1
 530 276 525 264 478 264 c 0
 426 264 418 269 414 286 c 1
 409 315 418 613 432 632 c 0
 444 648 677 706 677 932 c 0
 677 1079 579 1172 493 1172 c 0
 374 1172 297 1069 265 971 c 0
 257 949 244 945 187 979 c 0
 129 1013 120 1033 132 1049 c 1
 183 1126 281 1259 497 1259 c 0
 655 1259 814 1143 812 939 c 0xac
565 68 m 0x74
 565 20 526 -22 478 -22 c 0
 430 -22 393 20 393 68 c 0
 393 116 424 167 473 167 c 0
 525 167 565 133 565 68 c 0x74
EndSplineSet
EndChar

StartChar: uni1980
Encoding: 6528 6528 138
Width: 1864
Flags: MW
HStem: -740 190<1175 1321.5 1175 1416.5> -20 180<1231 1236 1231 1308> -20 230<459.5 553.5 459.5 623> 740 230<454.5 551 1207.5 1327>
VStem: 715 250<385 555.5> 1529 250<415 565> 1538 250<-350 -186.5>
LayerCount: 2
Fore
SplineSet
495 -20 m 0xda
 348 -20 222 38 115 175 c 0
 107 185 111 199 121 207 c 1
 250 331 l 1
 260 339 273 334 280 325 c 0
 351 238 424 210 495 210 c 0xba
 612 210 715 299 715 471 c 0
 715 640 617 740 485 740 c 0
 424 740 341 712 280 635 c 0
 272 625 260 621 250 629 c 2
 111 743 l 2
 101 751 97 765 105 775 c 0
 212 912 338 970 485 970 c 0
 750 970 965 759 965 471 c 0
 965 167 751 -20 495 -20 c 0xda
1236 -20 m 0
 1226 -20 1216 -12 1216 -3 c 2
 1216 142 l 2
 1216 153 1226 160 1236 160 c 0
 1496 160 1788 8 1788 -265 c 0
 1788 -538 1570 -740 1263 -740 c 0
 1035 -740 812 -574 762 -442 c 0
 758 -432 766 -420 776 -416 c 2
 878 -375 l 2
 886 -372 896 -381 903 -390 c 0
 968 -480 1112 -550 1238 -550 c 0
 1405 -550 1538 -435 1538 -265 c 0
 1538 -108 1380 -20 1236 -20 c 0
943 581 m 0
 935 572 923 567 913 575 c 1
 802 721 l 1
 792 729 788 743 796 753 c 0
 878 847 1053 970 1269 970 c 0
 1566 970 1779 762 1779 480 c 0
 1779 238 1591 -19 1236 -20 c 0
 1226 -20 1216 -12 1216 -3 c 2
 1216 142 l 2
 1216 153 1226 160 1236 160 c 0
 1456 160 1529 350 1529 480 c 0xdc
 1529 650 1385 740 1269 740 c 0
 1146 740 1021 668 943 581 c 0
EndSplineSet
EndChar

StartChar: uni19D0
Encoding: 6608 6608 139
Width: 1265
Flags: MW
HStem: -20 125<512 758.5 512 803.5> 845 125<507 753.5>
VStem: 110 125<360 580.5 360 616> 1030 125<365 580.5>
LayerCount: 2
Fore
SplineSet
635 970 m 0
 962 970 1155 773 1155 470 c 0
 1155 187 972 -20 635 -20 c 0
 288 -20 110 188 110 470 c 0
 110 762 298 970 635 970 c 0
635 845 m 0
 379 845 235 691 235 470 c 0
 235 250 389 105 635 105 c 0
 882 105 1030 260 1030 470 c 0
 1030 691 872 845 635 845 c 0
EndSplineSet
EndChar

StartChar: uni199E
Encoding: 6558 6558 140
Width: 1345
Flags: MW
HStem: -20 230<592 758.5 592 843> 740 230<587 753.5>
VStem: 130 250<385 555.5 385 617.5> 965 250<385 555.5>
LayerCount: 2
Fore
SplineSet
675 970 m 0
 1012 970 1215 763 1215 470 c 0
 1215 177 1011 -20 675 -20 c 0
 328 -20 130 173 130 470 c 0
 130 765 338 970 675 970 c 0
675 740 m 0
 499 740 380 641 380 470 c 0
 380 300 509 210 675 210 c 0
 842 210 965 300 965 470 c 0
 965 641 832 740 675 740 c 0
EndSplineSet
EndChar

StartChar: uni19B1
Encoding: 6577 6577 141
Width: 1205
Flags: MW
HStem: -20 125<489.5 673.5 489.5 718> 845 125<484.5 671>
VStem: 970 125<354 589.5>
LayerCount: 2
Fore
SplineSet
555 -20 m 0
 398 -20 212 33 105 175 c 0
 97 185 100 200 111 207 c 2
 180 251 l 2
 191 258 202 255 210 245 c 0
 291 143 424 105 555 105 c 0
 792 105 970 238 970 470 c 0
 970 709 777 845 565 845 c 0
 404 845 291 782 210 675 c 0
 203 665 191 662 180 669 c 2
 111 713 l 2
 100 720 97 735 105 745 c 0
 222 892 368 970 565 970 c 0
 880 970 1095 748 1095 470 c 0
 1095 186 881 -20 555 -20 c 0
EndSplineSet
EndChar

StartChar: uni1985
Encoding: 6533 6533 142
Width: 1250
Flags: MW
HStem: -24 21G 740 230<555.5 711>
VStem: 90 250<389.5 531 389.5 597.5> 920 250<393.5 538.5>
LayerCount: 2
Fore
SplineSet
630 970 m 0
 944 970 1170 766 1170 450 c 0
 1170 219 1039 61 860 -20 c 0
 850 -24 839 -23 834 -14 c 2
 746 164 l 2
 741 172 745 188 755 190 c 0
 850 208 920 337 920 450 c 0
 920 627 792 740 630 740 c 0
 481 740 340 622 340 440 c 0
 340 339 398 221 485 180 c 0
 497 174 499 160 491 150 c 1
 397 -14 l 1
 389 -24 375 -28 365 -20 c 0
 218 87 90 233 90 440 c 0
 90 755 322 970 630 970 c 0
EndSplineSet
EndChar

StartChar: uni198D
Encoding: 6541 6541 143
Width: 1925
Flags: MW
HStem: -20 125<477 673.5 477 678.5 1251.5 1448> 845 125<505 510.5 1414.5 1420>
VStem: 120 125<370 567 370 601> 920 85<294.5 385 355.5 385> 1680 125<370 565>
CounterMasks: 1 38
LayerCount: 2
Fore
SplineSet
920 380 m 0
 920 390 928 400 937 400 c 2
 987 400 l 2
 998 400 1005 390 1005 380 c 0
 1005 331 994 275 984 238 c 0
 943 84 782 -20 575 -20 c 0
 278 -20 120 208 120 470 c 0
 120 732 260 969 505 970 c 0
 537 970 574 965 605 952 c 0
 615 948 618 936 613 927 c 2
 567 848 l 2
 563 840 551 840 540 842 c 0
 531 844 516 845 505 845 c 0
 345 845 245 664 245 470 c 0
 245 270 379 105 575 105 c 0
 772 105 920 209 920 380 c 0
1005 380 m 0
 1005 209 1153 105 1350 105 c 0
 1546 105 1680 270 1680 470 c 0
 1680 660 1580 845 1420 845 c 0
 1409 845 1394 844 1385 842 c 0
 1374 840 1362 840 1358 848 c 2
 1312 927 l 2
 1307 936 1310 948 1320 952 c 0
 1351 965 1388 970 1420 970 c 0
 1665 969 1805 732 1805 470 c 0
 1805 208 1647 -20 1350 -20 c 0
 1143 -20 982 84 941 238 c 0
 931 275 920 331 920 380 c 0
 920 390 927 400 938 400 c 2
 988 400 l 2
 997 400 1005 390 1005 380 c 0
EndSplineSet
EndChar

StartChar: uni1982
Encoding: 6530 6530 144
Width: 1885
Flags: MW
HStem: -20 230<435 531> 740 230<492 622 386.5 643.5 1262.5 1393>
VStem: 70 250<410 550 410 601> 860 165<440 530.5> 1565 250<408 550>
CounterMasks: 1 38
LayerCount: 2
Fore
SplineSet
860 445 m 0
 860 616 732 740 555 740 c 0
 429 740 320 620 320 480 c 0
 320 340 385 210 485 210 c 0
 496 210 511 211 520 213 c 0
 531 215 543 215 547 207 c 2
 633 23 l 2
 638 14 635 2 625 -2 c 0
 594 -15 547 -20 515 -20 c 0
 220 -19 70 268 70 480 c 0
 70 722 228 970 545 970 c 0
 699 970 861 891 942 768 c 1
 1023 891 1185 970 1340 970 c 0
 1657 970 1815 722 1815 480 c 0
 1815 268 1675 -19 1370 -20 c 0
 1338 -20 1291 -15 1260 -2 c 0
 1250 2 1247 14 1252 23 c 2
 1338 207 l 2
 1342 215 1354 215 1365 213 c 0
 1374 211 1389 210 1400 210 c 0
 1500 210 1565 336 1565 480 c 0
 1565 620 1456 740 1330 740 c 0
 1153 740 1025 616 1025 445 c 0
 1025 435 1019 425 1009 425 c 2
 876 425 l 2
 868 425 860 435 860 445 c 0
EndSplineSet
EndChar

StartChar: uni19B2
Encoding: 6578 6578 145
Width: 1225
Flags: MW
HStem: -20 230<542 688.5 542 778.5> 1340 230<537 683.5>
VStem: 100 250<545 985.5 545 1041> 875 250<550 985.5>
LayerCount: 2
Fore
SplineSet
615 1570 m 0
 932 1570 1125 1314 1125 770 c 0
 1125 234 942 -20 615 -20 c 0
 278 -20 100 238 100 770 c 0
 100 1312 288 1570 615 1570 c 0
615 1340 m 0
 459 1340 350 1201 350 770 c 0
 350 320 469 210 615 210 c 0
 762 210 875 330 875 770 c 0
 875 1201 752 1340 615 1340 c 0
975 600 m 1
 995 805 l 1
 931 908 769 970 615 970 c 0
 447 970 280 906 220 795 c 1
 245 600 l 1
 291 737 459 810 615 810 c 0
 762 810 934 745 975 600 c 1
EndSplineSet
EndChar

StartChar: uni19C0
Encoding: 6592 6592 146
Width: 1740
Flags: MW
HStem: -740 230<1195.5 1284.5 1195.5 1364> -20 230<542 688.5 542 778.5> 1340 230<537 683.5>
VStem: 100 250<545 985.5 545 1041> 875 211<550 770> 1400 250<-305 930>
LayerCount: 2
Fore
SplineSet
1650 930 m 2
 1650 -305 l 2
 1650 -543 1488 -740 1240 -740 c 0
 982 -740 835 -543 835 -305 c 2
 835 291 l 1
 1086 770 l 1
 1086 -305 l 2
 1086 -437 1151 -510 1240 -510 c 0
 1329 -510 1400 -436 1400 -305 c 2
 1400 930 l 2
 1400 940 1407 950 1418 950 c 2
 1633 950 l 2
 1642 950 1650 940 1650 930 c 2
615 1570 m 0
 932 1570 1125 1314 1125 770 c 0
 1125 234 942 -20 615 -20 c 0
 278 -20 100 238 100 770 c 0
 100 1312 288 1570 615 1570 c 0
615 1340 m 0
 459 1340 350 1201 350 770 c 0
 350 320 469 210 615 210 c 0
 762 210 875 330 875 770 c 0
 875 1201 752 1340 615 1340 c 0
975 600 m 1
 995 805 l 1
 931 908 769 970 615 970 c 0
 447 970 280 906 220 795 c 1
 245 600 l 1
 291 737 459 810 615 810 c 0
 762 810 934 745 975 600 c 1
EndSplineSet
EndChar

StartChar: uni19B8
Encoding: 6584 6584 147
Width: 1213
Flags: MW
HStem: -20 220<306 306 916 916> 740 230<573.5 648.5>
VStem: 251 250<488.5 637 488.5 706.5> 721 250<488.5 637>
LayerCount: 2
Fore
SplineSet
611 740 m 0
 536 740 501 669 501 605 c 0
 501 372 724 198 916 200 c 0
 1000 201 1059 232 1091 325 c 0
 1095 336 1110 338 1117 334 c 1
 1225 224 l 1
 1234 218 1233 209 1231 200 c 0
 1207 75 1051 -19 916 -20 c 0
 587 -22 251 342 251 600 c 0
 251 813 370 970 611 970 c 0
 842 970 971 813 971 600 c 0
 971 342 635 -22 306 -20 c 0
 171 -19 15 75 -9 200 c 0
 -10 209 -12 218 -3 224 c 1
 105 344 l 1
 112 348 127 346 131 335 c 0
 163 242 222 201 306 200 c 0
 498 198 721 372 721 605 c 0
 721 669 686 740 611 740 c 0
EndSplineSet
EndChar

StartChar: uni1995
Encoding: 6549 6549 148
Width: 1251
Flags: MW
HStem: -20 125<457.5 706 457.5 739.5> 468 85<409 492 409 492> 470 74<440 451> 845 125<350.5 400>
VStem: 130 125<244 347 244 361 666.5 747> 685 105<494.5 672 494.5 706.5> 990 105<503.5 672>
LayerCount: 2
Fore
SplineSet
1120 90 m 0xbe
 1129 87 1133 73 1128 64 c 2
 1082 -15 l 2
 1078 -23 1066 -24 1055 -20 c 0
 858 52 685 331 685 600 c 0
 685 813 739 970 890 970 c 1
 890 865 l 1
 815 861 790 739 790 605 c 0
 790 384 956 147 1120 90 c 0xbe
130 710 m 0
 130 845 243 970 390 970 c 0
 441 970 499 958 530 935 c 0
 538 929 543 920 538 911 c 2
 492 837 l 2
 488 829 475 825 465 830 c 0
 448 839 410 845 390 845 c 0
 311 845 255 784 255 710 c 0
 255 623 331 553 487 553 c 0
 497 553 507 546 507 535 c 2xde
 507 485 l 2
 507 476 497 468 487 468 c 0
 326 468 130 529 130 710 c 0
545 -20 m 0
 300 -20 130 102 130 300 c 0
 130 422 259 544 375 544 c 0
 394 544 428 544 440 544 c 0
 463 544 485 532 485 510 c 0
 485 488 462 470 440 470 c 0
 345 471 255 384 255 310 c 0
 255 178 370 105 545 105 c 0
 867 105 990 402 990 605 c 0
 990 739 965 861 890 865 c 1
 890 970 l 1
 1041 970 1095 813 1095 600 c 0
 1095 312 934 -20 545 -20 c 0
EndSplineSet
EndChar

StartChar: uni19A0
Encoding: 6560 6560 149
Width: 2002
Flags: MW
HStem: -20 230<512 633 512 719 1304.5 1310> 740 230<1230.5 1353>
VStem: 125 250<390 525 390 606> 1480 250<405 560>
LayerCount: 2
Fore
SplineSet
580 210 m 0
 686 210 752 313 805 475 c 0
 881 709 974 970 1295 970 c 0
 1562 970 1730 772 1730 480 c 0
 1730 138 1555 -19 1310 -20 c 0
 1278 -20 1191 -15 1160 -2 c 0
 1150 2 1147 14 1152 23 c 2
 1248 207 l 2
 1252 215 1264 215 1275 213 c 0
 1284 211 1299 210 1310 210 c 0
 1420 210 1480 330 1480 480 c 0
 1480 640 1411 740 1295 740 c 0
 1166 740 1095 606 1055 475 c 0
 970 200 858 -20 580 -20 c 0
 303 -20 125 168 125 470 c 0
 125 742 243 920 455 970 c 0
 468 973 476 973 480 965 c 2
 575 770 l 2
 580 762 579 749 565 745 c 0
 418 700 375 580 375 470 c 0
 375 310 444 210 580 210 c 0
EndSplineSet
EndChar

StartChar: uni199F
Encoding: 6559 6559 150
Width: 1755
Flags: MW
HStem: -20 125<485 490.5 405 501 1142 1313> 845 125<457 654.5 1274.5 1280>
VStem: 120 125<340 540 340 571> 1510 125<350 570>
LayerCount: 2
Fore
SplineSet
1635 470 m 0
 1635 168 1497 -20 1230 -20 c 0
 972 -20 876 198 835 475 c 0
 808 659 754 845 555 845 c 0
 359 845 245 640 245 440 c 0
 245 240 325 105 485 105 c 0
 496 105 511 106 520 108 c 0
 531 110 543 110 547 102 c 2
 593 23 l 2
 598 14 595 2 585 -2 c 0
 554 -15 517 -20 485 -20 c 0
 240 -19 120 168 120 440 c 0
 120 702 258 970 555 970 c 0
 856 970 929 709 965 475 c 0
 998 258 1054 105 1230 105 c 0
 1396 105 1510 230 1510 470 c 0
 1510 670 1440 845 1280 845 c 0
 1269 845 1254 844 1245 842 c 0
 1234 840 1222 840 1218 848 c 2
 1172 927 l 2
 1167 936 1170 948 1180 952 c 0
 1211 965 1248 970 1280 970 c 0
 1525 969 1635 742 1635 470 c 0
EndSplineSet
EndChar

StartChar: uni1990
Encoding: 6544 6544 151
Width: 2022
Flags: MW
HStem: -740 185<1247 1247> -20 70<1294 1310> 740 230<1230.5 1353>
VStem: 125 250<390 525 390 606> 1275 170<-88.5 -84 -84 50 -88.5 50> 1455 220<-450.5 -363> 1480 250<405 560>
LayerCount: 2
Fore
SplineSet
824 -349 m 0xe8
 824 -341 831 -333 842 -333 c 2
 947 -333 l 2
 956 -333 964 -341 965 -350 c 0
 975 -441 1053 -557 1247 -555 c 0
 1361 -554 1455 -491 1455 -410 c 0xec
 1455 -316 1397 -265 1294 -265 c 0
 1284 -265 1275 -258 1275 -247 c 2
 1275 50 l 1
 1445 50 l 1
 1445 -84 l 2xe8
 1445 -93 1455 -99 1465 -101 c 0
 1596 -131 1675 -242 1675 -395 c 0xec
 1675 -617 1462 -740 1247 -740 c 0
 1018 -740 824 -594 824 -349 c 0xe8
580 210 m 0
 686 210 752 313 805 475 c 0
 881 709 974 970 1295 970 c 0
 1562 970 1730 772 1730 480 c 0
 1730 138 1555 -19 1310 -20 c 0
 1278 -20 1191 -15 1160 -2 c 0
 1150 2 1147 14 1152 23 c 2
 1248 207 l 2
 1252 215 1264 215 1275 213 c 0
 1284 211 1299 210 1310 210 c 0
 1420 210 1480 330 1480 480 c 0
 1480 640 1411 740 1295 740 c 0
 1166 740 1095 606 1055 475 c 0
 970 200 858 -20 580 -20 c 0
 303 -20 125 168 125 470 c 0
 125 742 243 920 455 970 c 0
 468 973 476 973 480 965 c 2
 575 770 l 2
 580 762 579 749 565 745 c 0
 418 700 375 580 375 470 c 0xfa
 375 310 444 210 580 210 c 0
EndSplineSet
EndChar

StartChar: uni19B5
Encoding: 6581 6581 152
Width: 1289
Flags: MW
HStem: -20 100<1034 1075 1034 1096> -20 125<397 467.5 397 477> 845 125<501 724>
VStem: 121 125<415 415> 876 115<130.5 194.5 130.5 200.5> 941 120<467 615>
LayerCount: 2
Fore
SplineSet
876 140 m 0x78
 876 261 941 404 941 530 c 0
 941 700 842 845 606 845 c 0
 396 845 246 668 246 415 c 0
 246 246 338 105 456 105 c 0
 479 105 498 112 521 123 c 0
 530 127 544 125 548 117 c 2
 594 38 l 2
 599 29 596 18 586 13 c 0
 542 -9 498 -20 456 -20 c 0
 254 -20 123 170 121 415 c 0
 119 711 291 970 606 970 c 0x74
 933 970 1061 762 1061 530 c 0
 1061 389 991 239 991 150 c 0
 991 111 1017 80 1051 80 c 0xb8
 1099 80 1143 137 1151 185 c 0
 1153 194 1168 196 1175 190 c 2
 1215 151 l 2
 1221 146 1219 135 1216 125 c 0
 1197 49 1141 -20 1051 -20 c 0
 945 -20 876 52 876 140 c 0x78
EndSplineSet
EndChar

StartChar: uni19C2
Encoding: 6594 6594 153
Width: 1275
Flags: MW
HStem: -735 120<807 873 807 903.5> -400 120<807 855.5 769.5 872.5> -20 125<311 375 311 395> 155 125<641 671.5> 845 125<485 778.5>
VStem: 120 125<320.5 506.5 320.5 538> 614 121<-537.5 -472.5 -537.5 -435> 720 125<80 116> 1020 125<120 329>
LayerCount: 2
Fore
SplineSet
1145 200 m 0xfe80
 1145 17 1134 -243 1074 -505 c 0
 1042 -644 968 -735 839 -735 c 0
 710 -735 614 -643 614 -505 c 0xfe80
 614 -365 710 -280 829 -280 c 0
 882 -280 935 -313 978 -356 c 1
 1013 -150 1020 40 1020 200 c 0
 1020 458 952 845 605 845 c 0
 365 845 245 608 245 405 c 0
 245 236 267 105 355 105 c 0
 395 105 437 145 483 186 c 0
 534 232 590 280 655 280 c 0
 768 280 845 202 845 100 c 0
 845 12 772 -51 731 -74 c 0
 722 -79 713 -75 707 -66 c 2
 660 12 l 2
 654 21 661 30 669 35 c 0
 686 45 720 60 720 100 c 0
 720 132 688 155 655 155 c 0xfd80
 627 155 593 117 549 77 c 0
 498 30 435 -20 355 -20 c 0
 183 -20 120 156 120 405 c 0
 120 671 290 970 605 970 c 0
 1041 970 1145 523 1145 200 c 0xfe80
840 -615 m 0
 906 -615 950 -570 950 -505 c 0
 950 -438 905 -400 840 -400 c 0
 774 -400 735 -440 735 -505 c 0
 735 -570 774 -615 840 -615 c 0
EndSplineSet
EndChar

StartChar: uni1996
Encoding: 6550 6550 154
Width: 1715
Flags: MW
HStem: -740 105 -20 50<1255 1260> -20 125<442 618 442 659 1254.5 1260> 845 125<1105.5 1283>
VStem: 120 125<350 550 350 581> 860 125<-488 -353 -488 -333.5> 1255 110<-124 30> 1470 125<380 580>
LayerCount: 2
Fore
SplineSet
1580 -445 m 0xdf
 1570 -611 1426 -740 1225 -740 c 0
 1010 -740 860 -587 860 -435 c 0
 860 -232 1049 -121 1235 -141 c 0
 1245 -142 1255 -133 1255 -124 c 2
 1255 30 l 1
 1365 30 l 1
 1365 -227 l 2
 1365 -238 1356 -246 1346 -245 c 0
 1157 -225 985 -271 985 -435 c 0
 985 -541 1091 -633 1230 -635 c 0
 1413 -638 1495 -535 1505 -445 c 0
 1506 -438 1512 -428 1523 -428 c 2
 1563 -428 l 2
 1572 -428 1581 -436 1580 -445 c 0xdf
530 105 m 0xbf
 706 105 762 258 795 475 c 0
 831 709 904 970 1205 970 c 0
 1462 970 1595 742 1595 480 c 0
 1595 208 1505 -19 1260 -20 c 0
 1228 -20 1191 -15 1160 -2 c 0
 1150 2 1147 14 1152 23 c 2xdf
 1198 102 l 2
 1202 110 1214 110 1225 108 c 0
 1234 106 1249 105 1260 105 c 0xbf
 1420 105 1470 280 1470 480 c 0
 1470 680 1361 845 1205 845 c 0
 1006 845 952 659 925 475 c 0
 884 198 788 -20 530 -20 c 0xdf
 253 -20 120 168 120 470 c 0
 120 692 203 920 415 970 c 0
 428 973 436 973 440 965 c 2
 485 885 l 2
 490 877 489 863 475 860 c 0
 298 815 245 630 245 470 c 0
 245 230 354 105 530 105 c 0xbf
EndSplineSet
EndChar

StartChar: uni19BD
Encoding: 6589 6589 155
Width: 1700
Flags: MW
HStem: -740 230<1040.5 1129.5 1040.5 1209> -20 230<437 573.5 437 643.5> 740 230<437 573.5>
VStem: 50 250<405 540.5 405 606> 680 251<-305 93 93 93> 725 250<403.5 539> 1245 250<-305 930>
LayerCount: 2
Fore
SplineSet
1495 930 m 2xea
 1495 -305 l 2
 1495 -543 1333 -740 1085 -740 c 0
 827 -740 680 -543 680 -305 c 2
 680 93 l 1
 931 384 l 1
 931 -305 l 2
 931 -437 996 -510 1085 -510 c 0
 1174 -510 1245 -436 1245 -305 c 2
 1245 930 l 2
 1245 940 1252 950 1263 950 c 2
 1478 950 l 2
 1487 950 1495 940 1495 930 c 2xea
505 970 m 0xf6
 772 970 975 753 975 470 c 0
 975 207 782 -20 505 -20 c 0
 218 -20 50 208 50 470 c 0
 50 742 228 970 505 970 c 0xf6
505 740 m 0
 369 740 300 611 300 470 c 0
 300 340 369 210 505 210 c 0
 642 210 725 337 725 470 c 0xfa
 725 608 642 740 505 740 c 0
EndSplineSet
EndChar

StartChar: uni19C5
Encoding: 6597 6597 156
Width: 1835
Flags: MW
HStem: -735 120<1387 1453 1387 1484.5> -400 120<1387 1453> -20 125<445 450.5 365 461 1354.5 1360> 845 125<462 628.5 1176.5 1343>
VStem: 110 125<410 580 410 611> 860 85<565 594.5 565 655.5> 1195 120<-537.5 -472.5 -537.5 -434.5> 1530 125<-505 -472.5 -505 234 234 234> 1570 125<408 580>
LayerCount: 2
Fore
SplineSet
945 570 m 0xff
 945 560 937 550 928 550 c 2
 878 550 l 2
 867 550 860 560 860 570 c 0
 860 619 871 675 881 712 c 0
 922 866 1083 970 1260 970 c 0
 1527 970 1695 742 1695 480 c 0xfe80
 1695 268 1605 -19 1360 -20 c 0
 1328 -20 1291 -15 1260 -2 c 0
 1250 2 1247 14 1252 23 c 2
 1298 102 l 2
 1302 110 1314 110 1325 108 c 0
 1334 106 1349 105 1360 105 c 0
 1520 105 1570 336 1570 480 c 0
 1570 680 1426 845 1260 845 c 0
 1093 845 945 741 945 570 c 0xff
860 570 m 0
 860 741 712 845 545 845 c 0
 379 845 235 680 235 480 c 0
 235 340 285 105 445 105 c 0
 456 105 471 106 480 108 c 0
 491 110 503 110 507 102 c 2
 553 23 l 2
 558 14 555 2 545 -2 c 0
 514 -15 477 -20 445 -20 c 0
 200 -19 110 268 110 480 c 0
 110 742 278 970 545 970 c 0
 722 970 883 866 924 712 c 0
 934 675 945 619 945 570 c 0
 945 560 938 550 927 550 c 2
 877 550 l 2
 868 550 860 560 860 570 c 0
1655 -505 m 1
 1530 -505 l 1
 1530 -440 1486 -400 1420 -400 c 0
 1354 -400 1315 -440 1315 -505 c 0
 1315 -570 1354 -615 1420 -615 c 0
 1486 -615 1530 -570 1530 -505 c 2
 1530 234 l 1
 1655 470 l 1
 1655 -505 l 2
 1655 -642 1549 -735 1420 -735 c 0
 1291 -735 1195 -643 1195 -505 c 0
 1195 -364 1290 -280 1410 -280 c 0
 1524 -280 1635 -430 1655 -505 c 1
EndSplineSet
EndChar

StartChar: uni19BE
Encoding: 6590 6590 157
Width: 1637
Flags: MW
HStem: -20 220<256 256 866 866> 740 230<523.5 598.5> 1350 220<1417 1487>
VStem: 201 250<488.5 637 488.5 706.5> 671 250<488.5 637> 1108 215 1600 162
LayerCount: 2
Fore
SplineSet
866 -20 m 0
 537 -20 201 342 201 600 c 0
 201 813 320 970 561 970 c 0
 792 970 921 813 921 600 c 0
 921 342 585 -22 256 -20 c 0
 121 -19 -35 75 -59 200 c 0
 -60 209 -62 218 -53 224 c 1
 55 344 l 1
 62 348 77 346 81 335 c 0
 113 242 172 201 256 200 c 0
 448 198 671 372 671 605 c 0
 671 669 636 740 561 740 c 0
 486 740 451 669 451 605 c 0
 451 372 674 199 866 200 c 0
 1123 202 1129 485 1090 830 c 0
 1036 1310 1173 1570 1450 1570 c 0
 1697 1570 1800 1330 1750 1080 c 0
 1748 1070 1742 1060 1733 1060 c 2
 1618 1061 l 2
 1607 1061 1600 1070 1600 1080 c 0
 1600 1269 1524 1350 1450 1350 c 0
 1384 1350 1282 1243 1340 830 c 0
 1402 386 1306 -20 866 -20 c 0
EndSplineSet
EndChar

StartChar: uni1989
Encoding: 6537 6537 158
Width: 1821
Flags: MW
HStem: -20 230<459.5 553.5 459.5 623 1172.5 1339> 740 230<454.5 551 1236 1256>
VStem: 715 250<385 555.5> 1491 250<390 535>
LayerCount: 2
Fore
SplineSet
1491 470 m 0
 1491 600 1416 740 1256 740 c 0
 1216 740 1167 730 1141 715 c 0
 1132 710 1118 713 1114 721 c 2
 1018 885 l 2
 1013 894 1018 904 1026 910 c 0
 1087 959 1199 970 1256 970 c 0
 1551 969 1741 712 1741 470 c 0
 1741 188 1543 -20 1266 -20 c 0
 1019 -20 887 144 816 308 c 1
 925 616 l 1
 930 429 1079 210 1266 210 c 0
 1412 210 1491 310 1491 470 c 0
495 -20 m 0
 348 -20 222 38 115 175 c 0
 107 185 112 198 121 207 c 2
 250 331 l 2
 259 340 273 334 280 325 c 0
 351 238 424 210 495 210 c 0
 612 210 715 299 715 471 c 0
 715 640 617 740 485 740 c 0
 424 740 341 712 280 635 c 0
 272 625 260 621 250 629 c 2
 111 743 l 2
 101 751 97 765 105 775 c 0
 212 912 338 970 485 970 c 0
 750 970 965 759 965 471 c 0
 965 167 751 -20 495 -20 c 0
EndSplineSet
EndChar

StartChar: uni19C1
Encoding: 6593 6593 159
Width: 1185
Flags: MW
HStem: -735 120<727 793 727 824.5> -400 120<727 793> -20 125<469.5 680.5 469.5 723.5> 845 125<469.5 681>
VStem: 110 125<350 590.5 350 616> 535 120<-537.5 -472.5 -537.5 -434.5> 870 125<-505 -472.5 -505 234 234 234> 910 125<355 590.5>
LayerCount: 2
Fore
SplineSet
995 -505 m 1xfe
 870 -505 l 1
 870 -440 826 -400 760 -400 c 0
 694 -400 655 -440 655 -505 c 0
 655 -570 694 -615 760 -615 c 0
 826 -615 870 -570 870 -505 c 2
 870 234 l 1
 995 470 l 1
 995 -505 l 2
 995 -642 889 -735 760 -735 c 0
 631 -735 535 -643 535 -505 c 0
 535 -364 630 -280 750 -280 c 0
 864 -280 975 -430 995 -505 c 1xfe
575 970 m 0xfd
 862 970 1035 773 1035 470 c 0
 1035 187 872 -20 575 -20 c 0
 268 -20 110 188 110 470 c 0
 110 762 278 970 575 970 c 0xfd
575 845 m 0
 364 845 235 711 235 470 c 0
 235 230 364 105 575 105 c 0
 786 105 910 240 910 470 c 0xfe
 910 711 787 845 575 845 c 0
EndSplineSet
EndChar

StartChar: uni19C7
Encoding: 6599 6599 160
Width: 1210
Flags: MW
HStem: -735 120<762 828 762 859.5> -400 120<762 828> -20 125<473 707 473 729>
VStem: 110 125<396.5 590.5 396.5 608.5> 570 120<-537.5 -472.5 -537.5 -434.5> 905 125<-505 -472.5 -505 234 234 234> 945 125<396.5 590.5>
LayerCount: 2
Fore
SplineSet
1030 -505 m 1xfc
 905 -505 l 1
 905 -440 861 -400 795 -400 c 0
 729 -400 690 -440 690 -505 c 0
 690 -570 729 -615 795 -615 c 0
 861 -615 905 -570 905 -505 c 2
 905 234 l 1
 1030 470 l 1
 1030 -505 l 2
 1030 -642 924 -735 795 -735 c 0
 666 -735 570 -643 570 -505 c 0
 570 -364 665 -280 785 -280 c 0
 899 -280 1010 -430 1030 -505 c 1xfc
590 -20 m 0
 312 -20 110 185 110 500 c 0
 110 717 198 873 335 970 c 0
 345 977 359 974 367 964 c 2
 416 900 l 2
 424 890 420 876 410 870 c 0
 313 809 235 681 235 500 c 0
 235 293 356 105 590 105 c 0
 824 105 945 293 945 500 c 0xfc
 945 681 872 804 775 865 c 0
 765 871 761 885 769 895 c 1
 813 964 l 1
 821 974 835 977 845 970 c 0
 982 873 1070 717 1070 500 c 0xfa
 1070 185 868 -20 590 -20 c 0
EndSplineSet
EndChar

StartChar: uni19A2
Encoding: 6562 6562 161
Width: 1180
Flags: MW
HStem: -20 230<550.5 709.5 550.5 769>
VStem: 40 250<404 570.5 404 613.5> 970 250<404 570.5>
LayerCount: 2
Fore
SplineSet
630 210 m 0
 789 210 970 298 970 510 c 0
 970 631 912 714 825 785 c 0
 816 793 811 805 819 815 c 2
 943 964 l 2
 951 974 964 977 975 970 c 0
 1112 883 1220 717 1220 510 c 0
 1220 195 908 -20 630 -20 c 0
 352 -20 40 195 40 510 c 0
 40 717 148 883 285 970 c 0
 296 977 309 974 317 964 c 2
 441 815 l 2
 449 805 444 793 435 785 c 0
 348 714 290 631 290 510 c 0
 290 298 471 210 630 210 c 0
EndSplineSet
EndChar

StartChar: uni1998
Encoding: 6552 6552 162
Width: 1851
Flags: MW
HStem: -20 230<459.5 553.5 459.5 623 1306 1381> 740 230<454.5 551 1201.5 1354>
VStem: 921 44<541 541> 1521 250<405 550>
LayerCount: 2
Fore
SplineSet
1286 740 m 0
 1117 740 981 655 921 541 c 1
 821 755 l 1
 903 864 1089 970 1286 970 c 0
 1563 970 1771 762 1771 480 c 0
 1771 238 1601 -20 1326 -20 c 0
 1249 -20 1132 6 1081 35 c 0
 1072 40 1068 51 1073 60 c 2
 1164 229 l 2
 1168 237 1183 239 1191 235 c 0
 1227 215 1286 210 1326 210 c 0
 1436 210 1521 330 1521 480 c 0
 1521 620 1422 740 1286 740 c 0
495 -20 m 0
 348 -20 222 38 115 175 c 0
 107 185 112 198 121 207 c 2
 250 331 l 2
 259 340 273 334 280 325 c 0
 351 238 424 210 495 210 c 0
 612 210 715 299 715 471 c 0
 715 640 617 740 485 740 c 0
 424 740 341 712 280 635 c 0
 272 625 260 621 250 629 c 2
 111 743 l 2
 101 751 97 765 105 775 c 0
 212 912 338 970 485 970 c 0
 750 970 965 759 965 471 c 0
 965 167 751 -20 495 -20 c 0
EndSplineSet
EndChar

StartChar: uni19BB
Encoding: 6587 6587 163
Width: 1701
Flags: MW
HStem: -740 230<1035.5 1124.5 1035.5 1204> -20 230<459.5 553.5 459.5 623> 740 230<454.5 551>
VStem: 675 251<-305 93 93 93> 715 250<385 555.5> 1240 250<-305 930>
LayerCount: 2
Fore
SplineSet
1490 930 m 2xf4
 1490 -305 l 2
 1490 -543 1328 -740 1080 -740 c 0
 822 -740 675 -543 675 -305 c 2
 675 93 l 1
 926 384 l 1
 926 -305 l 2
 926 -437 991 -510 1080 -510 c 0
 1169 -510 1240 -436 1240 -305 c 2
 1240 930 l 2
 1240 940 1247 950 1258 950 c 2
 1473 950 l 2
 1482 950 1490 940 1490 930 c 2xf4
495 -20 m 0
 348 -20 222 38 115 175 c 0
 107 185 111 199 121 207 c 1
 250 331 l 1
 260 339 273 334 280 325 c 0
 351 238 424 210 495 210 c 0
 612 210 715 299 715 471 c 0xf4
 715 640 617 740 485 740 c 0
 424 740 341 712 280 635 c 0
 272 625 260 621 250 629 c 2
 111 743 l 2
 101 751 97 765 105 775 c 0
 212 912 338 970 485 970 c 0
 750 970 965 759 965 471 c 0xec
 965 167 751 -20 495 -20 c 0
EndSplineSet
EndChar

StartChar: uni19B9
Encoding: 6585 6585 164
Width: 1145
Flags: MW
HStem: -20 230<542 688.5 542 778.5> 1340 230<537 683.5>
VStem: 100 250<545 985.5 545 1041> 875 250<550 985.5>
LayerCount: 2
Fore
SplineSet
541 905 m 1
 701 905 l 1
 701 1020 l 2
 701 1114 722 1246 864 1262 c 1
 798 1404 l 1
 635 1374 541 1212 541 1020 c 2
 541 905 l 1
615 1570 m 0
 932 1570 1125 1314 1125 770 c 0
 1125 234 942 -20 615 -20 c 0
 278 -20 100 238 100 770 c 0
 100 1312 288 1570 615 1570 c 0
615 1340 m 0
 459 1340 350 1201 350 770 c 0
 350 320 469 210 615 210 c 0
 762 210 875 330 875 770 c 0
 875 1201 752 1340 615 1340 c 0
975 600 m 1
 995 805 l 1
 931 908 769 970 615 970 c 0
 447 970 280 906 220 795 c 1
 245 600 l 1
 291 737 459 810 615 810 c 0
 762 810 934 745 975 600 c 1
EndSplineSet
EndChar

StartChar: uni19BF
Encoding: 6591 6591 165
Width: 1740
Flags: MW
HStem: -740 230<1195.5 1284.5 1195.5 1364> -20 230<542 688.5 542 778.5> 1340 230<537 683.5>
VStem: 100 250<545 985.5 545 1041> 875 211<550 770> 1400 250<-305 930>
LayerCount: 2
Fore
SplineSet
1650 930 m 2
 1650 -305 l 2
 1650 -543 1488 -740 1240 -740 c 0
 982 -740 835 -543 835 -305 c 2
 835 291 l 1
 1086 770 l 1
 1086 -305 l 2
 1086 -437 1151 -510 1240 -510 c 0
 1329 -510 1400 -436 1400 -305 c 2
 1400 930 l 2
 1400 940 1407 950 1418 950 c 2
 1633 950 l 2
 1642 950 1650 940 1650 930 c 2
541 905 m 1
 701 905 l 1
 701 1020 l 2
 701 1114 722 1246 864 1262 c 1
 798 1404 l 1
 635 1374 541 1212 541 1020 c 2
 541 905 l 1
615 1570 m 0
 932 1570 1125 1314 1125 770 c 0
 1125 234 942 -20 615 -20 c 0
 278 -20 100 238 100 770 c 0
 100 1312 288 1570 615 1570 c 0
615 1340 m 0
 459 1340 350 1201 350 770 c 0
 350 320 469 210 615 210 c 0
 762 210 875 330 875 770 c 0
 875 1201 752 1340 615 1340 c 0
975 600 m 1
 995 805 l 1
 931 908 769 970 615 970 c 0
 447 970 280 906 220 795 c 1
 245 600 l 1
 291 737 459 810 615 810 c 0
 762 810 934 745 975 600 c 1
EndSplineSet
EndChar

StartChar: uni19B6
Encoding: 6582 6582 166
Width: 2539
Flags: MW
HStem: -20 100<1034 1075 1034 1096 2284 2325> -20 125<397 467.5 397 477 1647 1717.5> 845 125<501 724 1751 1974>
VStem: 121 125<415 415> 876 115<130.5 194.5 130.5 200.5> 941 120<467 615> 1371 125<415 415> 2126 115<130.5 194.5 130.5 200.5> 2191 120<467 615>
LayerCount: 2
Fore
SplineSet
876 140 m 0x7a80
 876 261 941 404 941 530 c 0
 941 700 842 845 606 845 c 0
 396 845 246 668 246 415 c 0
 246 246 338 105 456 105 c 0
 479 105 498 112 521 123 c 0
 530 127 544 125 548 117 c 2
 594 38 l 2
 599 29 596 18 586 13 c 0
 542 -9 498 -20 456 -20 c 0
 254 -20 123 170 121 415 c 0
 119 711 291 970 606 970 c 0x7680
 933 970 1061 762 1061 530 c 0
 1061 389 991 239 991 150 c 0
 991 111 1017 80 1051 80 c 0xba80
 1099 80 1143 137 1151 185 c 0
 1153 194 1168 196 1175 190 c 2
 1215 151 l 2
 1221 146 1219 135 1216 125 c 0
 1197 49 1141 -20 1051 -20 c 0
 945 -20 876 52 876 140 c 0x7a80
2126 140 m 0
 2126 261 2191 404 2191 530 c 0
 2191 700 2092 845 1856 845 c 0
 1646 845 1496 668 1496 415 c 0
 1496 246 1588 105 1706 105 c 0
 1729 105 1748 112 1771 123 c 0
 1780 127 1794 125 1798 117 c 2
 1844 38 l 2
 1849 29 1846 18 1836 13 c 0
 1792 -9 1748 -20 1706 -20 c 0x7680
 1504 -20 1373 170 1371 415 c 0
 1369 711 1541 970 1856 970 c 0
 2183 970 2311 762 2311 530 c 0xb7
 2311 389 2241 239 2241 150 c 0
 2241 111 2267 80 2301 80 c 0
 2349 80 2393 137 2401 185 c 0
 2403 194 2418 196 2425 190 c 2
 2465 151 l 2
 2471 146 2469 135 2466 125 c 0x77
 2447 49 2391 -20 2301 -20 c 0x7a80
 2195 -20 2126 52 2126 140 c 0
EndSplineSet
EndChar

StartChar: uni1994
Encoding: 6548 6548 167
Width: 1457
Flags: MW
HStem: -20 230<550.5 768.5 550.5 860> 1350 220<1227 1297>
VStem: 40 250<404 570.5 404 613.5> 913 220 1410 162
LayerCount: 2
Fore
SplineSet
630 -20 m 0
 352 -20 40 195 40 510 c 0
 40 717 148 883 285 970 c 0
 296 977 309 974 317 964 c 2
 441 815 l 2
 449 805 444 793 435 785 c 0
 348 714 290 631 290 510 c 0
 290 298 471 210 630 210 c 0
 907 210 939 485 900 830 c 0
 846 1310 983 1570 1260 1570 c 0
 1507 1570 1610 1330 1560 1080 c 0
 1558 1070 1552 1060 1543 1060 c 2
 1428 1061 l 2
 1417 1061 1410 1070 1410 1080 c 0
 1410 1269 1334 1350 1260 1350 c 0
 1194 1350 1092 1243 1150 830 c 0
 1212 386 1090 -20 630 -20 c 0
EndSplineSet
EndChar

StartChar: uni198A
Encoding: 6538 6538 168
Width: 1447
Flags: MW
HStem: -20 210 410 134<460 471> 760 210<380.5 465> 1350 220<1156 1226>
VStem: 5 250<256 322 256 351 636.5 697> 818 244 840 252 1339 162
LayerCount: 2
Fore
SplineSet
507 408 m 0xfd
 326 408 5 499 5 690 c 0
 5 875 153 970 430 970 c 0
 521 970 599 948 630 925 c 0
 638 919 643 910 638 901 c 1
 592 742 l 1
 587 734 575 730 565 735 c 0
 548 744 500 760 430 760 c 0
 331 760 255 724 255 670 c 0
 255 603 331 553 507 553 c 0
 517 553 527 546 527 535 c 2
 527 425 l 2
 527 416 517 408 507 408 c 0xfd
525 190 m 0
 812 192 868 485 829 830 c 0
 775 1310 912 1570 1189 1570 c 0
 1436 1570 1539 1330 1489 1080 c 0
 1487 1070 1481 1060 1472 1060 c 2
 1357 1061 l 2
 1346 1061 1339 1070 1339 1080 c 0
 1339 1269 1263 1350 1189 1350 c 0xfd
 1123 1350 1021 1243 1079 830 c 0xfb
 1141 386 985 -20 545 -20 c 0
 180 -20 5 72 5 270 c 0
 5 432 259 544 395 544 c 0
 414 544 448 544 460 544 c 0
 483 544 505 472 505 450 c 0
 505 428 482 410 460 410 c 0
 325 411 255 354 255 290 c 0
 255 222 360 189 525 190 c 0
EndSplineSet
EndChar

StartChar: uni198E
Encoding: 6542 6542 169
Width: 1811
Flags: MW
HStem: -20 230<437 573.5 437 643.5 1256 1331> 740 230<437 573.5 1151.5 1304>
VStem: 50 250<405 540.5 405 606> 725 250<403.5 539> 1461 250<405 550>
LayerCount: 2
Fore
SplineSet
505 970 m 0
 772 970 975 753 975 470 c 0
 975 207 782 -20 505 -20 c 0
 218 -20 50 208 50 470 c 0
 50 742 228 970 505 970 c 0
505 740 m 0
 369 740 300 611 300 470 c 0
 300 340 369 210 505 210 c 0
 642 210 725 337 725 470 c 0
 725 608 642 740 505 740 c 0
1236 740 m 0
 1067 740 951 655 891 541 c 1
 791 755 l 1
 873 864 1039 970 1236 970 c 0
 1533 970 1711 762 1711 480 c 0
 1711 238 1571 -20 1276 -20 c 0
 1199 -20 1082 6 1031 35 c 0
 1022 40 1018 51 1023 60 c 2
 1114 229 l 2
 1118 237 1133 239 1141 235 c 0
 1177 215 1236 210 1276 210 c 0
 1386 210 1461 330 1461 480 c 0
 1461 620 1372 740 1236 740 c 0
EndSplineSet
EndChar

StartChar: uni1988
Encoding: 6536 6536 170
Width: 1145
Flags: MW
HStem: -20 125<457.5 646 457.5 679.5> 428 85<482 487 482 487> 845 125<457.5 646>
VStem: 130 125<224 327 224 362 623 726> 910 125<378.5 581.5>
LayerCount: 2
Fore
SplineSet
482 514 m 1
 482 429 l 1
 387 429 255 364 255 290 c 0
 255 158 370 105 545 105 c 0
 747 105 910 277 910 480 c 0
 910 683 747 845 545 845 c 0
 370 845 255 792 255 660 c 0
 255 586 387 512 482 513 c 0
 492 513 502 506 502 495 c 2
 502 445 l 2
 502 436 492 428 482 428 c 0
 347 428 130 486 130 670 c 0
 130 868 300 970 545 970 c 0
 814 970 1035 763 1035 475 c 0
 1035 187 814 -20 545 -20 c 0
 300 -20 130 82 130 280 c 0
 130 444 348 514 482 514 c 1
EndSplineSet
EndChar

StartChar: uni1992
Encoding: 6546 6546 171
Width: 1290
Flags: MW
HStem: -20 125<374 492 374 537 798 916> 845 125<518.5 761.5>
VStem: 110 125<307.5 526 307.5 559> 606 86<265 332> 1055 125<307.5 526>
LayerCount: 2
Fore
SplineSet
606 332 m 1
 691 332 l 1
 691 237 746 105 850 105 c 0
 982 105 1055 220 1055 395 c 0
 1055 657 883 845 640 845 c 0
 397 845 235 657 235 395 c 0
 235 220 308 105 440 105 c 0
 544 105 608 237 607 332 c 0
 607 342 614 352 625 352 c 2
 675 352 l 2
 684 352 692 342 692 332 c 0
 692 197 644 -20 430 -20 c 0
 232 -20 110 150 110 395 c 0
 110 723 317 970 645 970 c 0
 973 970 1180 724 1180 395 c 0
 1180 150 1058 -20 860 -20 c 0
 666 -20 606 198 606 332 c 1
EndSplineSet
EndChar

StartChar: uni1999
Encoding: 6553 6553 172
Width: 1260
Flags: MW
HStem: -740 105<512 723.5 512 768.5> -20 110<500.5 739.5 500.5 759> 360 100<559.5 713.5>
VStem: 110 125<396.5 590.5 396.5 613.5> 1005 125<396.5 590.5> 1010 115<-285 12.5>
LayerCount: 2
Fore
SplineSet
620 90 m 0xf8
 859 90 1005 283 1005 510 c 0
 1005 671 932 784 845 865 c 0
 836 873 832 884 839 895 c 1
 893 964 l 1
 900 975 915 978 925 970 c 0
 1052 863 1130 717 1130 510 c 0
 1130 195 898 -20 620 -20 c 0
 342 -20 110 195 110 510 c 0
 110 717 188 863 315 970 c 0
 325 978 340 975 347 964 c 1
 401 895 l 1
 408 884 404 873 395 865 c 0
 308 784 235 671 235 510 c 0
 235 283 381 90 620 90 c 0xf8
615 -740 m 0
 378 -740 209 -584 169 -472 c 0
 165 -462 173 -450 183 -446 c 2
 215 -435 l 2
 223 -432 235 -440 240 -450 c 0
 285 -540 409 -635 615 -635 c 0
 832 -635 1010 -430 1010 -140 c 0
 1010 165 812 360 615 360 c 0
 504 360 390 296 317 193 c 1
 232 271 l 1
 325 391 460 460 615 460 c 0
 902 460 1125 223 1125 -140 c 0xf4
 1125 -503 922 -740 615 -740 c 0
EndSplineSet
EndChar

StartChar: uni19C4
Encoding: 6596 6596 173
Width: 1270
Flags: MW
HStem: -740 210 -290 166<307.5 372.5> -20 210<550.5 709.5 550.5 769> 360 210<569.5 723.5>
VStem: 40 190<-428 -362 -428 -320.5> 40 250<404 570.5 404 613.5> 445 175<-408.5 -362> 970 250<404 570.5> 980 240<-258 27.5>
LayerCount: 2
Fore
SplineSet
230 -395 m 0xfa80
 230 -461 275 -505 340 -505 c 0
 407 -505 445 -460 445 -395 c 0
 445 -329 405 -290 340 -290 c 0
 275 -290 230 -329 230 -395 c 0xfa80
630 190 m 0xf7
 789 190 970 298 970 510 c 0
 970 631 912 714 825 785 c 0
 816 793 811 805 819 815 c 2
 943 964 l 2
 951 974 964 977 975 970 c 0
 1112 883 1220 717 1220 510 c 0
 1220 195 908 -20 630 -20 c 0
 352 -20 40 195 40 510 c 0
 40 717 148 883 285 970 c 0
 296 977 309 974 317 964 c 2
 441 815 l 2
 449 805 444 793 435 785 c 0
 348 714 290 631 290 510 c 0
 290 298 471 190 630 190 c 0xf7
580 -740 m 0xfa80
 228 -737 40 -591 40 -400 c 0
 40 -241 172 -124 340 -124 c 0
 510 -124 620 -240 620 -380 c 0
 620 -437 575 -500 527 -530 c 1
 550 -530 l 2
 801 -530 980 -366 980 -150 c 0
 980 205 822 360 625 360 c 0
 514 360 400 316 327 213 c 1
 242 401 l 1
 335 521 470 570 625 570 c 0
 912 570 1220 343 1220 -150 c 0
 1220 -535 909 -743 580 -740 c 0xfa80
EndSplineSet
EndChar

StartChar: uni1983
Encoding: 6531 6531 174
Width: 1254
Flags: MW
HStem: -740 105<478 696.5 478 736.5> -20 110<453 647.5 453 692> 360 110<455.5 672.5> 845 125<513.5 710>
VStem: 124 110<176 259 176 297> 1009 125<-300 -9.5 369 599.5>
LayerCount: 2
Fore
SplineSet
48 -472 m 0
 44 -462 52 -450 62 -446 c 2
 94 -435 l 2
 102 -432 113 -442 119 -450 c 0
 220 -583 383 -635 573 -635 c 0
 820 -635 1009 -430 1009 -170 c 0
 1009 151 821 360 524 360 c 0
 387 360 234 303 234 215 c 0
 234 137 387 90 519 90 c 0
 776 90 1009 248 1009 490 c 0
 1009 709 826 845 594 845 c 0
 433 845 290 772 229 665 c 0
 223 654 209 651 199 659 c 2
 130 713 l 2
 120 721 117 734 124 745 c 0
 211 892 387 970 594 970 c 0
 929 970 1134 748 1134 490 c 0
 1134 186 865 -20 519 -20 c 0
 325 -20 124 72 124 215 c 0
 124 379 325 470 524 470 c 0
 891 470 1134 233 1134 -170 c 0
 1134 -503 900 -740 573 -740 c 0
 351 -740 126 -636 48 -472 c 0
EndSplineSet
EndChar

StartChar: uni1986
Encoding: 6534 6534 175
Width: 1240
Flags: MW
HStem: -24 21G 740 230<555.5 711> 1400 170<579 725.5>
VStem: 90 250<389.5 531 389.5 597.5> 145 250<1037 1160 1037 1196.5> 920 250<393.5 538.5>
LayerCount: 2
Fore
SplineSet
665 1400 m 0xec
 493 1400 395 1230 395 1090 c 0
 395 984 406 886 454 757 c 1
 217 644 l 1
 168 793 145 924 145 1090 c 0
 145 1303 278 1570 665 1570 c 0
 892 1570 1051 1404 1091 1282 c 0
 1094 1272 1087 1260 1077 1256 c 1
 970 1225 l 2
 962 1222 949 1230 945 1240 c 0
 900 1340 786 1400 665 1400 c 0xec
630 970 m 0
 944 970 1170 766 1170 450 c 0
 1170 219 1039 61 860 -20 c 0
 850 -24 839 -23 834 -14 c 2
 746 164 l 2
 741 172 745 188 755 190 c 0
 850 208 920 337 920 450 c 0
 920 627 792 740 630 740 c 0
 481 740 340 622 340 440 c 0
 340 339 398 221 485 180 c 0
 497 174 499 160 491 150 c 1
 397 -14 l 1
 389 -24 375 -28 365 -20 c 0
 218 87 90 233 90 440 c 0xf4
 90 755 322 970 630 970 c 0
EndSplineSet
EndChar

StartChar: uni199D
Encoding: 6557 6557 176
Width: 1825
Flags: MW
HStem: -20 230<435 531> 740 230<492 622 386.5 643.5 1262.5 1393> 1400 170<579 725.5>
VStem: 70 250<410 550 410 601> 145 250<1037 1160 1037 1196.5> 860 165<440 530.5> 1565 250<408 550>
LayerCount: 2
Fore
SplineSet
665 1400 m 0xee
 493 1400 395 1230 395 1090 c 0
 395 984 406 886 454 757 c 1
 217 644 l 1
 168 793 145 924 145 1090 c 0
 145 1303 278 1570 665 1570 c 0
 892 1570 1051 1404 1091 1282 c 0
 1094 1272 1087 1260 1077 1256 c 1
 970 1225 l 2
 962 1222 949 1230 945 1240 c 0
 900 1340 786 1400 665 1400 c 0xee
860 445 m 0
 860 616 732 740 555 740 c 0
 429 740 320 620 320 480 c 0
 320 340 385 210 485 210 c 0
 496 210 511 211 520 213 c 0
 531 215 543 215 547 207 c 2
 653 23 l 2
 658 14 655 2 645 -2 c 0
 614 -15 547 -20 515 -20 c 0
 220 -19 70 268 70 480 c 0xf6
 70 722 228 970 545 970 c 0
 699 970 861 891 942 768 c 1
 1023 891 1185 970 1340 970 c 0
 1657 970 1815 722 1815 480 c 0
 1815 268 1675 -19 1370 -20 c 0
 1338 -20 1271 -15 1240 -2 c 0
 1230 2 1227 14 1232 23 c 2
 1338 207 l 2
 1342 215 1354 215 1365 213 c 0
 1374 211 1389 210 1400 210 c 0
 1500 210 1565 336 1565 480 c 0
 1565 620 1456 740 1330 740 c 0
 1153 740 1025 616 1025 445 c 0
 1025 435 1019 425 1009 425 c 2
 876 425 l 2
 868 425 860 435 860 445 c 0
EndSplineSet
EndChar

StartChar: uni19B3
Encoding: 6579 6579 177
Width: 1186
Flags: MW
HStem: -740 95<523 719 523 734.5> -20 125<527 688.5 513.5 733> 845 125<499.5 676>
VStem: 951 125<344 594.5>
LayerCount: 2
Fore
SplineSet
616 -645 m 0
 822 -645 936 -540 971 -290 c 0
 973 -279 988 -272 996 -275 c 2
 1028 -286 l 2
 1038 -290 1043 -302 1042 -312 c 0
 1012 -584 853 -740 616 -740 c 0
 328 -740 177 -550 159 -250 c 0
 147 -48 135 144 130 250 c 0
 129 265 146 269 153 263 c 0
 264 169 427 105 600 105 c 0
 777 105 951 218 951 470 c 0
 951 719 782 845 570 845 c 0
 429 845 301 792 220 705 c 0
 212 696 200 691 190 699 c 1
 121 743 l 1
 111 751 107 765 115 775 c 0
 222 902 383 970 570 970 c 0
 875 970 1076 758 1076 470 c 0
 1076 166 866 -20 600 -20 c 0
 454 -20 354 18 283 57 c 0
 276 61 264 56 265 48 c 0
 270 -13 270 -120 284 -250 c 0
 310 -496 430 -645 616 -645 c 0
EndSplineSet
EndChar

StartChar: uni1993
Encoding: 6547 6547 178
Width: 1238
Flags: MW
HStem: -740 200<554 685.5 554 775.5> 25 230<585 675> 740 230<561 721>
VStem: 132 250<252.5 258 258 335 252.5 568.5> 907 250<-360 -199.5>
LayerCount: 2
Fore
SplineSet
617 -740 m 0
 400 -740 141 -584 101 -372 c 0
 99 -362 105 -350 115 -346 c 2
 222 -305 l 2
 230 -302 243 -309 247 -320 c 0
 302 -470 491 -540 617 -540 c 0
 754 -540 907 -450 907 -270 c 0
 907 -129 783 25 567 25 c 0
 400 25 268 -28 189 -85 c 0
 170 -99 132 -86 132 -60 c 2
 132 335 l 2
 132 802 373 970 657 970 c 0
 975 970 1123 762 1157 535 c 0
 1159 523 1153 515 1143 515 c 2
 925 515 l 2
 913 515 910 522 907 535 c 0
 883 657 785 740 657 740 c 0
 465 740 382 585 382 335 c 2
 382 258 l 2
 382 247 390 236 401 240 c 0
 440 253 543 255 627 255 c 0
 904 255 1157 33 1157 -270 c 0
 1157 -533 934 -740 617 -740 c 0
EndSplineSet
EndChar

StartChar: uni19C3
Encoding: 6595 6595 179
Width: 1198
Flags: MW
HStem: -740 115<561 670.5 561 710.5> -371 119<332.5 397.5> 25 125<495 670.5> 845 125<504 737>
VStem: 132 125<132.5 138 138 335> 135 120<-509 -443 -509 -412.5> 470 120<-494 -443> 952 125<-405 -194.5>
LayerCount: 2
Fore
SplineSet
255 -476 m 0xf7
 255 -542 300 -586 365 -586 c 0
 432 -586 470 -541 470 -476 c 0
 470 -410 430 -371 365 -371 c 0
 300 -371 255 -410 255 -476 c 0xf7
132 -31 m 2xfb
 132 335 l 2
 132 822 333 970 617 970 c 0
 935 970 1053 762 1077 535 c 0
 1078 523 1073 515 1063 515 c 2
 970 515 l 2
 958 515 954 522 952 535 c 0
 928 707 857 845 617 845 c 0
 391 845 257 737 257 335 c 2
 257 138 l 2
 257 127 265 116 276 120 c 0xf9
 325 138 443 150 547 150 c 0
 884 150 1077 -17 1077 -290 c 0
 1077 -583 859 -740 562 -740 c 0
 392 -740 135 -678 135 -477 c 0xf5
 135 -348 227 -252 365 -252 c 0
 505 -252 590 -348 590 -467 c 0
 590 -521 556 -574 512 -617 c 1
 531 -622 555 -625 567 -625 c 0
 774 -625 952 -520 952 -290 c 0
 952 -99 794 25 547 25 c 0
 390 25 241 1 154 -45 c 0
 145 -50 132 -42 132 -31 c 2xfb
EndSplineSet
EndChar

StartChar: uni198F
Encoding: 6543 6543 180
Width: 1195
Flags: MW
HStem: -740 105<492 718 492 751.5> -20 125<370.5 445 370.5 455.5> 397 85<409 492 415 492> 845 125<467.5 682.5>
VStem: 130 125<203 283.5 203 330.5 603 706> 940 125<-107 368.5>
LayerCount: 2
Fore
SplineSet
487 482 m 0
 497 482 507 474 507 465 c 2
 507 415 l 2
 507 404 497 397 487 397 c 0
 331 397 255 327 255 240 c 0
 255 166 331 105 410 105 c 0
 480 105 528 121 545 130 c 0
 555 135 567 131 572 123 c 2
 618 49 l 2
 623 40 618 31 610 25 c 0
 579 2 501 -20 410 -20 c 0
 263 -20 130 105 130 240 c 0
 130 421 326 482 487 482 c 0
580 -740 m 0
 363 -740 224 -624 174 -522 c 0
 169 -513 178 -500 188 -496 c 2
 220 -485 l 2
 228 -482 239 -491 245 -500 c 0
 290 -570 404 -635 580 -635 c 0
 856 -635 940 -334 940 120 c 0
 940 617 820 845 545 845 c 0
 390 845 255 772 255 640 c 0
 255 566 341 482 487 482 c 0
 497 482 507 474 507 465 c 2
 507 415 l 2
 507 404 497 397 487 397 c 0
 343 397 130 474 130 650 c 0
 130 848 320 970 545 970 c 0
 905 970 1065 676 1065 120 c 0
 1065 -435 923 -740 580 -740 c 0
EndSplineSet
EndChar

StartChar: uni1991
Encoding: 6545 6545 181
Width: 1210
Flags: MW
HStem: -20 125<502.5 737.5 502.5 772.5> 468 85<713 796 713 798.5 713 791> 845 125<760 834.5> 1475 95<497 723>
VStem: 140 125<551.5 967 551.5 1017.5> 950 125<666.5 747> 955 125<244 347>
LayerCount: 2
Fore
SplineSet
718 468 m 0xfa
 708 468 698 476 698 485 c 2
 698 535 l 2
 698 546 708 553 718 553 c 0
 874 553 950 623 950 710 c 0
 950 784 874 845 795 845 c 0
 725 845 677 829 660 820 c 0
 650 815 638 819 633 827 c 2
 587 901 l 2
 582 910 587 919 595 925 c 0
 626 948 704 970 795 970 c 0
 942 970 1075 845 1075 710 c 0xfc
 1075 529 879 468 718 468 c 0xfa
625 1570 m 0
 852 1570 991 1404 1031 1282 c 0
 1034 1272 1027 1260 1017 1256 c 2
 985 1245 l 2
 977 1242 964 1250 960 1260 c 0
 915 1360 821 1475 625 1475 c 0
 369 1475 265 1164 265 770 c 0
 265 333 345 105 660 105 c 0
 815 105 955 178 955 310 c 0
 955 384 864 468 718 468 c 0
 708 468 698 476 698 485 c 2
 698 535 l 2
 698 546 708 553 718 553 c 0
 862 553 1080 476 1080 300 c 0
 1080 102 885 -20 660 -20 c 0
 260 -20 140 274 140 770 c 0
 140 1265 302 1570 625 1570 c 0
EndSplineSet
EndChar

StartChar: uni1981
Encoding: 6529 6529 182
Width: 1864
Flags: MW
HStem: -740 190<1175 1321.5 1175 1416.5> -20 180<1231 1236 1231 1308> -20 230<459.5 553.5 459.5 623> 740 230<454.5 551 1207.5 1327> 1110 195<622 675.5 622 730 1193.5 1247>
VStem: 715 250<385 555.5> 852 165<1407.5 1510 1419.5 1510> 1529 250<415 565> 1538 250<-350 -186.5>
LayerCount: 2
Fore
SplineSet
495 -20 m 0xda80
 348 -20 222 38 115 175 c 0
 107 185 111 199 121 207 c 1
 250 331 l 1
 260 339 273 334 280 325 c 0
 351 238 424 210 495 210 c 0
 612 210 715 299 715 471 c 0
 715 640 617 740 485 740 c 0
 424 740 341 712 280 635 c 0
 272 625 260 621 250 629 c 2
 111 743 l 2
 101 751 97 765 105 775 c 0
 212 912 338 970 485 970 c 0
 750 970 965 759 965 471 c 0
 965 167 751 -20 495 -20 c 0xda80
627 1110 m 0
 617 1110 607 1117 607 1128 c 2xbc80
 607 1288 l 2
 607 1297 617 1305 627 1305 c 0
 724 1305 852 1334 852 1505 c 0
 852 1515 860 1525 869 1525 c 2
 999 1525 l 2
 1010 1525 1017 1515 1017 1505 c 0
 1017 1310 833 1110 627 1110 c 0
1242 1110 m 0
 1036 1110 852 1310 852 1505 c 0
 852 1515 859 1525 870 1525 c 2xdb
 1000 1525 l 2
 1009 1525 1017 1515 1017 1505 c 0
 1017 1334 1145 1305 1242 1305 c 0xda80
 1252 1305 1262 1297 1262 1288 c 2
 1262 1128 l 2
 1262 1117 1252 1110 1242 1110 c 0
1236 -20 m 0
 1226 -20 1216 -12 1216 -3 c 2
 1216 142 l 2
 1216 153 1226 160 1236 160 c 0
 1496 160 1788 8 1788 -265 c 0
 1788 -538 1570 -740 1263 -740 c 0xda80
 1035 -740 812 -574 762 -442 c 0
 758 -432 766 -420 776 -416 c 2
 878 -375 l 2
 886 -372 896 -381 903 -390 c 0
 968 -480 1112 -550 1238 -550 c 0
 1405 -550 1538 -435 1538 -265 c 0
 1538 -108 1380 -20 1236 -20 c 0
943 581 m 0
 935 572 923 567 913 575 c 1
 802 721 l 1
 792 729 788 743 796 753 c 0
 878 847 1053 970 1269 970 c 0
 1566 970 1779 762 1779 480 c 0
 1779 238 1591 -19 1236 -20 c 0
 1226 -20 1216 -12 1216 -3 c 2
 1216 142 l 2
 1216 153 1226 160 1236 160 c 0
 1456 160 1529 350 1529 480 c 0
 1529 650 1385 740 1269 740 c 0
 1146 740 1021 668 943 581 c 0
EndSplineSet
EndChar

StartChar: uni1987
Encoding: 6535 6535 183
Width: 1265
Flags: MW
HStem: -740 105<507 743 507 776.5> -20 125<321 385 321 405> 155 125<651 681.5> 845 125<495 737.5>
VStem: 130 125<320.5 506.5 320.5 538> 730 125<80 116> 1010 125<-67 358.5>
LayerCount: 2
Fore
SplineSet
610 -635 m 0
 876 -635 1010 -279 1010 145 c 0
 1010 572 860 845 615 845 c 0
 375 845 255 608 255 405 c 0
 255 236 277 105 365 105 c 0
 405 105 447 145 493 186 c 0
 544 232 600 280 665 280 c 0
 778 280 855 202 855 100 c 0
 855 12 782 -51 741 -74 c 0
 732 -79 723 -75 717 -66 c 2
 670 12 l 2
 664 21 671 30 679 35 c 0
 696 45 730 60 730 100 c 0
 730 132 698 155 665 155 c 0
 637 155 603 117 559 77 c 0
 508 30 445 -20 365 -20 c 0
 193 -20 130 156 130 405 c 0
 130 671 300 970 615 970 c 0
 925 970 1135 671 1135 145 c 0
 1135 -380 943 -740 610 -740 c 0
 373 -740 214 -584 174 -412 c 0
 172 -402 178 -390 188 -386 c 2
 220 -375 l 2
 228 -372 242 -379 245 -390 c 0
 290 -540 404 -635 610 -635 c 0
EndSplineSet
EndChar

StartChar: uni198B
Encoding: 6539 6539 184
Width: 1275
Flags: MW
HStem: -740 190<595 741.5 595 836.5> -24 21G -20 180<761 808> 740 230<555.5 711>
VStem: 90 250<389.5 531 389.5 597.5> 920 250<393.5 538.5> 958 250<-350 -186.5>
LayerCount: 2
Fore
SplineSet
766 -20 m 0xba
 756 -20 746 -12 746 -3 c 2
 746 142 l 2
 746 153 756 160 766 160 c 0
 966 160 1208 8 1208 -265 c 0
 1208 -538 990 -740 683 -740 c 0
 455 -740 232 -574 182 -442 c 0
 178 -432 186 -420 196 -416 c 2
 298 -375 l 2
 306 -372 316 -381 323 -390 c 0
 388 -480 532 -550 658 -550 c 0
 825 -550 958 -435 958 -265 c 0
 958 -108 850 -20 766 -20 c 0xba
630 970 m 0xdc
 944 970 1170 766 1170 450 c 0
 1170 219 1039 61 860 -20 c 0
 850 -24 839 -23 834 -14 c 2
 757 134 l 2
 752 142 756 158 766 160 c 0
 861 178 920 337 920 450 c 0
 920 627 792 740 630 740 c 0
 481 740 340 622 340 440 c 0
 340 339 398 221 485 180 c 0
 497 174 499 160 491 150 c 1
 397 -14 l 1
 389 -24 375 -28 365 -20 c 0
 218 87 90 233 90 440 c 0
 90 755 322 970 630 970 c 0xdc
EndSplineSet
EndChar

StartChar: uni19A1
Encoding: 6561 6561 185
Width: 1188
Flags: MW
HStem: -740 190<475 621.5 475 716.5> -20 180<531 608 531 536> 740 230<517.5 627>
VStem: 829 250<415 565> 838 250<-350 -186.5>
LayerCount: 2
Fore
SplineSet
536 -20 m 0xe8
 526 -20 516 -12 516 -3 c 2
 516 142 l 2
 516 153 526 160 536 160 c 0
 796 160 1088 8 1088 -265 c 0
 1088 -538 870 -740 563 -740 c 0
 335 -740 112 -574 62 -442 c 0
 58 -432 66 -420 76 -416 c 2
 178 -375 l 2
 186 -372 196 -381 203 -390 c 0
 268 -480 412 -550 538 -550 c 0
 705 -550 838 -435 838 -265 c 0
 838 -108 680 -20 536 -20 c 0xe8
283 601 m 0
 274 593 263 587 253 595 c 2
 102 721 l 2
 92 729 88 743 96 753 c 0
 178 847 353 970 569 970 c 0
 866 970 1079 762 1079 480 c 0
 1079 238 891 -19 536 -20 c 0
 526 -20 516 -12 516 -3 c 2
 516 142 l 2
 516 153 526 160 536 160 c 0
 756 160 829 350 829 480 c 0xf0
 829 650 685 740 569 740 c 0
 466 740 361 678 283 601 c 0
EndSplineSet
EndChar

StartChar: uni198C
Encoding: 6540 6540 186
Width: 1295
Flags: MW
HStem: -740 190<595 741.5 595 836.5> -24 21G -20 180<761 808> 740 230<555.5 711> 1400 170<579 725.5>
VStem: 90 250<389.5 531 389.5 597.5> 145 250<1037 1160 1037 1196.5> 920 250<393.5 538.5> 958 250<-350 -186.5>
LayerCount: 2
Fore
SplineSet
665 1400 m 0xba80
 493 1400 395 1230 395 1090 c 0
 395 984 406 886 454 757 c 1
 217 644 l 1
 168 793 145 924 145 1090 c 0
 145 1303 278 1570 665 1570 c 0
 892 1570 1051 1404 1091 1282 c 0
 1094 1272 1087 1260 1077 1256 c 1
 970 1225 l 2
 962 1222 949 1230 945 1240 c 0
 900 1340 786 1400 665 1400 c 0xba80
766 -20 m 0
 756 -20 746 -12 746 -3 c 2
 746 142 l 2
 746 153 756 160 766 160 c 0
 966 160 1208 8 1208 -265 c 0
 1208 -538 990 -740 683 -740 c 0
 455 -740 232 -574 182 -442 c 0
 178 -432 186 -420 196 -416 c 2
 298 -375 l 2
 306 -372 316 -381 323 -390 c 0
 388 -480 532 -550 658 -550 c 0
 825 -550 958 -435 958 -265 c 0
 958 -108 850 -20 766 -20 c 0
630 970 m 0xdd
 944 970 1170 766 1170 450 c 0
 1170 219 1039 61 860 -20 c 0
 850 -24 839 -23 834 -14 c 2
 757 134 l 2
 752 142 756 158 766 160 c 0
 861 178 920 337 920 450 c 0
 920 627 792 740 630 740 c 0
 481 740 340 622 340 440 c 0
 340 339 398 221 485 180 c 0
 497 174 499 160 491 150 c 1
 397 -14 l 1
 389 -24 375 -28 365 -20 c 0
 218 87 90 233 90 440 c 0
 90 755 322 970 630 970 c 0xdd
EndSplineSet
EndChar

StartChar: uni19B7
Encoding: 6583 6583 187
Width: 1152
Flags: MW
HStem: -20 125<524 713 524 759> 885 85<539.5 657 548.5 657> 1460 110<513 698>
VStem: 110 125<360.5 601 360.5 648> 138 125<1146.5 1298 1146.5 1344> 923 95<1245 1327.5>
LayerCount: 2
Fore
SplineSet
630 -20 m 0xf4
 315 -20 110 202 110 480 c 0
 110 816 364 970 652 970 c 0
 662 970 672 963 672 952 c 2
 672 902 l 2
 672 893 662 885 652 885 c 0
 445 885 235 722 235 480 c 0
 235 241 418 105 630 105 c 0
 796 105 924 194 934 332 c 0
 935 342 939 349 947 351 c 1
 1040 351 l 2
 1051 351 1060 343 1060 333 c 0
 1057 154 888 -20 630 -20 c 0xf4
652 885 m 0xec
 427 885 138 970 138 1231 c 0
 138 1457 336 1570 618 1570 c 0
 810 1570 1018 1470 1018 1265 c 0
 1018 1213 994 1155 970 1124 c 0
 964 1117 954 1111 945 1116 c 2
 909 1133 l 2
 901 1137 899 1152 903 1160 c 0
 910 1176 923 1225 923 1265 c 0
 923 1390 778 1460 618 1460 c 0
 408 1460 263 1366 263 1230 c 0
 263 1063 451 970 652 970 c 0
 662 970 672 963 672 952 c 2
 672 902 l 2
 672 893 662 885 652 885 c 0xec
EndSplineSet
EndChar

StartChar: uni19C6
Encoding: 6598 6598 188
Width: 1167
Flags: MW
HStem: -740 115<518.5 630.5 518.5 673> -372 120<292.5 357.5> -20 85<510 515 515 518> 845 125<511.5 676>
VStem: 95 120<-510 -444 -510 -412.5> 430 120<-494 -444> 898 125<390.5 590> 912 125<-420 -236.5>
LayerCount: 2
Fore
SplineSet
210 673 m 0xfe
 202 664 190 659 180 667 c 2
 111 721 l 2
 101 729 97 743 105 753 c 0
 187 847 372 970 578 970 c 0
 875 970 1023 762 1023 480 c 0xfe
 1023 301 939 114 752 28 c 1
 919 -28 1037 -146 1037 -310 c 0
 1037 -593 824 -740 522 -740 c 0
 352 -740 95 -678 95 -477 c 0
 95 -348 187 -252 325 -252 c 0
 465 -252 550 -348 550 -467 c 0
 550 -521 516 -574 473 -617 c 1
 487 -622 510 -625 527 -625 c 0
 734 -625 912 -530 912 -310 c 0xfd
 912 -163 732 -20 518 -20 c 2
 515 -20 l 2
 505 -20 495 -12 495 -3 c 2
 495 47 l 2
 495 58 505 65 515 65 c 0
 755 65 898 300 898 480 c 0
 898 700 774 845 578 845 c 0
 445 845 293 760 210 673 c 0xfe
215 -477 m 0
 215 -543 260 -587 325 -587 c 0
 392 -587 430 -542 430 -477 c 0
 430 -411 390 -372 325 -372 c 0
 260 -372 215 -411 215 -477 c 0
EndSplineSet
EndChar

StartChar: uni19D1
Encoding: 6609 6609 189
Width: 1205
Flags: MW
HStem: -20 125<489.5 673.5 489.5 718> 845 125<484.5 671>
VStem: 970 125<354 589.5>
LayerCount: 2
Fore
SplineSet
555 -20 m 0
 398 -20 212 33 105 175 c 0
 97 185 100 200 111 207 c 2
 180 251 l 2
 191 258 202 255 210 245 c 0
 291 143 424 105 555 105 c 0
 792 105 970 238 970 470 c 0
 970 709 777 845 565 845 c 0
 404 845 291 782 210 675 c 0
 203 665 191 662 180 669 c 2
 111 713 l 2
 100 720 97 735 105 745 c 0
 222 892 368 970 565 970 c 0
 880 970 1095 748 1095 470 c 0
 1095 186 881 -20 555 -20 c 0
EndSplineSet
EndChar

StartChar: uni199A
Encoding: 6554 6554 190
Width: 1268
Flags: MW
HStem: -20 125<520.5 760.5 520.5 793.5> 468 85<409 492 409 492 414 492> 845 125<370.5 445> 1090 105<552 730> 1475 95<552 728.5>
VStem: 130 125<244 347 244 388 666.5 747> 168 105<1280.5 1374.5 1280.5 1414> 1013 125<421.5 712.5>
LayerCount: 2
Fore
SplineSet
487 468 m 0xfd
 326 468 130 529 130 710 c 0
 130 845 263 970 410 970 c 0
 501 970 579 948 610 925 c 0
 618 919 623 910 618 901 c 2
 572 827 l 2
 567 819 555 815 545 820 c 0
 528 829 480 845 410 845 c 0
 331 845 255 784 255 710 c 0
 255 623 331 553 487 553 c 0
 497 553 507 546 507 535 c 2
 507 485 l 2
 507 476 497 468 487 468 c 0xfd
1063 1255 m 0
 1113 1115 1138 847 1138 640 c 0
 1138 144 964 -20 623 -20 c 0
 348 -20 130 102 130 300 c 0
 130 476 343 553 487 553 c 0
 497 553 507 546 507 535 c 2
 507 485 l 2
 507 476 497 468 487 468 c 0
 341 468 255 384 255 310 c 0xfd
 255 178 418 105 623 105 c 0
 898 105 1013 203 1013 640 c 0
 1013 785 1008 996 978 1102 c 0
 975 1112 970 1123 959 1120 c 0
 910 1107 812 1090 648 1090 c 0
 363 1090 168 1162 168 1330 c 0
 168 1498 363 1570 648 1570 c 0
 825 1570 1007 1519 1112 1449 c 0
 1120 1444 1124 1436 1118 1425 c 2
 1099 1390 l 2
 1094 1381 1080 1381 1072 1386 c 0
 993 1436 809 1475 648 1475 c 0
 456 1475 273 1419 273 1330 c 0xfb
 273 1231 456 1195 648 1195 c 0
 815 1195 935 1221 1041 1269 c 0
 1050 1273 1059 1266 1063 1255 c 0
EndSplineSet
EndChar

StartChar: uni19BA
Encoding: 6586 6586 191
Width: 1245
Flags: MW
HStem: -20 125<526.5 720.5 526.5 733.5> 845 125<532 696 480.5 724.5> 1465 105<708.5 827.5>
VStem: 110 125<354 589.5 354 609> 513 75<1210 1283.5 1210 1326.5> 959 122
LayerCount: 2
Fore
SplineSet
630 -20 m 0
 314 -20 110 176 110 470 c 0
 110 748 323 970 638 970 c 0
 754 970 865 940 936 907 c 0
 943 904 953 908 954 916 c 0
 964 1018 958 1103 948 1215 c 0
 937 1337 887 1465 768 1465 c 0
 649 1465 588 1352 588 1215 c 0
 588 1205 581 1196 570 1196 c 2
 530 1195 l 2
 521 1195 513 1205 513 1215 c 0
 513 1438 590 1570 768 1570 c 0
 956 1570 1055 1432 1073 1215 c 0
 1083 1094 1083 830 1073 699 c 0
 1072 684 1057 680 1050 686 c 0
 939 780 811 845 638 845 c 0
 426 845 235 709 235 470 c 0
 235 238 423 105 630 105 c 0
 811 105 944 148 1025 255 c 0
 1032 265 1044 268 1055 261 c 2
 1124 217 l 2
 1135 210 1138 195 1130 185 c 0
 1023 38 837 -20 630 -20 c 0
EndSplineSet
EndChar

StartChar: uni19B4
Encoding: 6580 6580 192
Width: 1582
Flags: MW
HStem: -740 220<1338.5 1407 1338.5 1493.5> -20 230<567 686.5 567 702.5> 785 185<160 184.5>
VStem: 220 250<470 494 494 720 699 730 405 737> 1000 9<415 415 415 930> 1520 162
LayerCount: 2
Fore
SplineSet
470 730 m 0
 470 666 470 518 470 470 c 0
 470 340 499 210 635 210 c 0
 738 210 896 295 1009 415 c 1
 1079 196 l 1
 939 68 770 -20 635 -20 c 0
 308 -20 220 208 220 470 c 0
 220 515 220 678 220 720 c 0
 220 754 199 785 170 785 c 0
 122 785 108 743 90 710 c 0
 86 702 68 704 61 710 c 2
 -17 773 l 2
 -25 780 -28 796 -25 805 c 0
 4 901 100 970 220 970 c 0
 356 970 470 888 470 730 c 0
1000 -305 m 2
 1000 930 l 2
 1000 940 1007 950 1018 950 c 2
 1233 950 l 2
 1242 950 1250 940 1250 930 c 2
 1250 -305 l 2
 1250 -455 1307 -520 1370 -520 c 0
 1444 -520 1520 -439 1520 -250 c 0
 1520 -240 1527 -231 1538 -231 c 2
 1653 -230 l 2
 1662 -230 1668 -240 1670 -250 c 0
 1720 -500 1617 -740 1370 -740 c 0
 1142 -740 1000 -582 1000 -305 c 2
EndSplineSet
EndChar

StartChar: uni19BC
Encoding: 6588 6588 193
Width: 1839
Flags: MW
HStem: -740 230<1313.5 1402.5 1313.5 1482> -20 230<557 676.5 557 692.5> 785 185<150 174.5>
VStem: 210 250<470 494 494 720 699 730 405 737> 953 250<-305 930> 1518 250<-305 930>
LayerCount: 2
Fore
SplineSet
953 -305 m 2
 953 930 l 2
 953 940 960 950 971 950 c 2
 1186 950 l 2
 1195 950 1203 940 1203 930 c 2
 1203 -305 l 2
 1203 -437 1269 -510 1358 -510 c 0
 1447 -510 1518 -436 1518 -305 c 2
 1518 930 l 2
 1518 940 1525 950 1536 950 c 2
 1751 950 l 2
 1760 950 1768 940 1768 930 c 2
 1768 -305 l 2
 1768 -543 1606 -740 1358 -740 c 0
 1100 -740 953 -543 953 -305 c 2
460 730 m 0
 460 666 460 518 460 470 c 0
 460 340 489 210 625 210 c 0
 728 210 886 295 999 415 c 1
 1069 196 l 1
 929 68 760 -20 625 -20 c 0
 298 -20 210 208 210 470 c 0
 210 515 210 678 210 720 c 0
 210 754 189 785 160 785 c 0
 112 785 98 743 80 710 c 0
 76 702 58 704 51 710 c 2
 -27 773 l 2
 -35 780 -38 796 -35 805 c 0
 -6 901 90 970 210 970 c 0
 346 970 460 888 460 730 c 0
EndSplineSet
EndChar

StartChar: uni19B0
Encoding: 6576 6576 194
Width: 1136
Flags: MW
HStem: -20 105<808.5 867.5 808.5 892> -20 130<331 360.5 331 361> 295 125<349.5 430> 530 105<808.5 867.5 808.5 892> 530 130<331 360.5 331 361> 845 125<349.5 430>
VStem: 131 125<190 190 740 740> 951 75<187.5 240 737.5 790>
LayerCount: 2
Fore
SplineSet
1026 785 m 0xb7
 1026 637 948 530 836 530 c 0xb7
 714 530 648 629 601 715 c 0
 552 804 479 845 381 845 c 0
 318 845 256 802 256 740 c 0
 256 687 306 660 356 660 c 0
 365 660 375 646 375 638 c 2
 375 546 l 2
 375 536 366 530 356 530 c 0xaf
 210 530 129 612 131 740 c 0
 133 882 248 970 381 970 c 0
 546 970 646 883 725 733 c 0
 750 686 781 635 836 635 c 0
 899 635 951 690 951 785 c 0
 951 795 958 805 969 805 c 2
 1009 805 l 2
 1018 805 1026 795 1026 785 c 0xb7
1026 235 m 0
 1026 87 948 -20 836 -20 c 0xb7
 714 -20 648 79 601 165 c 0
 552 254 479 295 381 295 c 0
 318 295 256 252 256 190 c 0
 256 137 306 110 356 110 c 0
 365 110 375 96 375 88 c 2x77
 375 -4 l 2
 375 -14 366 -20 356 -20 c 0
 210 -20 129 62 131 190 c 0
 133 332 248 420 381 420 c 0
 546 420 646 333 725 183 c 0
 750 136 781 85 836 85 c 0
 899 85 951 140 951 235 c 0
 951 245 958 255 969 255 c 2
 1009 255 l 2
 1018 255 1026 245 1026 235 c 0
EndSplineSet
EndChar

StartChar: uni19C8
Encoding: 6600 6600 195
Width: 1114
Flags: MW
HStem: -20 125<467.5 643 467.5 681.5> 450 110<549 692.5> 845 125<460 641.5>
VStem: 110 125<339 594.5 339 614> 879 115<211 344>
LayerCount: 2
Fore
SplineSet
566 105 m 0
 720 105 879 137 879 285 c 0
 879 403 761 450 624 450 c 0
 474 450 320 396 227 348 c 1
 174 451 l 1
 287 500 469 560 624 560 c 0
 833 560 994 469 994 285 c 0
 994 62 797 -20 566 -20 c 0
 280 -20 110 156 110 470 c 0
 110 758 241 970 576 970 c 0
 733 970 874 922 981 775 c 0
 989 765 985 752 975 743 c 2
 916 689 l 2
 906 680 893 685 886 695 c 0
 815 802 707 845 576 845 c 0
 344 845 235 719 235 470 c 0
 235 208 369 105 566 105 c 0
EndSplineSet
EndChar

StartChar: uni19C9
Encoding: 6601 6601 196
Width: 1143
Flags: MW
HStem: -20 125<470 711.5 470 739.5> 425 110<559 702.5 559 738.5> 845 125<477.5 653>
VStem: 120 125<350.5 611 350.5 637> 889 115<616 729> 898 125<273 305>
LayerCount: 2
Fore
SplineSet
586 -20 m 0xf8
 251 -20 120 192 120 480 c 0
 120 794 290 970 576 970 c 0
 807 970 1004 868 1004 665 c 0
 1004 501 843 425 634 425 c 0
 459 425 302 450 189 514 c 1
 237 616 l 1
 330 553 484 535 634 535 c 0
 771 535 889 567 889 665 c 0xf8
 889 793 730 845 576 845 c 0
 379 845 245 742 245 480 c 0
 245 221 354 105 586 105 c 0
 837 105 898 246 898 300 c 0
 898 310 905 319 916 319 c 2
 1006 320 l 2
 1015 320 1023 310 1023 300 c 0xf4
 1023 168 893 -20 586 -20 c 0xf8
EndSplineSet
EndChar

StartChar: uni19D8
Encoding: 6616 6616 197
Width: 1465
Flags: MW
HStem: 0 125<95 268.5 95 299 1196.5 1370>
VStem: 680 105<524 780 569 780>
LayerCount: 2
Fore
SplineSet
100 0 m 0
 90 0 80 7 80 18 c 2
 80 108 l 2
 80 117 90 125 100 125 c 0
 437 125 680 363 680 775 c 0
 680 785 687 795 698 795 c 2
 768 795 l 2
 777 795 785 785 785 775 c 0
 785 273 498 0 100 0 c 0
1365 0 m 0
 967 0 680 273 680 775 c 0
 680 785 688 795 697 795 c 2
 767 795 l 2
 778 795 785 785 785 775 c 0
 785 363 1028 125 1365 125 c 0
 1375 125 1385 117 1385 108 c 2
 1385 18 l 2
 1385 7 1375 0 1365 0 c 0
EndSplineSet
EndChar

StartChar: uni19A3
Encoding: 6563 6563 198
Width: 1477
Flags: MW
HStem: -23 125<446 522 446 562.5> 847 125<491.5 796>
VStem: 110 125<674 751 674 790> 206 122<167 206.5 167 209.5> 642 125<196 312> 1262 115<-40.5 299.5>
LayerCount: 2
Fore
SplineSet
958 -678 m 0xec
 1161 -498 1262 -207 1262 126 c 0
 1262 473 1030 847 562 847 c 0
 421 847 235 793 235 709 c 0xec
 235 639 318 603 419 569 c 0
 573 517 767 449 767 237 c 0
 767 79 648 -23 477 -23 c 0
 314 -23 206 72 206 201 c 0
 206 218 207 229 210 245 c 1
 213 254 223 261 234 257 c 2
 318 226 l 2
 327 223 328 211 328 202 c 0xdc
 328 132 415 102 477 102 c 0
 567 102 642 155 642 237 c 0
 642 387 495 417 356 463 c 0
 230 505 110 561 110 712 c 0
 110 868 312 972 562 972 c 0
 1100 972 1377 549 1377 126 c 0
 1377 -247 1226 -534 1007 -736 c 0
 1000 -742 992 -740 986 -734 c 2
 954 -698 l 2
 949 -692 950 -686 958 -678 c 0xec
EndSplineSet
EndChar

StartChar: uni1997
Encoding: 6551 6551 199
Width: 1815
Flags: MW
HStem: -740 95<1145.5 1349.5 1145.5 1374> -533 77 -320 95<1118 1218.5> -20 125<445 450.5 365 461 1354.5 1360> 845 125<462 628.5 1176.5 1343>
VStem: 110 125<410 580 410 611> 860 85<565 594.5 565 655.5> 895 95<-506 -429 -506 -394> 1332 95<-395 -395> 1530 125<-355 174 174 174> 1570 125<408 580>
LayerCount: 2
Fore
SplineSet
945 570 m 0xfec0
 945 560 937 550 928 550 c 2
 878 550 l 2
 867 550 860 560 860 570 c 0
 860 619 871 675 881 712 c 0
 922 866 1083 970 1260 970 c 0
 1527 970 1695 742 1695 480 c 0xfea0
 1695 268 1605 -19 1360 -20 c 0
 1328 -20 1291 -15 1260 -2 c 0
 1250 2 1247 14 1252 23 c 2
 1298 102 l 2
 1302 110 1314 110 1325 108 c 0
 1334 106 1349 105 1360 105 c 0
 1520 105 1570 336 1570 480 c 0
 1570 680 1426 845 1260 845 c 0
 1093 845 945 741 945 570 c 0xfec0
860 570 m 0
 860 741 712 845 545 845 c 0
 379 845 235 680 235 480 c 0
 235 340 285 105 445 105 c 0
 456 105 471 106 480 108 c 0
 491 110 503 110 507 102 c 2
 553 23 l 2
 558 14 555 2 545 -2 c 0
 514 -15 477 -20 445 -20 c 0
 200 -19 110 268 110 480 c 0xfdc0
 110 742 278 970 545 970 c 0
 722 970 883 866 924 712 c 0
 934 675 945 619 945 570 c 0
 945 560 938 550 927 550 c 2
 877 550 l 2
 868 550 860 560 860 570 c 0
1177 -320 m 0xfdc0
 1059 -320 990 -393 990 -465 c 0
 990 -547 1041 -645 1250 -645 c 0
 1449 -645 1530 -477 1530 -355 c 2
 1530 174 l 1
 1655 480 l 1
 1655 -355 l 2
 1655 -573 1498 -740 1250 -740 c 0
 1002 -740 895 -613 895 -465 c 0
 895 -323 1013 -225 1177 -225 c 0
 1300 -225 1425 -283 1427 -395 c 0
 1429 -503 1308 -570 1142 -510 c 0
 1132 -506 1123 -500 1123 -490 c 2
 1123 -453 l 2
 1123 -445 1133 -432 1142 -435 c 0
 1249 -477 1332 -453 1332 -395 c 0
 1332 -353 1260 -320 1177 -320 c 0xfdc0
EndSplineSet
EndChar

StartChar: uni19A4
Encoding: 6564 6564 200
Width: 1188
Flags: MW
HStem: -740 190<475 621.5 475 716.5> -20 180<531 608 531 536> 740 230<517.5 627> 1110 195<232 285.5 232 340 803.5 857>
VStem: 462 165<1407.5 1510 1419.5 1510> 829 250<415 565> 838 250<-350 -186.5>
LayerCount: 2
Fore
SplineSet
237 1110 m 0xfa
 227 1110 217 1117 217 1128 c 2
 217 1288 l 2
 217 1297 227 1305 237 1305 c 0
 334 1305 462 1334 462 1505 c 0
 462 1515 470 1525 479 1525 c 2
 609 1525 l 2
 620 1525 627 1515 627 1505 c 0
 627 1310 443 1110 237 1110 c 0xfa
852 1110 m 0
 646 1110 462 1310 462 1505 c 0
 462 1515 469 1525 480 1525 c 2
 610 1525 l 2
 619 1525 627 1515 627 1505 c 0
 627 1334 755 1305 852 1305 c 0
 862 1305 872 1297 872 1288 c 2
 872 1128 l 2
 872 1117 862 1110 852 1110 c 0
536 -20 m 0
 526 -20 516 -12 516 -3 c 2
 516 142 l 2
 516 153 526 160 536 160 c 0
 796 160 1088 8 1088 -265 c 0
 1088 -538 870 -740 563 -740 c 0
 335 -740 112 -574 62 -442 c 0
 58 -432 66 -420 76 -416 c 2
 178 -375 l 2
 186 -372 196 -381 203 -390 c 0
 268 -480 412 -550 538 -550 c 0
 705 -550 838 -435 838 -265 c 0
 838 -108 680 -20 536 -20 c 0
283 601 m 0
 274 593 263 587 253 595 c 2
 102 721 l 2
 92 729 88 743 96 753 c 0
 178 847 353 970 569 970 c 0
 866 970 1079 762 1079 480 c 0
 1079 238 891 -19 536 -20 c 0
 526 -20 516 -12 516 -3 c 2
 516 142 l 2
 516 153 526 160 536 160 c 0
 756 160 829 350 829 480 c 0xfc
 829 650 685 740 569 740 c 0
 466 740 361 678 283 601 c 0
EndSplineSet
EndChar

StartChar: uni19A5
Encoding: 6565 6565 201
Width: 1180
Flags: MW
HStem: -20 230<550.5 709.5 550.5 769> 1110 195<317 370.5 317 425 888.5 942>
VStem: 40 250<404 570.5 404 613.5> 547 165<1407.5 1510 1419.5 1510> 970 250<404 570.5>
LayerCount: 2
Fore
SplineSet
630 210 m 0
 789 210 970 298 970 510 c 0
 970 631 912 714 825 785 c 0
 816 793 811 805 819 815 c 2
 943 964 l 2
 951 974 964 977 975 970 c 0
 1112 883 1220 717 1220 510 c 0
 1220 195 908 -20 630 -20 c 0
 352 -20 40 195 40 510 c 0
 40 717 148 883 285 970 c 0
 296 977 309 974 317 964 c 2
 441 815 l 2
 449 805 444 793 435 785 c 0
 348 714 290 631 290 510 c 0
 290 298 471 210 630 210 c 0
322 1110 m 0
 312 1110 302 1117 302 1128 c 2
 302 1288 l 2
 302 1297 312 1305 322 1305 c 0
 419 1305 547 1334 547 1505 c 0
 547 1515 555 1525 564 1525 c 2
 694 1525 l 2
 705 1525 712 1515 712 1505 c 0
 712 1310 528 1110 322 1110 c 0
937 1110 m 0
 731 1110 547 1310 547 1505 c 0
 547 1515 554 1525 565 1525 c 2
 695 1525 l 2
 704 1525 712 1515 712 1505 c 0
 712 1334 840 1305 937 1305 c 0
 947 1305 957 1297 957 1288 c 2
 957 1128 l 2
 957 1117 947 1110 937 1110 c 0
EndSplineSet
EndChar

StartChar: uni19A6
Encoding: 6566 6566 202
Width: 1805
Flags: MW
HStem: -600 165<1217 1383 1217 1427> -260 165<1217 1383> -20 230<435 531> 740 230<492 622 386.5 643.5 1262.5 1393>
VStem: 70 250<410 550 410 601> 860 165<440 530.5> 895 190<-367.5 -322.5 -367.5 -272.5> 1520 190<-367.5 -323> 1565 250<408 550>
LayerCount: 2
Fore
SplineSet
860 445 m 0xfd
 860 616 732 740 555 740 c 0
 429 740 320 620 320 480 c 0
 320 340 385 210 485 210 c 0
 496 210 511 211 520 213 c 0
 531 215 543 215 547 207 c 2
 653 23 l 2
 658 14 655 2 645 -2 c 0
 614 -15 547 -20 515 -20 c 0
 220 -19 70 268 70 480 c 0
 70 722 228 970 545 970 c 0
 699 970 861 891 942 768 c 1
 1023 891 1185 970 1340 970 c 0
 1657 970 1815 722 1815 480 c 0
 1815 268 1675 -19 1370 -20 c 0
 1338 -20 1271 -15 1240 -2 c 0
 1230 2 1227 14 1232 23 c 2
 1338 207 l 2
 1342 215 1354 215 1365 213 c 0
 1374 211 1389 210 1400 210 c 0
 1500 210 1565 336 1565 480 c 0xfc80
 1565 620 1456 740 1330 740 c 0
 1153 740 1025 616 1025 445 c 0
 1025 435 1019 425 1009 425 c 2
 876 425 l 2
 868 425 860 435 860 445 c 0xfd
1085 -345 m 0xfb
 1085 -390 1134 -435 1300 -435 c 0
 1466 -435 1520 -390 1520 -345 c 0
 1520 -301 1466 -260 1300 -260 c 0
 1134 -260 1085 -300 1085 -345 c 0xfb
895 -345 m 0
 895 -200 1046 -95 1300 -95 c 0
 1554 -95 1710 -200 1710 -345 c 0
 1710 -488 1554 -600 1300 -600 c 0
 1046 -600 895 -488 895 -345 c 0
EndSplineSet
EndChar

StartChar: uni199B
Encoding: 6555 6555 203
Width: 1715
Flags: MW
HStem: -600 165<1267 1433 1267 1477> -260 165<1267 1433> -20 230<552 683 552 779 1464.5 1470> 740 230<1340.5 1473>
VStem: 125 250<380 525 380 606> 945 190<-367.5 -322.5 -367.5 -272.5> 1570 190<-367.5 -323> 1640 250<405 570>
LayerCount: 2
Fore
SplineSet
1135 -345 m 0xfd
 1135 -390 1184 -435 1350 -435 c 0
 1516 -435 1570 -390 1570 -345 c 0xfe
 1570 -301 1516 -260 1350 -260 c 0
 1184 -260 1135 -300 1135 -345 c 0xfd
945 -345 m 0
 945 -200 1096 -95 1350 -95 c 0
 1604 -95 1760 -200 1760 -345 c 0xfe
 1760 -488 1604 -600 1350 -600 c 0
 1096 -600 945 -488 945 -345 c 0
620 210 m 0
 746 210 832 313 885 475 c 0
 961 709 1054 970 1415 970 c 0
 1702 970 1890 772 1890 480 c 0
 1890 138 1715 -19 1470 -20 c 0
 1438 -20 1401 -15 1370 -2 c 0
 1360 2 1357 14 1362 23 c 1
 1408 207 l 1
 1412 215 1424 215 1435 213 c 0
 1444 211 1459 210 1470 210 c 0
 1600 210 1640 330 1640 480 c 0
 1640 660 1531 740 1415 740 c 0
 1266 740 1175 606 1135 475 c 0
 1050 200 938 -20 620 -20 c 0
 323 -20 125 168 125 470 c 0
 125 742 293 920 505 970 c 0
 518 973 526 973 530 965 c 1
 575 770 l 1
 580 762 579 749 565 745 c 0
 418 700 375 580 375 470 c 0
 375 290 484 210 620 210 c 0
EndSplineSet
EndChar

StartChar: uni19A9
Encoding: 6569 6569 204
Width: 1260
Flags: MW
HStem: -600 165<542 708 542 752> -260 165<542 708> -24 21G 740 230<555.5 711> 1400 170<579 725.5>
VStem: 90 250<389.5 531 389.5 597.5> 145 250<1037 1160 1037 1196.5> 220 190<-367.5 -322.5 -367.5 -272.5> 845 190<-367.5 -323> 920 250<393.5 538.5>
LayerCount: 2
Fore
SplineSet
410 -345 m 0xf980
 410 -390 459 -435 625 -435 c 0
 791 -435 845 -390 845 -345 c 0
 845 -301 791 -260 625 -260 c 0
 459 -260 410 -300 410 -345 c 0xf980
220 -345 m 0
 220 -200 371 -95 625 -95 c 0
 879 -95 1035 -200 1035 -345 c 0
 1035 -488 879 -600 625 -600 c 0
 371 -600 220 -488 220 -345 c 0
630 970 m 0xfc40
 924 970 1170 766 1170 450 c 0
 1170 219 1039 61 860 -20 c 0
 850 -24 839 -23 834 -14 c 2
 746 164 l 2
 741 172 745 188 755 190 c 0
 850 208 920 337 920 450 c 0
 920 627 792 740 630 740 c 0
 481 740 340 622 340 440 c 0
 340 339 398 221 485 180 c 0
 497 174 499 160 491 150 c 1
 397 -14 l 1
 389 -24 375 -28 365 -20 c 0
 218 87 90 233 90 440 c 0
 90 755 352 970 630 970 c 0xfc40
665 1400 m 0xfa40
 493 1400 395 1230 395 1090 c 0
 395 984 406 886 454 757 c 1
 217 644 l 1
 168 793 145 924 145 1090 c 0
 145 1303 278 1570 665 1570 c 0
 892 1570 1051 1404 1091 1282 c 0
 1094 1272 1087 1260 1077 1256 c 1
 970 1225 l 2
 962 1222 949 1230 945 1240 c 0
 900 1340 786 1400 665 1400 c 0xfa40
EndSplineSet
EndChar

StartChar: uni19DF
Encoding: 6623 6623 205
Width: 1860
Flags: MW
HStem: -580 105<937 1103 937 1132> -220 105<937 1103> -20 125<475 480.5 395 491 1042 1203.5> 845 125<397 579.5> 1455 115<1473.5 1634.5>
VStem: 110 125<340 540 340 571> 640 105<-382.5 -307.5 -382.5 -272.5> 1277 125 1300 105<-382.5 -307.5> 1327 125 1725 91
LayerCount: 2
Fore
SplineSet
745 -345 m 0xff20
 745 -420 854 -475 1020 -475 c 0
 1186 -475 1300 -420 1300 -345 c 0xfea0
 1300 -270 1186 -220 1020 -220 c 0
 854 -220 745 -270 745 -345 c 0xff20
640 -345 m 0
 640 -200 796 -115 1020 -115 c 0
 1244 -115 1405 -200 1405 -345 c 0xfea0
 1405 -488 1244 -580 1020 -580 c 0
 796 -580 640 -488 640 -345 c 0
1120 -20 m 0
 882 -20 791 198 750 475 c 0
 723 659 664 845 495 845 c 0
 299 845 235 640 235 440 c 0
 235 240 315 105 475 105 c 0
 486 105 501 106 510 108 c 0
 521 110 533 110 537 102 c 2
 583 23 l 2
 588 14 585 2 575 -2 c 0
 544 -15 507 -20 475 -20 c 0
 230 -19 110 168 110 440 c 0
 110 702 198 970 495 970 c 0
 766 970 844 709 880 475 c 0
 913 258 964 105 1120 105 c 0xfe60
 1287 105 1365 286 1310 710 c 1
 1234 1261 1278 1570 1565 1570 c 0
 1792 1570 1850 1330 1800 1080 c 0
 1798 1070 1792 1060 1783 1060 c 2
 1743 1061 l 2
 1732 1061 1725 1070 1725 1080 c 0
 1725 1269 1704 1455 1565 1455 c 0xff20
 1382 1455 1377 1214 1435 710 c 1xfe60
 1491 298 1415 -20 1120 -20 c 0
EndSplineSet
EndChar

StartChar: uni19D3
Encoding: 6611 6611 206
Width: 1229
Flags: MW
HStem: -15 122 562 90<276.5 299 276.5 299> 844 125<465 667.5>
VStem: 109 98<691.5 757.5 691.5 801> 981 125<345.5 589>
LayerCount: 2
Fore
SplineSet
294 562 m 0
 204 562 109 627 109 715 c 0
 109 887 312 969 561 969 c 0
 817 969 1106 798 1106 483 c 0
 1106 76 666 -55 355 -5 c 0
 345 -3 343 -18 350 -24 c 0
 450 -111 1008 -512 1220 -618 c 0
 1228 -622 1232 -636 1225 -646 c 1
 1147 -735 l 2
 1141 -741 1128 -739 1121 -734 c 0
 759 -472 362 -156 110 58 c 0
 102 64 96 78 104 87 c 2
 150 142 l 2
 155 149 167 149 178 145 c 0
 259 115 354 106 467 107 c 0
 702 109 981 207 981 484 c 0
 981 694 774 844 561 844 c 0
 369 844 207 800 207 715 c 0
 207 668 259 652 294 652 c 0
 304 652 314 644 314 635 c 2
 314 580 l 2
 314 569 304 562 294 562 c 0
EndSplineSet
EndChar

StartChar: uni1984
Encoding: 6532 6532 207
Width: 1735
Flags: MW
HStem: -740 95<1055.5 1279.5 1055.5 1299> -555 71 -487 84<977 1034 977 1052> -375 85<1194 1256.5> -200 95<1132 1297> -20 125<442 618 442 659 1254.5 1260> 845 125<1105.5 1283>
VStem: 120 125<350 550 350 581> 840 96<-358.5 -300 -358.5 -267> 1310 85<-458.5 -414> 1470 125<380 580> 1500 95<-491 -364>
LayerCount: 2
Fore
SplineSet
530 105 m 0xdfe0
 706 105 762 258 795 475 c 0
 831 709 904 970 1205 970 c 0
 1462 970 1595 742 1595 480 c 0
 1595 208 1505 -19 1260 -20 c 0
 1228 -20 1191 -15 1160 -2 c 0
 1150 2 1147 14 1152 23 c 2
 1198 102 l 2
 1202 110 1214 110 1225 108 c 0
 1234 106 1249 105 1260 105 c 0
 1420 105 1470 280 1470 480 c 0
 1470 680 1361 845 1205 845 c 0
 1006 845 952 659 925 475 c 0
 884 198 788 -20 530 -20 c 0
 253 -20 120 168 120 470 c 0
 120 692 203 920 415 970 c 0
 428 973 436 973 440 965 c 2
 485 885 l 2
 490 877 489 863 475 860 c 0
 298 815 245 630 245 470 c 0
 245 230 354 105 530 105 c 0xdfe0
1209 -555 m 0
 1199 -554 1190 -549 1190 -539 c 2
 1190 -497 l 2
 1190 -489 1200 -477 1209 -480 c 0xdfe0
 1241 -490 1310 -487 1310 -430 c 0
 1310 -398 1278 -375 1235 -375 c 0
 1153 -375 1113 -487 991 -487 c 0
 907 -487 840 -413 840 -343 c 0
 840 -191 1010 -105 1213 -105 c 0
 1417 -105 1595 -223 1595 -435 c 0
 1595 -603 1428 -740 1170 -740 c 0
 939 -740 752 -597 680 -445 c 0
 675 -435 678 -427 684 -421 c 2
 712 -389 l 1
 720 -382 729 -382 733 -390 c 0
 805 -525 941 -645 1170 -645 c 0
 1389 -645 1500 -547 1500 -435 c 0
 1500 -293 1381 -200 1213 -200 c 0
 1051 -200 936 -256 936 -344 c 0xbfd0
 936 -373 963 -403 991 -403 c 0
 1077 -403 1127 -290 1235 -290 c 0
 1328 -290 1395 -348 1395 -430 c 0
 1395 -537 1296 -565 1209 -555 c 0
EndSplineSet
EndChar

StartChar: uni199C
Encoding: 6556 6556 208
Width: 1725
Flags: MW
HStem: -740 75<943 984.5 943 985> -740 115<1313.5 1379.5 1313.5 1419> -415 100<933.5 1015> -20 125<442 618 442 659 1254.5 1260> 845 125<1105.5 1283>
VStem: 120 125<350 550 350 581> 760 90<-530 -530> 1430 125<-475 152 152 152> 1470 125<380 580>
LayerCount: 2
Fore
SplineSet
1350 -625 m 0x7f
 1409 -625 1430 -557 1430 -475 c 2
 1430 152 l 1
 1555 480 l 1
 1555 -475 l 2
 1555 -633 1488 -740 1350 -740 c 0x7f
 1239 -740 1179 -662 1140 -583 c 0
 1101 -504 1055 -415 975 -415 c 0
 892 -415 850 -468 850 -530 c 0
 850 -603 906 -665 980 -665 c 0
 989 -665 999 -679 999 -687 c 2
 999 -724 l 2
 999 -734 990 -740 980 -740 c 0xbf
 854 -740 758 -658 760 -530 c 0
 762 -398 862 -315 975 -315 c 0
 1100 -315 1166 -406 1204 -478 c 0
 1243 -553 1277 -625 1350 -625 c 0x7f
530 105 m 0
 706 105 762 258 795 475 c 0
 831 709 904 970 1205 970 c 0
 1462 970 1595 742 1595 480 c 0x7e80
 1595 208 1505 -19 1260 -20 c 0
 1228 -20 1191 -15 1160 -2 c 0
 1150 2 1147 14 1152 23 c 2
 1198 102 l 2
 1202 110 1214 110 1225 108 c 0
 1234 106 1249 105 1260 105 c 0
 1420 105 1470 280 1470 480 c 0
 1470 680 1361 845 1205 845 c 0
 1006 845 952 659 925 475 c 0
 884 198 788 -20 530 -20 c 0
 253 -20 120 168 120 470 c 0
 120 692 203 920 415 970 c 0
 428 973 436 973 440 965 c 2
 485 885 l 2
 490 877 489 863 475 860 c 0
 298 815 245 630 245 470 c 0
 245 230 354 105 530 105 c 0
EndSplineSet
EndChar

StartChar: uni19D2
Encoding: 6610 6610 209
Width: 1111
Flags: MW
HStem: -680 95<388 641.5 388 692.5> -20 125<441.5 520 441.5 554.5> 845 125<503.5 720>
VStem: 226 125<327 574 327 610.5> 614 118 846 125<165 165>
LayerCount: 2
Fore
SplineSet
619 522 m 0
 673 482 732 404 732 282 c 0
 732 63 618 -20 491 -20 c 0
 333 -20 226 131 226 430 c 0
 226 791 336 970 601 970 c 0
 940 970 971 548 971 165 c 0
 971 -293 899 -680 486 -680 c 0
 260 -680 121 -514 81 -392 c 0
 78 -382 85 -370 95 -366 c 2
 127 -355 l 2
 135 -352 148 -360 152 -370 c 0
 197 -470 290 -585 486 -585 c 0
 797 -585 842 -217 846 165 c 1
 850 451 839 845 601 845 c 0
 406 845 351 718 351 430 c 0
 351 224 392 105 491 105 c 0
 549 105 616 156 614 280 c 0
 613 354 568 408 522 441 c 0
 514 447 515 460 524 468 c 2
 593 527 l 2
 600 532 611 528 619 522 c 0
EndSplineSet
EndChar

StartChar: uni19D5
Encoding: 6613 6613 210
Width: 1276
Flags: MW
HStem: -740 95<428 748 428 794> 845 125<374 454.5 774 890>
VStem: 151 125<661 744.5 661 783.5> 573 85<608 691> 582 74<660 717 649 725 715.5 717 649 794> 1011 125<-37.5 388 -69 446>
LayerCount: 2
Fore
SplineSet
546 -645 m 0xec
 950 -645 1011 -286 1011 211 c 0
 1011 681 969 845 811 845 c 0
 737 845 656 774 656 660 c 0
 656 638 638 615 616 615 c 0
 594 615 582 637 582 660 c 0
 582 672 582 706 582 725 c 0
 582 863 699 970 821 970 c 0
 1115 970 1136 565 1136 211 c 0
 1136 -349 1042 -740 546 -740 c 0
 280 -740 121 -574 81 -452 c 0
 78 -442 85 -430 95 -426 c 2
 127 -415 l 2
 135 -412 148 -420 152 -430 c 0
 197 -530 310 -645 546 -645 c 0xec
411 845 m 0
 337 845 276 789 276 700 c 0
 276 622 320 579 356 545 c 0
 364 538 357 522 349 518 c 1
 280 462 l 1
 271 457 264 463 256 470 c 0
 203 516 151 589 151 710 c 0
 151 857 276 970 411 970 c 0
 592 970 658 774 658 613 c 0
 658 603 650 593 641 593 c 2xec
 591 593 l 2
 580 593 573 603 573 613 c 0xf4
 573 769 498 845 411 845 c 0
EndSplineSet
EndChar

StartChar: uni19D4
Encoding: 6612 6612 211
Width: 1490
Flags: MW
HStem: -740 115<1098.5 1227.5 1098.5 1271.5> -20 125<512.5 644> 845 125<515 676.5>
VStem: 120 125<344 594.5 344 614> 853 125<-378.5 -250 -378.5 -203> 1318 91
LayerCount: 2
Fore
SplineSet
606 845 m 0
 424 845 245 719 245 470 c 0
 245 218 429 105 596 105 c 0
 719 105 864 159 975 243 c 0
 982 249 999 245 998 230 c 0
 991 120 982 -111 978 -250 c 1
 978 -507 1039 -625 1158 -625 c 0
 1297 -625 1318 -439 1318 -250 c 0
 1318 -240 1325 -231 1336 -231 c 2
 1376 -230 l 2
 1385 -230 1391 -240 1393 -250 c 0
 1443 -500 1385 -740 1158 -740 c 0
 970 -740 853 -604 853 -250 c 0
 853 -156 860 -48 868 23 c 0
 869 31 857 35 850 32 c 0
 779 3 692 -20 596 -20 c 0
 340 -20 120 166 120 470 c 0
 120 758 331 970 606 970 c 0
 793 970 954 902 1061 775 c 0
 1069 765 1066 750 1055 743 c 2
 986 699 l 2
 975 692 964 696 956 705 c 0
 875 792 747 845 606 845 c 0
EndSplineSet
EndChar

StartChar: uni19DA
Encoding: 6618 6618 212
Width: 1619
Flags: MW
HStem: -20 110<393 488.5 393 508.5> 417 170 843 125<491 731.5>
VStem: 121 125<433 433> 547 100<160 160>
LayerCount: 2
Fore
SplineSet
462 -20 m 0
 250 -20 123 168 121 433 c 0
 119 699 272 968 617 968 c 0
 888 968 1052 792 1124 595 c 0
 1127 587 1137 583 1143 590 c 0
 1400 874 1524 1244 1534 1545 c 0
 1534 1556 1542 1570 1554 1570 c 2
 1649 1570 l 2
 1662 1570 1669 1553 1669 1545 c 0
 1647 1169 1472 811 1122 432 c 0
 1099 408 1056 413 1044 451 c 0
 972 680 847 843 616 843 c 0
 366 843 246 656 246 433 c 0
 246 234 324 90 462 90 c 0
 515 90 547 128 547 160 c 0
 547 196 511 231 469 240 c 0
 460 242 452 252 455 260 c 2
 477 313 l 2
 481 323 490 327 499 325 c 0
 579 310 649 242 647 160 c 0
 644 48 555 -20 462 -20 c 0
EndSplineSet
EndChar

StartChar: uni19DE
Encoding: 6622 6622 213
Width: 1862
Flags: MW
HStem: -20 125<475 480.5 395 491 1042 1203.5> 845 125<397 579.5> 1455 115<1473.5 1634.5>
VStem: 110 125<340 540 340 571> 1277 125 1327 125 1725 91
LayerCount: 2
Fore
SplineSet
1120 -20 m 0xfa
 882 -20 791 198 750 475 c 0
 723 659 664 845 495 845 c 0
 299 845 235 640 235 440 c 0
 235 240 315 105 475 105 c 0
 486 105 501 106 510 108 c 0
 521 110 533 110 537 102 c 2
 583 23 l 2
 588 14 585 2 575 -2 c 0
 544 -15 507 -20 475 -20 c 0
 230 -19 110 168 110 440 c 0
 110 702 198 970 495 970 c 0
 766 970 844 709 880 475 c 0
 913 258 964 105 1120 105 c 0xf6
 1287 105 1365 286 1310 710 c 1
 1234 1261 1278 1570 1565 1570 c 0
 1792 1570 1850 1330 1800 1080 c 0
 1798 1070 1792 1060 1783 1060 c 2
 1743 1061 l 2
 1732 1061 1725 1070 1725 1080 c 0
 1725 1269 1704 1455 1565 1455 c 0xfa
 1382 1455 1377 1214 1435 710 c 1xf6
 1491 298 1415 -20 1120 -20 c 0xfa
EndSplineSet
EndChar

StartChar: uni19D7
Encoding: 6615 6615 214
Width: 1747
Flags: MW
HStem: -680 115<1316 1484.5 1316 1528.5> -20 125<455 460.5 375 471> 845 125<382.5 495 874.5 1048.5>
VStem: 120 125<380 604 380 609.5> 643 85<630 704 704 719> 1157 73 1575 91
LayerCount: 2
Fore
SplineSet
440 845 m 0
 325 845 245 728 245 480 c 0
 245 280 295 105 455 105 c 0
 466 105 481 106 490 108 c 0
 501 110 513 110 517 102 c 2
 563 23 l 2
 568 14 565 2 555 -2 c 0
 524 -15 487 -20 455 -20 c 0
 210 -19 120 208 120 480 c 0
 120 739 209 970 440 970 c 0
 632 970 728 815 728 635 c 1
 644 635 l 1
 644 769 550 845 440 845 c 0
1415 -565 m 0
 1554 -565 1575 -379 1575 -190 c 0
 1575 -180 1582 -171 1593 -171 c 2
 1633 -170 l 2
 1642 -170 1648 -180 1650 -190 c 0
 1700 -440 1642 -680 1415 -680 c 0
 1148 -680 1058 -396 1130 115 c 0
 1183 488 1177 845 920 845 c 0
 829 845 728 773 728 635 c 0
 728 625 720 615 711 615 c 2
 661 615 l 2
 650 615 643 625 643 635 c 0
 643 803 747 970 930 970 c 0
 1260 970 1320 575 1255 115 c 0
 1205 -239 1217 -565 1415 -565 c 0
EndSplineSet
EndChar

StartChar: uni19D9
Encoding: 6617 6617 215
Width: 1292
Flags: MW
HStem: -680 105<562 858 562 873.5> 220 125<695 715> 845 125<524 743>
VStem: 130 125<-45 431.5 -45 471.5> 955 125<540 650>
LayerCount: 2
Fore
SplineSet
715 -575 m 0
 1001 -575 1095 -420 1140 -270 c 0
 1143 -259 1157 -252 1165 -255 c 2
 1197 -266 l 2
 1207 -270 1213 -282 1211 -292 c 0
 1171 -464 1032 -680 715 -680 c 0
 308 -680 130 -352 130 200 c 0
 130 743 351 970 630 970 c 0
 957 970 1080 772 1080 590 c 0
 1080 418 960 221 715 220 c 0
 658 220 596 236 545 265 c 0
 536 270 532 281 537 290 c 2
 583 369 l 2
 587 377 601 380 610 375 c 0
 636 360 675 345 715 345 c 0
 875 345 955 490 955 590 c 0
 955 710 856 845 630 845 c 0
 418 845 255 663 255 200 c 0
 255 -290 409 -575 715 -575 c 0
EndSplineSet
EndChar

StartChar: uni19D6
Encoding: 6614 6614 216
Width: 1326
Flags: MW
HStem: -20 125<594 795.5 594 853.5> 848 125<975 1017.5> 1475 95<562 818>
VStem: 140 125<523.5 1020 523.5 1051> 806 125<741 799.5 741 844.5> 1056 130<753.5 777.5> 1071 125<217 344>
LayerCount: 2
Fore
SplineSet
700 1475 m 0xfa
 424 1475 265 1275 265 765 c 0
 265 282 488 105 700 105 c 0
 891 105 1071 131 1071 303 c 0xfa
 1071 385 1023 446 955 508 c 0
 891 566 806 654 806 783 c 0
 806 906 874 973 996 973 c 0
 1119 973 1186 858 1186 758 c 0
 1186 748 1180 740 1170 739 c 1
 1078 740 l 1
 1070 739 1056 749 1056 758 c 0xfc
 1056 797 1039 848 996 848 c 0
 954 848 931 816 931 783 c 0
 931 699 995 636 1047 593 c 0
 1127 527 1196 448 1196 303 c 0
 1196 67 1007 -20 700 -20 c 0
 421 -20 140 202 140 765 c 0
 140 1337 323 1570 700 1570 c 0
 967 1570 1106 1404 1146 1282 c 0
 1149 1272 1142 1260 1132 1256 c 2
 1100 1245 l 2
 1092 1242 1079 1250 1075 1260 c 0
 1030 1360 936 1475 700 1475 c 0xfa
EndSplineSet
EndChar

StartChar: uni19A8
Encoding: 6568 6568 217
Width: 1250
Flags: MW
HStem: -600 165<542 708 542 752> -260 165<542 708> -24 21G 740 230<555.5 711>
VStem: 90 250<389.5 531 389.5 597.5> 220 190<-367.5 -322.5 -367.5 -272.5> 845 190<-367.5 -323> 920 250<393.5 538.5>
LayerCount: 2
Fore
SplineSet
410 -345 m 0xf6
 410 -390 459 -435 625 -435 c 0
 791 -435 845 -390 845 -345 c 0
 845 -301 791 -260 625 -260 c 0
 459 -260 410 -300 410 -345 c 0xf6
220 -345 m 0
 220 -200 371 -95 625 -95 c 0
 879 -95 1035 -200 1035 -345 c 0
 1035 -488 879 -600 625 -600 c 0
 371 -600 220 -488 220 -345 c 0
630 970 m 0xf9
 924 970 1170 766 1170 450 c 0
 1170 219 1039 61 860 -20 c 0
 850 -24 839 -23 834 -14 c 2
 746 164 l 2
 741 172 745 188 755 190 c 0
 850 208 920 337 920 450 c 0
 920 627 792 740 630 740 c 0
 481 740 340 622 340 440 c 0
 340 339 398 221 485 180 c 0
 497 174 499 160 491 150 c 1
 397 -14 l 1
 389 -24 375 -28 365 -20 c 0
 218 87 90 233 90 440 c 0
 90 755 352 970 630 970 c 0xf9
EndSplineSet
EndChar

StartChar: uni19A7
Encoding: 6567 6567 218
Width: 1266
Flags: MW
HStem: -580 105<521 687 521 716> -220 105<521 687> -20 110<450.5 637.5 450.5 692> 0 21G<1074.5 1079 1079 1122> 365 105<453 657> 845 125<513.5 710>
VStem: 124 110<178.5 259 178.5 297> 224 105<-382.5 -307.5 -382.5 -272.5> 884 105<-382.5 -307.5> 1009 125<361.5 599.5>
LayerCount: 2
Fore
SplineSet
524 470 m 0xee40
 841 470 1105 287 1135 15 c 0
 1136 5 1131 0 1122 0 c 2
 1079 0 l 2xde40
 1070 0 1062 4 1060 15 c 0
 1015 230 790 365 524 365 c 0
 382 365 234 293 234 225 c 0
 234 132 382 90 519 90 c 0
 756 90 1009 233 1009 490 c 0
 1009 709 826 845 594 845 c 0
 433 845 290 772 229 665 c 0
 223 654 209 651 199 659 c 2
 130 713 l 2
 120 721 117 734 124 745 c 0
 211 892 387 970 594 970 c 0
 929 970 1134 748 1134 490 c 0
 1134 186 865 -20 519 -20 c 0
 325 -20 124 62 124 225 c 0
 124 369 325 470 524 470 c 0xee40
329 -345 m 0xedc0
 329 -420 438 -475 604 -475 c 0
 770 -475 884 -420 884 -345 c 0
 884 -270 770 -220 604 -220 c 0
 438 -220 329 -270 329 -345 c 0xedc0
224 -345 m 0
 224 -200 380 -115 604 -115 c 0
 828 -115 989 -200 989 -345 c 0
 989 -488 828 -580 604 -580 c 0
 380 -580 224 -488 224 -345 c 0
EndSplineSet
EndChar
